{"glyphs":{"0":{"x_min":20,"x_max":580,"ha":600,"o":"m 20 377 l 20 377 q 20 418 27 464 q 34 510 49 554 q 64 598 87 638 q 110 678 141 709 q 172 739 212 757 q 251 774 300 774 l 300 774 q 368 774 421 752 q 473 730 509 690 q 544 650 562 595 q 580 539 580 473 l 580 473 q 580 427 571 373 q 562 319 543 267 q 523 214 494 166 q 465 118 427 81 q 389 44 341 22 q 292 0 236 0 l 236 0 q 186 0 151 18 q 115 36 91 66 q 67 96 53 136 q 39 175 32 217 q 24 258 22 300 q 20 342 20 377 m 105 332 l 105 332 q 105 292 109 249 q 113 205 129 169 q 145 132 175 109 q 205 85 257 85 l 257 85 q 300 85 334 106 q 368 126 394 159 q 420 192 440 234 q 459 275 471 318 q 483 361 489 401 q 495 441 495 472 l 495 472 q 495 517 488 557 q 481 597 463 626 q 445 655 413 672 q 381 688 328 688 l 328 688 q 284 688 251 671 q 217 654 192 626 q 167 598 151 562 q 134 525 124 485 q 114 445 110 406 q 105 366 105 332"},"1":{"x_min":20,"x_max":238,"ha":236,"o":"m 20 643 l 20 643 q 20 656 20 682 q 20 707 25 733 q 30 758 41 777 q 52 796 75 796 l 75 796 q 88 796 97 774 q 105 751 111 718 q 116 684 119 644 q 121 603 123 567 q 124 531 125 505 q 126 478 128 472 l 128 472 q 131 456 140 424 q 148 392 158 352 q 168 311 180 267 q 192 223 203 183 q 213 143 222 111 q 231 79 236 65 l 236 65 q 236 63 237 59 q 238 55 238 53 l 238 53 q 238 42 231 36 q 223 29 213 26 q 202 22 191 21 q 180 20 171 20 l 171 20 q 167 20 160 21 q 152 22 150 22 l 150 22 q 129 92 106 170 q 82 247 63 327 q 44 407 32 488 q 20 568 20 643"},"2":{"x_min":13,"x_max":666,"ha":664,"o":"m 212 97 l 212 97 q 212 152 223 206 q 233 259 246 313 q 259 367 270 423 q 280 478 280 535 l 280 535 q 280 543 280 562 q 279 580 279 600 q 279 620 279 639 q 278 657 278 664 l 278 664 q 276 668 268 676 q 260 684 257 686 l 257 686 l 246 686 q 213 686 191 672 q 169 657 154 636 q 138 615 125 590 q 112 564 97 543 q 81 522 62 508 q 42 493 13 493 l 13 493 q 13 546 31 597 q 49 647 83 687 q 116 726 163 750 q 209 774 265 774 l 265 774 q 289 774 304 772 q 319 770 330 763 q 341 756 348 743 q 355 729 364 706 l 364 706 q 364 698 364 678 q 364 657 365 633 q 365 609 366 588 q 366 566 366 558 l 366 558 q 366 505 360 454 q 354 403 346 353 q 337 303 331 253 q 325 202 325 150 l 325 150 l 343 150 l 579 257 q 580 257 584 258 q 587 258 592 258 q 597 258 602 259 q 606 259 608 259 l 608 259 q 617 259 627 258 q 637 257 646 254 q 654 251 660 244 q 666 237 666 225 l 666 225 q 666 204 653 192 q 640 180 623 173 q 605 166 587 161 q 568 156 556 150 l 556 150 q 547 145 528 135 q 508 125 482 113 q 456 100 428 86 q 400 72 375 59 q 350 46 330 36 q 310 26 300 22 l 300 22 q 298 22 294 22 q 289 21 284 21 q 278 21 274 21 q 269 20 267 20 l 267 20 q 247 20 236 25 q 224 29 219 39 q 214 48 213 62 q 212 76 212 97"},"3":{"x_min":0,"x_max":560,"ha":579,"o":"m 298 43 l 298 43 q 298 46 300 55 q 301 63 301 65 l 301 65 q 326 82 356 110 q 386 137 412 170 q 438 202 456 238 q 473 274 473 310 l 473 310 q 473 312 473 314 q 472 316 472 318 l 472 318 q 472 319 472 321 l 472 321 q 468 325 459 335 q 450 344 440 354 q 430 364 421 373 q 411 382 408 386 l 408 386 q 406 386 403 387 l 403 387 q 401 387 400 388 q 398 388 396 388 l 396 388 q 377 388 352 373 q 327 357 303 338 q 279 318 261 301 q 242 283 236 278 l 236 278 q 234 277 231 277 l 231 277 q 229 276 225 276 l 225 276 q 221 276 220 277 l 220 277 q 217 277 215 278 l 215 278 q 211 280 203 289 q 194 297 193 301 l 193 301 l 193 310 l 193 321 q 201 346 215 384 q 229 422 243 464 q 257 505 268 547 q 278 588 278 621 l 278 621 q 278 645 276 669 q 274 692 266 711 q 258 730 243 741 q 228 752 202 752 l 202 752 q 167 752 141 733 q 114 713 96 684 q 77 654 69 621 q 61 587 65 558 l 65 558 l 22 558 q 21 558 18 568 q 15 578 12 592 q 8 605 5 620 q 2 634 0 643 l 0 643 l 0 664 q 0 699 20 731 q 40 762 70 786 q 100 810 135 824 q 169 838 199 838 l 199 838 q 245 838 276 822 q 306 806 326 779 q 345 752 355 717 q 364 682 367 644 q 370 606 368 567 q 366 527 364 493 l 364 493 q 405 486 441 473 q 476 460 503 439 q 529 417 545 386 q 560 354 560 309 l 560 309 q 560 284 551 252 q 542 220 526 186 q 509 151 488 118 q 466 85 441 59 q 416 32 388 16 q 360 0 332 0 l 332 0 q 313 0 306 14 q 298 27 298 43"},"4":{"x_min":-6,"x_max":602,"ha":621,"o":"m 301 268 l -6 268 q -6 307 8 361 q 22 415 48 474 q 73 532 107 590 q 141 647 181 693 q 221 739 266 768 q 310 796 354 796 l 354 796 q 364 796 381 796 q 397 795 413 792 q 429 789 441 782 q 453 775 453 761 l 453 761 q 453 760 451 755 l 451 755 q 450 752 450 751 l 450 751 q 448 747 443 741 q 437 734 431 727 q 424 720 417 714 q 410 708 408 706 l 408 706 q 408 699 408 681 q 407 663 407 643 q 407 623 407 605 q 406 586 406 579 l 406 579 q 406 547 406 518 q 405 488 407 459 q 409 430 414 402 q 418 373 428 343 l 428 343 q 431 343 437 343 q 443 342 450 342 q 457 342 463 342 q 469 341 472 341 l 472 341 q 485 341 498 342 q 511 342 523 346 q 534 350 543 359 q 552 368 558 386 l 558 386 q 589 373 596 356 q 602 338 602 313 l 602 313 q 602 283 589 268 q 576 252 555 245 q 533 238 506 238 q 478 237 450 236 l 450 236 q 454 226 460 202 q 466 177 473 150 q 480 122 486 98 q 491 74 493 65 l 493 65 q 493 63 494 54 q 495 45 495 40 l 495 40 q 495 13 480 6 q 465 -2 439 -2 l 439 -2 q 436 -2 424 -1 q 411 0 408 0 l 408 0 q 406 12 400 40 q 394 67 388 98 q 381 128 374 155 q 367 182 364 193 l 364 193 q 361 201 355 214 q 349 227 341 239 q 332 251 322 260 q 311 268 301 268 l 301 268 m 301 664 l 301 664 q 269 642 235 607 q 200 572 171 531 q 141 490 122 447 q 103 403 103 364 l 103 364 l 323 364 q 323 395 320 441 q 317 486 314 531 q 310 575 306 612 q 301 649 301 664"},"5":{"x_min":20,"x_max":453,"ha":493,"o":"m 367 313 l 367 313 q 367 325 364 338 q 361 351 354 362 q 347 373 337 381 q 326 388 310 388 l 310 388 q 310 388 309 388 q 307 387 305 387 l 305 387 q 302 386 301 386 l 301 386 q 296 383 283 377 q 269 371 252 362 q 234 353 214 343 q 194 333 177 325 q 159 316 146 309 q 133 302 129 301 l 129 301 q 127 300 124 299 l 124 299 q 121 298 118 298 l 118 298 q 95 298 79 320 q 63 341 52 375 q 41 408 35 449 q 29 489 26 527 q 22 565 21 597 q 20 628 20 643 l 20 643 q 20 650 21 665 q 21 680 21 698 q 21 715 22 730 q 22 745 22 751 l 22 751 q 46 752 93 759 q 139 766 192 774 q 244 781 294 787 q 344 793 375 793 l 375 793 q 400 793 417 784 q 433 774 433 751 l 433 751 q 433 727 423 720 q 413 712 386 706 l 386 706 q 376 705 354 701 q 332 697 305 693 q 277 688 247 684 q 217 679 190 675 q 162 671 140 668 q 118 665 107 664 l 107 664 q 107 661 107 656 q 106 650 106 643 q 106 635 106 630 q 105 624 105 621 l 105 621 q 105 613 107 596 q 108 578 111 557 q 114 535 119 512 q 123 489 129 470 q 135 451 142 439 q 149 427 158 427 l 158 427 q 178 427 196 434 q 213 441 231 450 q 248 459 267 466 q 286 473 309 473 l 309 473 q 351 473 379 463 q 407 452 423 431 q 439 409 446 378 q 453 346 453 304 l 453 304 q 453 257 437 205 q 421 152 392 108 q 362 63 319 34 q 276 4 221 4 l 221 4 q 221 36 232 62 q 243 88 259 111 q 275 134 294 156 q 313 178 330 202 q 346 225 357 252 q 367 279 367 313"},"6":{"x_min":20,"x_max":430,"ha":472,"o":"m 22 85 l 22 85 q 22 91 22 105 q 21 119 21 134 q 21 149 21 163 q 20 176 20 183 l 20 183 q 20 202 21 251 q 22 299 27 360 q 32 421 42 487 q 51 552 67 607 q 83 661 106 696 q 128 731 160 731 l 160 731 q 161 731 163 731 q 165 730 166 730 l 166 730 q 169 729 171 729 l 171 729 q 175 727 183 719 q 191 711 193 706 l 193 706 l 193 697 l 193 686 q 191 679 186 658 q 181 636 175 608 q 168 579 161 547 q 153 514 146 486 q 139 457 135 436 q 130 414 128 408 l 128 408 q 127 405 128 400 q 129 394 130 388 q 130 382 131 377 q 132 372 132 369 l 132 369 q 153 369 173 376 q 193 382 214 390 q 235 397 256 403 q 277 409 300 409 l 300 409 q 367 409 399 371 q 430 333 430 268 l 430 268 q 430 217 407 168 q 383 119 345 81 q 306 42 257 19 q 208 -5 157 -5 l 157 -5 q 132 -5 113 -2 q 94 1 79 11 q 63 20 49 38 q 35 55 22 85 m 126 193 l 126 193 q 126 182 128 164 q 130 145 136 128 q 142 110 153 97 q 164 84 182 84 l 182 84 q 206 84 235 102 q 263 120 287 147 q 311 173 328 203 q 345 233 345 257 l 345 257 q 345 276 338 285 q 331 294 321 298 q 310 302 296 302 q 281 302 265 302 l 265 302 q 238 302 214 296 q 189 289 169 276 q 149 262 138 241 q 126 220 126 193"},"7":{"x_min":22,"x_max":560,"ha":600,"o":"m 450 535 l 450 546 l 450 558 q 445 561 433 564 q 420 567 407 571 q 393 574 381 577 q 369 579 364 579 l 364 579 q 351 579 325 580 q 298 580 264 581 q 230 582 193 583 q 156 584 122 585 q 88 586 61 587 q 34 587 22 587 l 22 587 l 22 643 q 22 650 40 654 q 57 658 84 661 q 110 663 142 664 q 173 665 201 666 q 228 666 247 666 q 265 666 268 666 l 268 666 q 283 666 310 667 q 337 668 369 667 q 401 666 435 662 q 469 658 497 648 q 525 638 543 622 q 560 605 560 579 l 560 579 q 560 514 551 468 q 541 421 528 384 q 514 346 500 312 q 485 278 475 240 q 465 202 463 155 q 461 108 472 43 l 472 43 q 459 17 444 8 q 429 -2 408 -2 l 408 -2 q 403 -2 396 -1 q 388 0 386 0 l 386 0 q 385 5 384 19 q 382 32 382 58 q 382 83 385 123 q 388 162 396 220 q 403 277 416 355 q 429 433 450 535 l 450 535"},"8":{"x_min":0,"x_max":560,"ha":579,"o":"m 105 163 l 105 163 q 105 166 106 171 q 106 175 106 180 q 106 184 107 188 q 107 192 107 193 l 107 193 q 109 197 119 216 q 128 235 139 257 q 149 279 159 298 q 168 317 171 321 l 171 321 l 171 332 l 171 343 q 162 350 146 365 q 130 379 111 398 q 92 416 72 438 q 52 459 37 482 q 21 504 11 526 q 0 548 0 568 l 0 568 q 0 619 28 653 q 56 687 100 708 q 144 728 199 738 q 254 747 308 750 q 362 753 409 753 q 456 752 485 752 l 485 752 q 520 752 540 733 q 560 713 560 678 l 560 678 q 560 651 547 619 q 534 587 513 554 q 492 521 468 489 q 443 457 419 429 q 394 400 374 378 q 354 356 343 343 l 343 343 q 360 317 376 292 q 392 266 404 240 q 416 214 423 187 q 430 159 430 129 l 430 129 q 430 61 389 30 q 347 -2 281 -2 l 281 -2 q 247 -2 216 11 q 184 23 160 46 q 135 68 120 99 q 105 129 105 163 m 212 160 l 212 160 q 212 129 233 107 q 254 85 290 85 l 290 85 q 312 85 329 95 q 345 104 345 126 l 345 126 q 345 148 337 166 q 328 184 316 201 q 303 217 288 231 q 273 245 257 257 l 257 257 q 233 241 223 215 q 212 188 212 160 m 105 579 l 105 579 q 105 554 120 527 q 135 500 157 478 q 179 456 206 442 q 233 427 257 427 l 257 427 q 261 427 269 428 q 276 428 278 428 l 278 428 q 285 434 305 451 q 324 467 345 489 q 366 510 384 534 q 402 558 408 579 l 408 579 q 391 604 377 618 q 362 631 347 637 q 331 643 314 644 q 297 645 274 645 l 274 645 q 256 645 227 645 q 198 645 171 640 q 144 634 125 620 q 105 606 105 579"},"9":{"x_min":20,"x_max":472,"ha":493,"o":"m 367 439 l 367 439 q 367 443 367 454 q 366 464 365 477 q 364 489 364 500 q 364 510 364 514 l 364 514 q 337 484 317 467 q 297 449 278 441 q 258 432 237 430 q 216 427 186 427 l 186 427 q 157 427 135 432 q 112 436 94 446 q 75 456 58 473 q 40 490 22 514 l 22 514 q 22 519 22 533 q 21 547 21 563 q 21 579 21 593 q 20 606 20 611 l 20 611 q 20 661 33 706 q 45 751 72 786 q 98 820 140 840 q 181 859 238 859 l 238 859 q 292 859 331 838 q 370 817 396 782 q 421 747 437 702 q 452 656 460 609 q 467 561 470 513 q 472 465 472 427 l 472 427 l 472 408 q 470 395 465 368 q 460 341 454 308 q 447 274 440 237 q 433 199 427 165 q 420 131 415 104 q 410 77 408 65 l 408 65 q 392 36 368 24 q 344 11 313 11 l 313 11 q 313 66 322 120 q 330 173 340 226 q 350 279 359 332 q 367 385 367 439 m 105 621 l 105 621 q 105 601 108 582 q 110 562 118 548 q 125 533 141 524 q 156 514 183 514 l 183 514 q 208 514 237 536 q 265 557 289 587 q 313 616 329 647 q 345 678 345 697 l 345 697 q 345 711 333 725 q 320 739 303 750 q 286 760 268 767 q 249 774 238 774 l 238 774 q 200 774 174 763 q 148 751 133 731 q 118 711 112 683 q 105 655 105 621"}," ":{"x_min":0,"x_max":0,"ha":461,"o":""},"!":{"x_min":22,"x_max":142,"ha":150,"o":"m 97 87 l 97 87 q 110 87 123 79 q 135 71 139 60 q 142 48 132 34 q 122 20 89 8 l 89 8 q 62 12 51 22 q 39 31 38 42 q 36 52 43 63 q 49 73 59 81 q 68 88 79 91 q 90 93 97 87 m 22 751 l 22 751 q 49 776 64 762 q 79 748 87 709 q 94 670 95 616 q 96 561 97 504 q 97 447 99 396 q 100 345 107 315 l 107 315 q 107 300 105 289 q 103 278 98 271 q 93 264 82 261 q 71 257 53 257 l 53 257 q 50 257 47 260 q 44 263 41 278 q 38 292 35 323 q 32 353 30 408 q 27 463 25 546 q 22 629 22 751"},"\"":{"x_min":18,"x_max":323,"ha":364,"o":"m 20 729 l 20 729 q 20 736 21 755 q 21 773 21 794 q 21 814 22 832 q 22 850 22 858 l 22 858 q 23 860 32 869 q 40 877 42 879 l 42 879 q 44 879 47 880 l 47 880 q 49 880 51 881 q 52 881 53 881 l 53 881 q 54 881 56 881 q 58 880 59 880 l 59 880 q 62 879 65 879 l 65 879 q 66 878 69 876 q 72 873 76 870 q 79 866 82 863 q 85 859 85 858 l 85 858 q 81 809 92 766 q 102 723 116 685 q 130 646 142 612 q 154 578 154 546 l 154 546 q 154 535 151 522 q 148 508 141 497 q 133 485 123 478 q 112 470 95 470 l 95 470 q 72 470 57 486 q 41 502 33 528 q 25 553 22 584 q 19 615 19 644 q 18 672 19 696 q 20 719 20 729 m 193 796 l 193 796 q 193 807 197 819 q 201 830 208 839 q 214 848 224 854 q 234 859 246 859 l 246 859 q 259 859 270 837 q 281 815 290 782 q 299 748 305 709 q 310 670 315 636 q 319 602 321 579 q 323 556 323 555 l 323 555 q 323 512 276 512 l 276 512 q 259 512 246 531 q 233 549 224 578 q 214 606 208 641 q 202 675 199 707 q 195 738 194 763 q 193 787 193 796"},"#":{"x_min":23,"x_max":733,"ha":703,"o":"m 211 245 l 211 245 q 211 255 207 286 q 202 316 191 367 l 191 367 q 128 348 91 352 q 53 355 38 370 q 23 385 30 405 q 37 425 62 439 q 86 452 128 454 q 169 455 225 435 l 225 435 q 229 440 232 456 q 234 472 237 493 q 240 514 244 537 q 247 560 250 579 q 252 598 254 612 q 256 625 259 625 l 259 625 q 265 629 278 631 q 291 633 303 634 l 303 634 q 319 636 336 636 l 336 636 l 349 472 l 424 472 q 424 474 425 489 q 426 504 429 526 q 431 547 436 572 q 440 597 447 618 q 454 638 464 652 q 473 666 487 666 l 487 666 q 491 666 499 666 q 507 665 514 663 q 521 661 527 657 q 532 652 532 643 l 532 643 l 532 493 q 543 489 562 485 q 580 481 603 478 q 625 474 648 470 q 671 466 690 461 q 709 456 721 450 q 733 443 733 435 l 733 435 q 726 414 705 405 q 683 395 657 390 q 630 384 604 380 q 577 375 561 366 q 544 357 542 340 q 539 323 562 292 l 562 292 q 573 292 590 294 q 607 296 625 298 q 643 300 661 300 q 679 300 693 296 q 707 292 716 282 q 725 272 725 254 l 725 254 q 725 238 706 228 q 686 218 660 211 q 634 204 610 200 q 585 196 574 193 l 574 193 q 577 175 581 150 q 585 124 584 100 q 582 76 571 58 q 560 40 532 40 l 532 40 q 511 47 502 62 q 492 76 487 94 q 481 111 477 128 q 473 144 463 155 q 453 166 433 168 q 413 169 377 157 l 377 157 q 377 139 377 116 q 377 92 373 71 q 368 49 355 35 q 342 20 317 20 l 317 20 q 308 20 297 35 q 285 50 273 72 q 260 93 247 114 q 234 135 222 148 l 222 148 q 162 154 130 162 q 97 169 85 177 q 73 185 78 194 q 83 202 96 210 l 96 210 q 129 227 211 245 m 338 301 l 338 301 q 338 292 343 287 q 348 282 355 280 q 362 277 370 277 q 377 276 382 276 l 382 276 q 390 276 401 278 q 412 279 423 282 q 433 285 441 292 q 448 298 448 309 l 448 309 q 448 331 438 349 q 427 367 405 367 l 405 367 q 393 367 381 362 q 369 356 360 347 q 350 337 344 325 q 338 313 338 301"},"$":{"x_min":25,"x_max":618,"ha":621,"o":"m 253 -24 l 60 18 q 42 22 39 37 q 36 51 36 64 l 36 64 q 25 78 33 88 q 41 98 60 104 q 78 109 104 111 q 130 113 155 113 q 179 112 199 108 q 218 103 225 98 l 225 98 q 235 162 235 206 q 234 249 227 279 q 219 308 205 327 q 191 345 174 358 q 157 370 139 381 q 121 391 105 405 q 88 418 75 438 q 62 458 55 490 l 55 490 q 55 517 67 538 q 79 558 98 573 q 116 588 138 599 q 159 610 178 620 q 196 630 208 640 q 220 649 220 661 l 220 661 l 220 833 q 220 841 230 846 q 239 850 252 854 q 264 858 275 859 q 285 860 289 860 l 289 860 q 289 811 294 760 q 298 708 317 661 l 317 661 q 326 661 351 658 q 375 655 403 652 q 430 648 455 645 q 479 642 489 641 l 489 641 q 491 640 498 637 q 504 634 511 630 q 517 626 523 623 q 529 620 531 618 l 531 618 q 537 600 539 584 q 541 567 524 559 q 507 551 464 556 q 420 561 338 587 l 338 587 q 327 587 322 574 q 317 561 315 545 q 313 529 314 516 q 314 502 314 501 l 314 501 q 314 498 315 490 q 315 482 316 474 q 316 466 317 459 q 317 451 317 447 l 317 447 q 328 445 355 442 q 381 438 414 431 q 447 424 483 413 q 519 402 550 387 q 580 371 599 350 q 618 328 618 300 l 618 300 q 618 245 593 203 q 568 160 530 127 q 491 94 446 67 q 400 40 359 18 l 359 18 l 359 -14 q 359 -36 363 -57 q 366 -79 371 -100 q 376 -122 380 -143 q 383 -165 383 -187 l 383 -187 q 383 -213 374 -226 q 365 -240 337 -240 l 337 -240 q 325 -240 319 -238 q 313 -237 309 -232 q 305 -228 303 -219 q 300 -210 295 -195 l 295 -195 q 292 -185 286 -161 q 279 -137 272 -109 q 265 -82 260 -58 q 254 -34 253 -24 l 253 -24 m 312 345 l 312 345 q 312 288 319 235 q 325 181 338 126 l 338 126 l 348 126 q 372 126 400 139 q 428 151 453 172 q 478 192 495 217 q 511 241 511 265 l 511 265 q 511 300 490 317 q 468 333 438 340 q 407 346 372 346 q 337 345 312 345 m 143 492 l 143 492 q 143 462 162 451 q 180 440 209 440 l 209 440 l 209 537 q 198 537 187 535 q 175 533 166 528 q 156 522 150 514 q 143 505 143 492"},"%":{"x_min":20,"x_max":731,"ha":771,"o":"m 247 86 l 247 86 q 256 110 267 165 q 278 220 293 291 q 307 361 325 438 q 343 514 365 580 q 387 646 413 694 q 439 741 471 752 l 471 752 q 516 752 516 706 l 516 706 q 514 688 507 648 q 499 607 488 555 q 476 503 461 443 q 446 382 429 321 q 412 259 394 202 q 376 144 358 99 q 340 53 323 24 q 306 -6 292 -11 q 277 -17 266 6 q 254 28 247 86 m 448 183 l 448 183 q 448 218 468 241 q 488 264 517 278 q 546 292 579 297 q 611 302 636 302 l 636 302 q 688 302 710 281 q 731 259 731 208 l 731 208 q 731 131 688 86 q 645 40 566 40 l 566 40 q 544 40 523 54 q 501 68 485 90 q 468 111 458 136 q 448 161 448 183 m 647 221 l 647 221 q 611 227 587 227 q 563 227 553 218 q 543 209 547 190 q 551 170 572 138 l 572 138 q 603 121 621 121 q 638 121 646 135 q 654 148 654 171 q 653 193 647 221 m 20 512 l 20 512 q 20 544 27 579 q 34 613 51 642 q 67 670 94 688 q 121 706 160 706 l 160 706 q 180 706 198 697 q 216 687 230 671 q 243 655 251 636 q 259 616 259 598 l 259 598 q 259 571 241 544 q 223 517 197 496 q 171 474 141 461 q 111 448 85 448 l 85 448 q 58 448 39 466 q 20 484 20 512 m 178 628 l 178 628 q 142 634 118 634 q 94 634 84 625 q 74 616 78 597 q 82 577 103 544 l 103 544 q 134 527 152 528 q 169 528 177 541 q 185 554 185 577 q 184 600 178 628"},"&":{"x_min":0,"x_max":714,"ha":751,"o":"m 129 160 l 129 160 q 129 184 133 207 q 136 229 141 252 q 145 274 149 297 q 152 319 152 343 l 152 343 q 152 346 152 352 q 151 357 151 365 q 151 372 151 378 q 150 383 150 386 l 150 386 q 129 402 103 424 q 76 445 54 471 q 31 497 16 527 q 0 556 0 589 l 0 589 q 0 637 31 679 q 61 720 106 751 q 150 782 200 800 q 250 818 290 818 l 290 818 q 349 818 370 791 q 390 764 390 706 l 390 706 q 390 666 376 629 q 361 592 344 556 q 327 520 313 484 q 298 447 298 408 l 298 408 q 298 383 318 364 q 337 344 364 330 q 390 316 418 309 q 445 301 461 301 l 461 301 l 472 301 q 472 304 480 329 q 488 353 503 381 q 517 408 536 430 q 555 451 579 450 l 579 450 q 586 440 591 433 q 595 426 598 419 q 600 412 601 405 q 602 397 602 386 l 602 386 q 602 371 598 357 q 594 342 590 328 q 585 313 581 299 q 577 284 577 268 l 577 268 q 577 266 578 262 q 578 257 578 252 q 578 247 579 242 q 579 237 579 236 l 579 236 q 607 227 632 220 q 657 212 675 201 q 693 190 704 172 q 714 153 714 122 l 714 122 q 695 103 673 104 q 650 105 624 116 q 597 127 566 143 q 535 159 501 171 l 501 171 q 482 171 463 159 q 443 146 422 127 q 400 108 377 86 q 354 63 330 44 q 305 25 279 13 q 253 0 225 0 l 225 0 q 193 0 175 16 q 156 32 146 57 q 135 81 132 109 q 129 137 129 160 m 212 158 l 212 158 q 212 150 213 141 q 214 131 217 124 q 220 117 227 112 q 234 107 246 107 l 246 107 q 267 107 291 118 q 314 129 337 145 q 359 161 378 180 q 396 199 408 215 l 408 215 q 407 216 404 219 q 401 222 398 226 q 394 229 391 232 q 387 235 386 236 l 386 236 q 379 240 363 250 q 347 260 330 271 q 313 281 298 290 q 283 298 278 301 l 278 301 q 275 301 274 301 l 274 301 q 272 301 271 302 q 269 302 268 302 l 268 302 q 247 302 236 286 q 225 269 220 246 q 214 222 213 198 q 212 174 212 158 m 84 577 l 84 577 q 84 574 84 571 q 84 568 85 565 l 85 565 q 85 562 85 558 l 85 558 l 193 450 q 226 471 249 505 q 272 538 287 577 q 301 616 308 658 q 315 699 315 735 l 315 735 q 281 735 241 725 q 201 715 166 696 q 130 677 107 647 q 84 617 84 577"},"'":{"x_min":22,"x_max":130,"ha":150,"o":"m 22 664 l 22 664 q 22 667 24 673 q 26 679 30 686 q 33 693 37 699 q 40 705 42 707 l 42 707 q 44 707 47 708 l 47 708 q 49 708 51 709 q 52 709 53 709 l 53 709 q 72 709 87 696 q 101 683 111 664 q 121 645 126 625 q 130 604 130 589 l 130 589 q 130 579 127 562 q 124 544 118 529 q 111 514 101 503 q 90 491 75 491 l 75 491 q 58 491 49 514 q 39 536 33 566 q 26 595 24 624 q 22 652 22 664"},"(":{"x_min":20,"x_max":323,"ha":343,"o":"m 20 402 l 20 402 q 20 420 24 451 q 28 482 37 519 q 45 555 59 593 q 72 631 90 662 q 108 692 131 712 q 154 731 183 731 l 183 731 q 184 731 185 731 q 186 730 188 730 l 188 730 q 190 729 193 729 l 193 729 q 196 728 204 725 q 211 722 218 719 q 224 715 230 712 q 235 708 236 706 l 236 706 q 236 705 237 703 l 237 703 q 237 701 238 700 q 238 698 238 697 l 238 697 q 238 662 217 628 q 196 594 172 558 q 147 522 126 482 q 105 442 105 396 l 105 396 q 105 334 122 287 q 139 239 168 199 q 196 158 236 121 q 275 84 321 43 l 321 43 q 321 41 322 38 q 323 34 323 32 l 323 32 q 323 13 309 6 q 295 -2 278 -2 l 278 -2 q 233 -2 197 19 q 160 39 132 72 q 103 105 82 148 q 60 190 47 235 q 33 280 27 324 q 20 367 20 402"},")":{"x_min":0,"x_max":323,"ha":364,"o":"m 126 43 l 126 43 q 126 84 144 120 q 161 156 182 193 q 202 229 220 269 q 238 308 238 354 l 238 354 q 238 395 226 427 q 214 459 195 484 q 175 509 150 530 q 125 551 99 572 q 72 592 47 614 q 21 636 0 664 l 0 664 q 3 674 9 679 q 14 684 22 686 q 30 688 38 688 q 46 688 53 688 l 53 688 q 117 688 167 655 q 217 622 252 571 q 286 519 305 459 q 323 398 323 343 l 323 343 q 323 321 319 288 q 315 254 307 216 q 298 177 285 139 q 272 100 254 69 q 236 38 213 18 q 189 -2 160 -2 l 160 -2 q 142 -2 134 13 q 126 27 126 43"},"*":{"x_min":0,"x_max":495,"ha":535,"o":"m 174 292 l 174 292 q 174 293 172 297 l 172 297 q 171 299 171 301 l 171 301 q 168 303 163 307 q 157 310 150 314 q 143 317 137 319 q 131 321 129 321 l 129 321 q 126 321 117 318 q 107 315 96 312 q 85 308 76 305 q 67 301 65 301 l 65 301 q 63 301 54 300 q 45 298 40 298 l 40 298 q 26 298 13 306 q 0 313 0 332 l 0 332 q 0 360 16 378 q 31 396 54 407 q 76 417 103 422 q 129 426 150 428 l 150 428 q 146 436 137 454 q 127 472 117 493 q 106 514 97 533 q 88 551 85 558 l 85 558 q 85 560 85 567 q 84 574 84 579 l 84 579 q 84 583 85 591 q 85 598 87 605 q 89 611 94 616 q 98 621 107 621 l 107 621 q 110 621 116 619 q 121 616 129 613 q 136 609 142 606 q 148 603 150 600 l 150 600 q 156 594 169 576 q 181 558 195 538 q 208 517 220 499 q 231 480 236 472 l 236 472 q 255 495 274 515 q 292 535 313 551 q 334 566 359 575 q 383 583 414 583 l 414 583 q 414 558 403 540 q 391 522 378 506 q 364 489 353 472 q 341 454 341 428 l 341 428 q 341 425 342 417 q 343 409 343 408 l 343 408 q 359 407 385 407 q 410 407 435 402 q 460 396 478 383 q 495 370 495 343 l 495 343 q 495 319 485 310 q 474 301 458 300 q 442 299 423 302 q 404 305 387 306 q 370 306 358 301 q 346 296 343 278 l 343 278 q 345 274 350 261 q 355 247 363 229 q 371 211 380 189 q 388 166 395 146 q 401 126 405 110 q 409 94 408 85 l 408 85 q 408 84 403 78 q 398 72 391 65 q 383 58 376 52 q 369 46 364 43 l 364 43 q 361 42 359 41 l 359 41 q 356 40 354 40 l 354 40 q 330 40 316 61 q 302 81 293 110 q 283 138 275 168 q 267 197 257 215 l 257 215 q 236 181 227 146 q 218 111 206 82 q 194 53 171 35 q 148 17 99 17 l 99 17 q 99 52 107 85 q 114 118 126 150 q 137 182 149 214 q 161 246 171 278 l 171 278 q 171 281 172 283 l 172 283 q 174 289 174 292"},"+":{"x_min":-2,"x_max":495,"ha":514,"o":"m 236 236 l 22 278 q 18 278 10 287 q 2 296 0 301 l 0 301 q -1 302 -1 305 l -1 305 q -2 307 -2 310 l -2 310 q -2 314 -1 317 l -1 317 q -1 319 0 321 l 0 321 q 4 327 12 335 q 20 343 22 343 l 22 343 l 236 343 q 242 395 253 451 q 263 506 278 558 l 278 558 l 290 558 l 301 558 q 305 556 312 553 q 319 549 326 546 q 333 543 338 540 q 343 536 343 535 l 343 535 l 343 335 q 360 335 386 341 q 412 346 437 347 q 461 347 478 338 q 495 328 495 298 l 495 298 q 495 281 484 272 q 472 263 455 259 q 438 254 419 253 q 400 251 383 248 q 365 244 354 237 q 343 229 343 215 l 343 215 q 343 191 354 170 q 364 149 377 129 q 389 109 399 88 q 409 67 409 43 l 409 43 q 409 -2 364 -2 l 364 -2 q 343 -2 326 11 q 309 23 296 44 q 282 65 272 91 q 261 117 254 144 q 246 170 242 195 q 238 219 236 236 l 236 236"},",":{"x_min":29,"x_max":191,"ha":232,"o":"m 157 152 l 157 152 q 168 152 176 147 q 183 142 186 135 q 189 127 190 118 q 191 108 191 99 l 191 99 q 191 78 187 50 q 182 21 173 -10 q 164 -41 151 -71 q 137 -102 119 -125 q 101 -149 79 -163 q 56 -178 29 -178 l 29 -178 q 29 -157 34 -124 q 38 -91 47 -54 q 55 -17 67 20 q 79 56 93 86 q 107 115 123 134 q 139 152 157 152"},"-":{"x_min":76,"x_max":452,"ha":514,"o":"m 76 325 l 76 325 q 76 328 77 337 q 78 345 78 346 l 78 346 q 94 346 122 349 q 149 351 182 354 q 215 356 251 359 q 286 362 318 363 q 350 364 377 364 q 404 364 419 361 l 419 361 q 437 361 445 357 q 452 353 452 330 l 452 330 q 422 310 377 301 q 332 291 285 287 q 238 283 194 283 q 149 283 121 282 l 121 282 q 94 280 85 293 q 76 306 76 325"},".":{"x_min":85,"x_max":184,"ha":227,"o":"m 139 81 l 139 81 q 184 81 184 34 l 184 34 q 173 5 156 -4 q 139 -14 125 -11 q 110 -9 99 3 q 87 15 86 30 q 85 45 97 60 q 109 74 139 81"},"/":{"x_min":41,"x_max":385,"ha":400,"o":"m 41 79 l 41 79 q 43 86 48 104 q 52 122 57 143 q 61 163 65 181 q 69 198 71 205 l 71 205 q 78 233 92 283 q 106 332 127 389 q 147 445 174 503 q 200 560 233 604 q 265 647 303 670 q 341 693 385 681 l 385 681 q 371 625 350 576 q 328 526 304 479 q 279 431 254 385 q 228 338 204 290 q 180 242 161 190 q 141 138 130 79 l 130 79 q 125 50 111 46 q 97 41 79 46 l 79 46 q 66 49 55 55 q 44 61 41 79"},":":{"x_min":-2,"x_max":262,"ha":278,"o":"m 84 53 l 84 53 q 84 85 103 103 q 122 120 150 127 q 178 134 209 135 q 239 136 262 136 l 262 136 q 262 108 254 83 q 246 58 231 40 q 215 21 192 10 q 169 -2 139 -2 l 139 -2 q 108 -2 96 10 q 84 22 84 53 m -2 375 l -2 375 q -2 391 10 405 q 22 419 40 430 q 57 440 76 447 q 94 453 107 453 l 107 453 q 136 453 144 436 q 152 418 152 392 l 152 392 q 152 373 144 360 q 136 346 123 337 q 109 328 91 324 q 73 319 53 319 l 53 319 q 49 319 48 320 l 48 320 q 45 320 43 321 l 43 321 q 40 322 34 328 q 27 334 20 341 q 13 347 8 354 q 2 361 0 364 l 0 364 q -1 366 -1 369 l -1 369 q -2 372 -2 375"},";":{"x_min":8,"x_max":196,"ha":193,"o":"m 65 -386 l 65 -386 q 99 -310 109 -229 q 119 -148 107 -65 l 107 -65 l 150 -22 q 170 -28 180 -47 q 189 -67 193 -91 q 196 -115 196 -141 q 195 -167 195 -185 l 195 -185 q 195 -189 194 -201 q 193 -213 193 -215 l 193 -215 q 191 -225 186 -249 q 180 -273 173 -300 q 166 -328 160 -352 q 153 -376 150 -386 l 150 -386 q 148 -388 142 -391 q 136 -394 129 -397 q 121 -401 116 -404 q 110 -407 107 -408 l 107 -408 l 97 -408 l 85 -408 q 82 -406 75 -397 q 67 -389 65 -386 m 105 238 l 105 238 q 114 238 127 238 q 139 238 149 235 q 159 232 167 225 q 174 218 174 203 l 174 203 q 174 182 155 167 q 135 151 109 141 q 82 130 54 126 q 25 121 8 121 l 8 121 q 8 147 14 168 q 19 189 30 205 q 41 220 60 229 q 78 238 105 238"},"<":{"x_min":20,"x_max":430,"ha":428,"o":"m 20 257 l 20 257 q 20 290 40 323 q 60 356 93 388 q 126 419 168 447 q 210 474 254 495 q 297 516 339 528 q 380 540 411 540 l 411 540 q 411 511 397 487 q 382 463 358 442 q 334 421 305 402 q 275 382 247 363 q 218 344 192 323 q 166 302 150 278 l 150 278 q 149 275 148 274 l 148 274 q 148 271 148 268 l 148 268 q 148 265 148 262 l 148 262 q 149 259 150 257 l 150 257 q 152 256 160 247 q 167 238 171 236 l 171 236 q 176 232 195 221 q 213 210 238 194 q 262 178 290 161 q 317 144 341 128 q 365 112 383 101 q 401 89 408 85 l 408 85 q 410 84 419 76 q 427 67 428 65 l 428 65 q 428 62 429 59 l 429 59 q 429 58 430 56 q 430 54 430 53 l 430 53 q 430 52 430 51 q 429 49 429 48 l 429 48 q 428 45 428 43 l 428 43 q 426 39 419 31 q 412 23 406 17 q 399 10 393 5 q 387 0 385 0 l 385 0 q 369 0 336 13 q 302 25 262 46 q 221 67 179 94 q 136 121 101 150 q 65 179 43 207 q 20 235 20 257"},"=":{"x_min":26,"x_max":499,"ha":535,"o":"m 450 365 l 450 365 q 479 367 487 354 q 495 341 495 323 l 495 323 q 495 300 482 287 q 468 274 448 268 q 427 262 405 260 q 382 258 364 257 l 364 257 q 352 256 327 256 q 301 256 269 255 q 236 253 201 252 q 165 251 133 250 q 100 249 75 249 q 49 248 37 248 l 37 248 q 37 290 65 314 q 93 338 136 351 q 178 364 229 367 q 280 370 326 370 q 372 369 406 367 q 440 364 450 365 m 26 523 l 47 544 q 130 548 205 552 l 205 552 q 238 553 272 555 q 306 557 340 559 q 373 561 402 562 q 431 563 454 565 l 454 565 l 467 565 q 487 565 493 551 q 499 537 499 523 l 499 523 q 499 499 491 485 q 482 471 454 458 l 454 458 q 446 458 427 458 q 407 457 385 457 q 363 457 343 457 q 323 456 315 456 l 315 456 q 289 456 246 454 q 203 452 159 456 q 115 460 78 475 q 40 489 26 523 l 26 523"},">":{"x_min":16,"x_max":452,"ha":450,"o":"m 85 43 l 85 43 q 85 59 99 85 q 113 111 135 141 q 157 170 183 202 q 208 233 232 262 q 256 290 274 312 q 292 333 300 343 l 300 343 q 300 345 301 349 q 302 352 302 354 l 302 354 q 302 354 301 359 l 301 359 q 300 361 300 364 l 300 364 q 298 368 290 376 q 282 384 278 386 l 278 386 q 272 390 254 401 q 236 412 212 428 q 188 444 161 461 q 133 478 109 494 q 85 509 67 521 q 49 532 42 535 l 42 535 q 27 545 22 556 q 16 567 16 585 l 16 585 q 43 585 87 577 q 130 568 178 554 q 226 539 275 519 q 324 499 363 476 q 402 452 427 426 q 452 400 452 375 l 452 375 q 452 373 451 370 q 450 366 450 364 l 450 364 q 441 353 423 332 q 405 310 382 282 q 359 254 334 224 q 308 193 285 166 q 261 139 242 117 q 223 95 214 85 l 214 85 q 199 68 190 56 q 181 44 174 36 q 166 28 157 24 q 147 20 130 20 l 130 20 q 126 20 119 21 q 111 21 104 23 q 96 25 91 30 q 85 34 85 43"},"?":{"x_min":-6,"x_max":323,"ha":364,"o":"m 193 43 l 193 43 q 193 55 202 70 q 211 85 224 98 q 236 111 251 120 q 265 129 278 129 l 278 129 q 280 129 289 121 q 297 112 301 107 l 301 107 q 303 104 307 98 q 310 91 314 84 q 317 77 319 72 q 321 66 321 65 l 321 65 q 321 46 316 37 q 311 27 303 24 q 295 20 285 20 q 274 20 262 20 l 262 20 q 258 20 247 20 q 236 19 224 21 q 211 22 202 27 q 193 31 193 43 m 126 430 l 126 430 q 126 466 141 498 q 155 529 172 559 q 188 589 203 621 q 217 652 217 688 l 217 688 q 217 701 210 713 q 202 724 191 733 q 180 741 166 746 q 152 751 139 751 l 139 751 q 120 751 104 741 q 87 731 73 718 q 59 704 47 689 q 34 674 22 664 l 22 664 q 20 662 9 660 q -3 658 -6 658 l -6 658 q -6 697 5 730 q 15 763 36 787 q 57 811 89 825 q 120 838 160 838 l 160 838 q 188 838 218 825 q 247 812 270 791 q 293 769 308 742 q 323 715 323 686 l 323 686 q 323 650 314 621 q 304 591 291 566 q 278 540 264 516 q 250 492 240 466 q 230 440 228 411 q 226 381 236 343 l 236 343 q 234 340 228 337 q 222 333 216 330 q 209 327 203 324 q 196 321 193 321 l 193 321 q 171 321 158 333 q 145 344 138 361 q 130 377 128 396 q 126 415 126 430"},"@":{"x_min":20,"x_max":836,"ha":857,"o":"m 20 349 l 20 349 q 20 444 56 529 q 91 614 152 678 q 213 742 297 779 q 380 816 475 816 l 475 816 q 538 816 602 789 q 666 761 718 715 q 770 669 803 609 q 836 548 836 482 l 836 482 q 836 427 817 369 q 798 310 765 257 q 731 203 686 156 q 641 109 588 74 q 535 39 478 19 q 421 -2 364 -2 l 364 -2 q 293 -2 231 27 q 168 55 122 103 q 75 151 48 215 q 20 278 20 349 m 105 349 l 105 349 q 105 291 127 242 q 148 193 186 158 q 223 122 273 103 q 323 84 379 84 l 379 84 q 413 84 444 94 q 475 104 503 122 q 530 139 555 163 q 579 187 600 215 l 600 215 q 588 228 578 237 q 568 245 559 250 q 550 255 540 257 q 529 259 516 259 l 516 259 q 497 259 479 255 q 461 251 444 246 q 426 241 408 237 q 389 233 369 233 l 369 233 q 348 233 325 241 q 302 249 282 264 q 262 278 249 299 q 236 319 236 343 l 236 343 q 236 382 256 417 q 276 452 307 478 q 338 504 377 520 q 415 535 450 535 l 450 535 q 490 535 513 521 q 535 507 548 485 q 560 463 567 438 q 574 413 585 392 q 596 370 615 356 q 633 341 668 341 l 668 341 q 696 341 713 358 q 730 374 739 399 q 747 424 750 453 q 752 481 752 506 l 752 506 q 752 552 724 593 q 696 633 654 664 q 611 695 562 713 q 512 731 471 731 l 471 731 q 397 731 331 699 q 264 667 214 614 q 164 561 135 492 q 105 423 105 349 m 481 453 l 475 456 q 409 445 373 428 q 336 410 322 391 q 308 371 313 353 q 318 334 334 322 q 350 310 373 309 q 396 307 418 321 q 440 334 458 366 q 475 397 481 453 l 481 453"},"A":{"x_min":15,"x_max":645,"ha":686,"o":"m 236 878 l 236 878 q 242 896 254 899 q 265 902 280 902 l 280 902 q 303 902 332 872 q 360 841 390 790 q 420 739 451 673 q 481 607 510 537 q 538 466 563 396 q 588 326 607 268 q 625 209 635 166 q 645 123 645 107 l 645 107 q 645 91 638 77 q 630 62 611 62 l 611 62 q 599 62 591 70 q 582 77 576 88 q 570 99 565 110 q 560 121 556 129 l 556 129 q 552 140 540 171 q 527 202 514 236 q 500 270 488 300 q 476 330 471 343 l 471 343 q 401 355 331 366 q 260 376 182 386 l 182 386 l 171 386 q 135 231 108 141 q 80 51 62 13 q 43 -25 33 -18 q 22 -12 19 28 q 15 67 20 133 q 24 199 37 279 q 49 358 67 445 q 85 532 111 613 q 136 694 168 764 q 199 833 236 878 m 212 526 l 212 526 q 212 489 236 472 q 260 454 294 449 q 328 444 366 445 q 403 446 430 446 l 430 446 q 430 486 417 533 q 404 579 384 625 q 364 671 342 715 q 319 758 300 793 l 300 793 q 289 782 277 753 q 264 723 252 687 q 239 650 229 615 q 219 580 214 558 l 214 558 q 214 555 213 543 q 212 530 212 526"},"B":{"x_min":34,"x_max":556,"ha":600,"o":"m 34 746 l 34 746 q 46 807 78 843 q 110 878 152 891 q 193 904 241 898 q 288 891 331 868 q 373 845 405 809 q 437 772 450 726 q 463 679 450 625 q 437 571 391 514 l 391 514 q 427 501 458 488 q 489 475 511 456 q 532 437 544 410 q 556 383 556 343 l 556 343 q 556 310 544 273 q 532 236 511 200 q 489 164 461 132 q 432 99 399 74 q 366 49 332 35 q 297 20 264 20 l 264 20 q 242 20 221 48 q 200 76 180 122 q 160 168 141 228 q 122 288 106 353 q 90 417 77 481 q 64 544 55 598 q 45 652 40 692 q 34 731 34 746 m 212 313 l 212 313 q 212 296 220 268 q 228 240 241 212 q 253 184 268 161 q 283 137 300 129 l 300 129 q 314 121 333 131 q 352 140 372 161 q 391 181 409 208 q 427 234 442 260 q 456 286 465 309 q 473 331 473 343 l 473 343 q 473 369 466 386 q 459 402 446 412 q 432 422 414 426 q 395 430 373 430 l 373 430 q 348 430 320 422 q 292 414 269 399 q 245 384 229 362 q 212 340 212 313 m 148 653 l 148 653 q 148 635 147 609 q 146 582 147 554 q 148 526 153 498 q 158 470 171 450 l 171 450 q 220 459 257 484 q 293 509 316 543 q 338 576 348 614 q 358 652 356 688 q 353 724 339 754 q 324 784 298 801 q 272 817 235 817 q 198 817 150 793 l 150 793 q 150 785 150 765 q 149 745 149 723 q 148 701 148 681 q 148 661 148 653"},"C":{"x_min":20,"x_max":621,"ha":643,"o":"m 20 343 l 20 343 q 20 377 30 417 q 39 457 56 498 q 73 538 97 577 q 121 615 151 645 q 181 674 216 692 q 251 709 290 709 l 290 709 q 322 709 350 701 q 378 692 398 675 q 418 658 430 633 q 441 607 441 572 l 441 572 q 419 572 406 584 q 392 595 381 609 q 369 623 356 634 q 342 645 321 645 l 321 645 q 290 645 262 629 q 233 613 209 586 q 184 559 166 525 q 147 491 134 457 q 120 422 113 389 q 105 356 105 332 l 105 332 q 105 280 121 235 q 136 189 165 156 q 194 122 237 103 q 280 84 335 84 l 335 84 q 370 84 402 95 q 433 105 463 118 q 492 130 521 141 q 550 152 579 152 l 579 152 q 583 152 591 152 q 598 151 605 149 q 611 147 616 143 q 621 138 621 129 l 621 129 q 621 93 594 68 q 566 43 528 28 q 490 12 449 5 q 408 -2 382 -2 l 382 -2 q 306 -2 240 23 q 174 47 125 92 q 76 137 48 201 q 20 264 20 343"},"D":{"x_min":22,"x_max":495,"ha":514,"o":"m 22 678 l 22 678 q 22 720 47 747 q 71 774 108 790 q 144 805 186 811 q 228 816 262 816 l 262 816 q 327 816 372 791 q 416 765 444 723 q 471 681 483 626 q 495 571 495 514 l 495 514 q 495 476 487 425 q 479 373 463 319 q 447 264 424 211 q 400 157 369 115 q 338 72 300 46 q 261 20 215 20 l 215 20 q 206 20 194 45 q 181 69 166 110 q 150 151 134 205 q 117 258 101 316 q 85 373 71 431 q 57 489 46 538 q 34 587 28 624 q 22 661 22 678 m 105 621 l 105 621 q 105 589 110 548 q 114 507 124 463 q 133 419 148 375 q 162 330 181 291 q 200 252 224 221 q 248 189 278 171 l 278 171 q 312 219 337 257 q 362 295 378 333 q 394 371 402 414 q 409 457 409 514 l 409 514 q 409 555 404 594 q 399 633 383 664 q 366 694 336 713 q 306 731 257 731 l 257 731 q 217 731 180 719 q 142 706 107 686 l 107 686 q 107 683 107 674 q 106 665 106 655 q 106 644 106 635 q 105 625 105 621"},"E":{"x_min":-2,"x_max":621,"ha":664,"o":"m 65 793 l 65 793 q 60 793 51 796 q 41 798 31 802 q 21 805 12 809 q 3 812 0 814 l 0 814 q -1 816 -1 818 l -1 818 q -2 820 -2 823 l -2 823 q -2 837 9 847 q 20 857 35 864 q 49 870 63 874 q 77 877 85 878 l 85 878 l 97 878 l 107 878 q 131 876 168 872 q 205 868 247 864 q 288 859 331 855 q 373 850 408 846 q 442 841 466 839 q 489 836 493 836 l 493 836 q 501 835 514 833 q 526 830 539 825 q 552 819 563 812 q 574 804 579 793 l 579 793 q 571 777 565 769 q 559 760 552 756 q 545 751 538 751 q 530 751 519 751 l 519 751 q 477 751 435 754 q 392 757 350 760 q 308 763 266 766 q 223 769 180 769 l 180 769 q 180 751 176 715 q 171 679 169 639 q 166 599 171 560 q 175 520 193 493 l 193 493 q 228 514 266 515 q 304 516 343 516 l 343 516 q 360 516 386 516 q 412 516 437 510 q 461 504 478 490 q 495 476 495 448 l 495 448 q 495 428 487 418 q 479 408 450 408 l 450 408 q 447 408 438 411 q 428 414 418 418 q 407 422 398 425 q 389 428 386 428 l 386 428 q 385 428 379 429 q 372 429 363 429 q 354 429 346 430 q 337 430 332 430 l 332 430 q 309 430 288 427 q 266 424 250 415 q 234 406 225 389 q 215 372 215 345 l 215 345 q 215 336 217 314 q 219 292 223 266 q 226 239 232 211 q 238 183 248 160 q 258 136 271 121 q 283 105 301 105 l 301 105 q 303 105 311 106 q 319 107 321 107 l 321 107 q 355 130 390 157 q 424 184 461 208 q 498 231 538 248 q 578 264 621 264 l 621 264 l 621 215 q 621 211 602 193 q 582 175 551 151 q 519 127 480 100 q 441 73 402 51 q 363 28 328 13 q 292 -2 268 -2 l 268 -2 q 234 -2 208 29 q 181 59 160 110 q 139 160 125 226 q 111 292 101 362 q 90 432 84 502 q 77 571 73 630 q 69 689 68 733 q 66 776 65 793"},"F":{"x_min":0,"x_max":487,"ha":514,"o":"m 0 697 l 0 706 q 39 726 74 736 q 108 745 143 749 q 177 752 213 752 q 248 752 290 752 l 290 752 q 298 752 318 752 q 337 751 360 751 q 382 751 401 751 q 420 751 428 751 l 428 751 q 439 747 445 737 q 451 727 454 716 q 457 705 458 694 q 459 682 459 676 l 459 676 l 129 676 l 129 461 l 487 461 q 487 427 466 408 q 445 388 414 377 q 382 366 343 363 q 304 359 269 360 q 234 360 207 362 q 180 364 171 364 l 171 364 l 171 343 q 171 301 191 264 q 211 226 236 191 q 260 156 281 122 q 301 88 301 53 l 301 53 q 301 31 292 15 q 283 -2 259 -2 l 259 -2 q 234 -2 210 24 q 185 50 162 94 q 139 137 119 194 q 98 250 80 312 q 61 373 47 434 q 32 494 22 547 q 12 599 6 639 q 0 679 0 697 l 0 697"},"G":{"x_min":-2,"x_max":666,"ha":706,"o":"m -2 355 l -2 355 q -2 405 13 457 q 27 509 53 558 q 78 607 114 651 q 149 695 193 728 q 236 760 286 779 q 335 797 388 797 l 388 797 q 411 797 448 792 q 484 787 519 775 q 553 763 578 744 q 602 724 602 697 l 602 697 q 602 695 602 694 q 601 692 601 690 l 601 690 q 600 688 600 686 l 600 686 q 598 683 590 675 q 582 666 579 664 l 579 664 q 577 663 574 663 l 574 663 q 571 662 568 662 l 568 662 q 564 662 562 663 l 562 663 q 560 663 558 664 l 558 664 q 553 667 534 677 q 515 686 493 697 q 471 708 452 718 q 433 727 428 729 l 428 729 q 424 729 420 730 l 420 730 q 417 730 414 731 q 411 731 409 731 l 409 731 q 362 731 319 714 q 276 697 240 667 q 204 637 175 598 q 146 559 126 516 q 105 472 95 427 q 84 381 84 338 l 84 338 q 84 282 102 238 q 120 194 152 165 q 184 135 229 120 q 273 105 325 105 l 325 105 q 355 105 399 113 q 443 121 484 139 q 524 157 552 186 q 580 214 580 256 l 580 256 q 580 273 575 283 q 570 292 561 297 q 552 301 539 302 q 526 302 512 302 l 512 302 q 490 302 474 295 q 458 288 443 279 q 427 270 412 263 q 396 256 375 256 l 375 256 q 349 256 334 264 q 319 272 319 301 l 319 301 q 319 329 340 347 q 360 364 389 373 q 417 382 448 385 q 479 388 499 388 l 499 388 q 535 388 566 383 q 597 377 620 363 q 642 348 654 323 q 666 297 666 257 l 666 257 q 666 195 632 150 q 598 104 547 75 q 495 46 436 32 q 376 17 325 17 l 325 17 q 253 17 193 42 q 132 67 89 113 q 46 158 22 221 q -2 283 -2 355"},"H":{"x_min":-2,"x_max":628,"ha":664,"o":"m -2 621 l -2 621 q -2 626 -1 639 q -1 651 -1 665 q -1 678 0 690 q 0 702 0 706 l 0 706 q 25 733 42 738 q 58 743 68 733 q 78 722 83 699 q 87 676 89 647 q 91 618 91 586 q 91 554 92 527 q 93 499 96 478 q 99 457 107 450 l 107 450 l 450 450 q 471 450 480 463 q 489 476 491 497 q 492 518 489 545 q 486 572 484 601 q 481 629 482 657 q 482 684 491 705 q 499 726 517 739 q 535 752 570 752 l 570 752 q 583 733 586 711 q 589 688 588 664 q 586 640 583 617 q 579 593 579 571 l 579 571 q 579 512 587 453 q 594 394 603 335 q 611 276 619 218 q 626 159 626 102 l 626 102 q 628 40 618 14 q 608 -13 593 -10 q 578 -8 560 20 q 541 48 526 95 q 510 142 501 206 q 491 269 493 343 l 493 343 l 132 343 q 139 274 151 213 q 162 152 169 106 q 175 59 174 32 q 172 4 153 3 l 153 3 q 124 3 104 23 q 84 42 70 76 q 55 110 46 156 q 37 201 31 252 q 25 302 22 355 q 18 408 15 457 q 12 506 8 549 q 4 591 -2 621"},"I":{"x_min":13,"x_max":718,"ha":771,"o":"m 321 139 l 321 139 q 321 192 308 254 q 295 316 280 381 q 265 446 251 511 q 237 575 236 632 l 236 632 l 13 632 q 13 640 13 655 q 13 670 16 686 q 19 701 25 714 q 31 726 43 729 l 43 729 l 593 729 q 592 697 580 680 q 568 663 549 654 q 529 645 505 643 q 481 640 457 637 q 433 634 410 630 q 387 625 371 612 q 354 599 346 577 q 337 554 341 516 l 341 516 q 341 495 344 461 q 347 426 354 386 q 361 346 372 306 q 383 265 400 232 q 416 198 438 178 q 459 157 488 157 l 488 157 q 508 155 540 157 q 571 158 603 159 q 635 160 664 158 q 692 156 705 146 q 718 136 711 117 q 704 97 667 64 l 667 64 q 603 40 538 32 q 472 23 406 23 q 340 22 274 25 q 208 27 143 27 l 143 27 q 106 72 99 96 q 92 120 105 130 q 117 139 145 140 q 172 140 204 138 q 236 135 268 134 q 300 132 321 139"},"J":{"x_min":-2,"x_max":607,"ha":643,"o":"m 191 65 l 191 65 q 191 92 207 102 q 223 111 248 114 q 272 116 300 117 q 328 117 353 126 q 377 135 393 156 q 409 177 409 221 l 409 221 q 409 346 396 431 q 382 516 342 566 q 301 616 230 634 q 158 652 43 643 l 43 643 q 40 644 34 650 q 27 656 20 663 q 13 670 8 677 q 2 683 0 686 l 0 686 q -1 688 -1 690 l -1 690 q -2 693 -2 697 l -2 697 q -2 699 -1 702 l -1 702 q -1 704 0 706 l 0 706 q 3 709 9 713 q 14 717 22 721 q 29 724 35 727 q 40 729 43 729 l 43 729 q 62 730 101 732 q 139 734 188 737 q 237 739 294 742 q 350 745 407 748 q 463 750 515 751 q 566 752 607 752 l 607 752 q 607 721 595 705 q 583 688 566 680 q 548 671 528 667 q 507 663 490 657 q 472 650 460 637 q 448 623 448 597 l 448 597 q 448 545 459 496 q 469 447 482 399 q 495 350 506 301 q 516 252 516 202 l 516 202 q 516 157 496 120 q 476 83 444 56 q 411 29 371 14 q 330 -2 290 -2 l 290 -2 q 274 -2 257 1 q 239 4 225 13 q 210 21 201 34 q 191 46 191 65"},"K":{"x_min":18,"x_max":688,"ha":706,"o":"m 20 692 l 20 692 q 20 711 19 733 q 18 755 23 774 q 27 793 39 806 q 50 818 76 818 l 76 818 q 95 792 101 754 q 106 715 108 673 q 110 630 113 588 q 115 546 129 514 l 129 514 q 130 510 139 503 q 147 495 150 493 l 150 493 q 180 519 205 547 q 229 575 253 602 q 277 628 301 652 q 325 676 354 694 q 382 712 418 723 q 453 733 498 733 l 498 733 q 498 709 481 685 q 464 661 438 637 q 412 612 381 587 q 350 561 321 535 q 292 508 269 482 q 246 455 236 428 l 236 428 q 253 424 293 409 q 332 393 383 371 q 433 348 487 322 q 541 296 586 271 q 631 245 660 223 q 688 200 688 186 l 688 186 q 688 183 688 174 q 688 164 687 154 q 685 144 680 137 q 675 129 664 129 l 664 129 q 622 130 585 145 q 548 159 513 181 q 478 202 444 226 q 409 249 373 271 q 337 292 299 306 q 260 319 215 321 l 215 321 q 200 297 202 275 q 204 252 216 230 q 227 207 243 184 q 259 160 271 135 q 283 109 287 81 q 291 53 278 22 l 278 22 q 276 19 271 16 q 265 12 259 8 q 252 4 245 2 q 238 0 236 0 l 236 0 q 223 0 208 25 q 192 50 175 93 q 157 136 139 192 q 120 247 103 307 q 85 366 71 427 q 56 487 45 540 q 33 592 27 632 q 20 672 20 692"},"L":{"x_min":0,"x_max":602,"ha":621,"o":"m 0 656 l 0 656 q 0 676 14 682 q 27 688 43 688 l 43 688 q 46 688 55 687 q 63 686 65 686 l 65 686 q 68 655 71 612 q 74 568 78 518 q 82 467 88 413 q 94 359 105 308 q 116 256 132 210 q 148 163 171 129 l 171 129 q 176 120 181 116 q 185 111 190 109 q 194 106 200 106 q 206 105 215 105 l 215 105 q 256 105 294 119 q 331 133 368 150 q 405 167 443 181 q 481 195 523 195 l 523 195 q 532 195 546 196 q 560 196 572 194 q 584 192 593 184 q 602 176 602 160 l 602 160 q 602 145 575 128 q 548 110 506 93 q 464 75 415 58 q 365 41 320 28 q 274 15 239 8 q 204 0 193 0 l 193 0 q 157 0 130 25 q 102 49 82 91 q 61 132 47 186 q 33 239 24 297 q 15 355 10 412 q 5 469 3 518 q 1 567 1 604 q 0 641 0 656"},"M":{"x_min":20,"x_max":838,"ha":878,"o":"m 20 428 l 20 428 q 20 440 21 468 q 21 495 21 526 q 21 556 22 583 q 22 610 22 621 l 22 621 q 23 628 27 643 q 31 657 37 671 q 42 685 52 696 q 61 706 75 706 l 75 706 q 108 706 137 688 q 166 670 193 641 q 220 611 245 575 q 269 539 293 504 q 317 468 340 437 q 363 405 386 386 l 386 386 q 411 397 425 427 q 439 456 448 495 q 457 533 465 575 q 472 616 485 651 q 498 686 520 709 q 541 731 579 731 l 579 731 q 624 731 661 696 q 697 661 726 607 q 755 553 776 487 q 796 421 810 360 q 824 299 831 250 q 838 201 838 180 l 838 180 q 838 171 837 161 q 836 150 832 142 q 828 133 819 129 q 810 124 793 129 l 793 129 q 788 130 782 135 q 775 139 768 146 q 761 153 756 160 q 751 166 751 171 l 751 171 q 742 220 731 280 q 720 340 704 402 q 687 463 662 521 q 637 579 600 621 l 600 621 q 571 605 555 573 q 538 540 527 502 q 516 463 507 423 q 498 383 483 351 q 468 318 445 297 q 422 276 383 276 l 383 276 q 356 276 331 294 q 305 311 281 340 q 257 368 235 403 q 212 437 191 471 q 169 504 149 533 q 128 562 107 579 l 107 579 q 99 548 95 525 q 90 501 88 479 q 85 457 85 434 q 84 411 84 383 l 84 383 q 84 341 91 300 q 98 258 106 217 q 114 176 122 135 q 129 93 129 51 l 129 51 l 129 43 q 127 40 121 34 q 115 27 109 20 q 102 13 95 8 q 88 2 85 0 l 85 0 q 84 -1 81 -1 l 81 -1 q 78 -2 75 -2 l 75 -2 q 73 -2 70 -1 q 67 0 65 0 l 65 0 q 58 58 50 110 q 42 162 36 213 q 29 264 25 316 q 20 368 20 428"},"N":{"x_min":0,"x_max":664,"ha":686,"o":"m 65 43 l 65 43 q 61 59 55 89 q 48 119 41 155 q 33 191 26 231 q 19 270 13 308 q 7 345 4 377 q 0 408 0 428 l 0 428 q 0 437 2 459 q 4 481 8 505 q 12 529 16 550 q 19 571 22 579 l 22 579 q 25 580 33 580 q 40 580 49 581 q 57 582 65 583 q 72 583 75 583 l 75 583 q 123 583 166 564 q 209 545 248 516 q 287 487 324 451 q 361 415 399 381 q 436 347 475 320 q 514 292 558 278 l 558 278 q 558 283 559 294 q 559 304 559 316 q 559 328 560 339 q 560 349 560 354 l 560 354 q 560 417 552 477 q 544 537 534 597 q 524 657 516 718 q 508 778 508 842 l 508 842 q 515 842 526 842 q 536 841 547 839 q 558 836 567 831 q 576 825 579 814 l 579 814 q 583 742 597 670 q 611 597 626 525 q 641 452 653 380 q 664 307 664 236 l 664 236 q 664 223 664 208 q 663 193 660 180 q 656 166 648 157 q 640 148 624 148 l 624 148 q 572 148 528 172 q 484 195 443 230 q 401 265 362 307 q 322 349 281 384 q 239 419 195 443 q 150 467 99 467 l 99 467 q 99 411 107 360 q 115 308 125 257 q 134 206 142 156 q 150 105 150 53 l 150 53 q 150 34 137 27 q 123 20 107 20 l 107 20 q 94 20 83 23 q 71 25 65 43"},"O":{"x_min":0,"x_max":602,"ha":643,"o":"m 0 278 l 0 278 q 0 329 14 382 q 27 434 52 482 q 76 530 111 572 q 146 613 189 644 q 231 674 281 692 q 331 709 386 709 l 386 709 q 441 709 482 688 q 522 666 549 630 q 576 594 589 548 q 602 501 602 453 l 602 453 q 602 369 577 288 q 552 206 503 142 q 454 77 382 38 q 309 -2 215 -2 l 215 -2 q 159 -2 119 24 q 78 49 52 90 q 25 130 13 180 q 0 229 0 278 m 85 256 l 85 256 q 85 229 94 199 q 103 169 119 144 q 135 119 160 102 q 184 85 215 85 l 215 85 q 282 85 337 116 q 392 146 432 195 q 472 243 494 303 q 516 363 516 422 l 516 422 q 516 456 514 492 q 512 528 501 558 q 490 587 467 606 q 443 624 399 624 l 399 624 q 385 624 362 623 q 338 622 315 618 q 292 613 275 604 q 257 595 257 579 l 257 579 q 257 577 261 571 q 264 564 268 557 q 272 550 275 544 q 278 537 278 535 l 278 535 q 278 533 270 525 q 262 516 257 514 l 257 514 q 207 501 174 482 q 140 462 121 431 q 101 400 93 357 q 85 314 85 256"},"P":{"x_min":10,"x_max":472,"ha":493,"o":"m 10 790 l 10 790 q 10 821 22 841 q 33 861 53 874 q 73 886 98 892 q 122 898 149 901 q 175 903 200 903 q 225 902 246 902 l 246 902 q 287 902 328 894 q 369 886 401 866 q 432 846 452 813 q 472 779 472 729 l 472 729 q 472 685 455 642 q 437 598 410 559 q 382 519 347 487 q 312 454 278 431 q 243 408 212 395 q 180 382 159 385 l 159 385 q 147 346 145 302 q 142 257 143 215 q 144 172 146 134 q 148 95 143 68 q 137 40 122 27 q 107 13 76 18 l 76 18 q 67 89 63 162 q 58 235 55 307 q 52 379 50 448 q 47 516 43 578 q 38 640 30 694 q 22 748 10 790 m 257 816 l 257 816 q 242 816 220 815 q 198 814 178 809 q 157 803 143 790 q 129 776 129 751 l 129 751 l 129 489 q 170 489 216 511 q 262 533 300 567 q 338 601 363 644 q 388 687 388 729 l 388 729 q 388 760 377 777 q 365 794 347 803 q 328 812 305 814 q 282 816 257 816"},"Q":{"x_min":20,"x_max":773,"ha":814,"o":"m 579 171 l 568 171 q 528 171 490 158 q 451 144 412 128 q 373 111 333 98 q 292 84 248 84 l 248 84 q 189 84 146 107 q 103 130 75 169 q 47 207 34 259 q 20 310 20 367 l 20 367 q 20 423 31 488 q 42 552 65 616 q 88 680 123 740 q 157 799 203 845 q 249 891 307 919 q 364 946 433 946 l 433 946 q 481 946 522 929 q 562 912 595 883 q 628 853 653 815 q 678 776 695 733 q 711 689 720 644 q 728 599 728 558 l 728 558 q 728 517 715 477 q 701 436 686 398 q 670 359 657 321 q 643 283 643 246 l 643 246 l 643 236 q 654 223 676 201 q 697 179 719 153 q 741 126 757 97 q 773 67 773 40 l 773 40 q 773 21 766 11 q 759 0 728 0 l 728 0 l 706 22 q 699 30 681 51 q 663 72 643 96 q 623 120 605 141 q 586 162 579 171 l 579 171 m 105 362 l 105 362 q 105 320 112 285 q 118 249 135 224 q 151 198 181 184 q 211 169 257 169 l 257 169 q 269 169 292 171 q 314 173 341 178 q 367 182 395 189 q 422 196 444 208 q 466 219 481 234 q 495 248 495 268 l 495 268 q 495 274 487 288 q 478 301 465 320 q 451 339 435 361 q 419 382 405 404 q 390 425 379 443 q 367 460 364 472 l 364 472 q 371 490 383 493 q 394 495 408 495 l 408 495 q 427 495 441 484 q 455 472 467 455 q 478 438 489 418 q 499 398 511 381 q 522 364 536 353 q 549 341 568 341 l 568 341 q 587 341 601 356 q 614 370 623 392 q 631 414 636 441 q 640 468 642 493 q 644 518 645 539 q 645 559 645 568 l 645 568 q 645 619 635 671 q 624 723 599 765 q 573 806 532 833 q 490 859 428 859 l 428 859 q 381 859 338 835 q 295 810 259 770 q 223 729 195 677 q 166 625 146 570 q 126 514 116 460 q 105 406 105 362"},"R":{"x_min":-2,"x_max":686,"ha":706,"o":"m -2 706 l -2 706 q -2 714 -1 733 q -1 751 -1 772 q -1 792 0 811 q 0 829 0 836 l 0 836 q 11 857 35 867 q 58 876 86 880 q 113 883 140 882 q 166 881 183 881 l 183 881 q 205 881 235 879 q 264 877 294 872 q 323 866 352 856 q 381 845 404 829 q 426 812 440 789 q 453 765 453 733 l 453 733 q 453 695 435 665 q 417 634 391 608 q 364 581 333 558 q 301 535 275 513 q 248 491 230 468 q 212 445 212 418 l 212 418 q 212 416 214 413 q 215 409 215 408 l 215 408 q 333 373 445 323 q 556 273 664 215 l 664 215 q 667 213 671 208 q 674 202 677 195 q 680 187 683 181 q 686 175 686 171 l 686 171 q 686 162 681 158 q 676 153 669 151 q 662 148 655 148 q 648 148 643 148 l 643 148 q 589 148 536 172 q 482 195 428 224 q 374 253 319 277 q 263 301 203 301 l 203 301 l 171 301 q 187 264 200 235 q 212 206 221 179 q 229 152 234 125 q 238 97 238 65 l 238 65 q 238 58 238 49 q 238 39 237 29 q 236 19 231 11 q 226 3 215 0 l 215 0 q 174 24 142 75 q 109 125 85 190 q 61 255 45 328 q 28 401 18 472 q 7 542 3 604 q -2 665 -2 706 m 84 643 l 84 643 q 84 630 83 610 q 81 589 82 568 q 83 546 89 527 q 94 507 107 493 l 107 493 q 109 492 111 492 l 111 492 q 112 491 116 491 l 116 491 q 134 491 160 502 q 185 513 213 531 q 241 549 269 573 q 296 596 318 621 q 340 646 354 672 q 367 697 367 718 l 367 718 q 367 738 352 753 q 337 767 316 776 q 295 785 273 789 q 250 793 236 793 l 236 793 q 219 793 196 794 q 173 794 151 791 q 128 787 110 778 q 92 769 85 751 l 85 751 q 85 745 85 730 q 85 715 85 698 q 85 680 85 665 q 84 650 84 643"},"S":{"x_min":20,"x_max":514,"ha":535,"o":"m 171 43 l 171 43 q 176 67 197 83 q 217 98 244 111 q 270 124 299 136 q 328 147 353 160 q 377 173 393 191 q 409 208 409 233 l 409 233 q 409 265 393 286 q 376 307 349 322 q 321 337 286 347 q 251 357 215 368 q 178 378 143 391 q 108 403 81 422 q 53 441 37 468 q 20 495 20 535 l 20 535 q 20 568 34 598 q 47 627 70 654 q 92 680 122 702 q 151 724 184 739 q 216 754 249 763 q 282 771 310 771 l 310 771 l 321 771 q 330 768 345 761 q 360 754 374 748 q 388 741 398 736 q 408 730 408 729 l 408 729 l 408 706 q 389 704 359 699 q 329 693 296 684 q 263 675 229 662 q 195 648 168 630 q 141 612 124 589 q 107 565 107 535 l 107 535 q 107 492 137 468 q 167 443 212 427 q 257 411 311 399 q 364 386 409 369 q 454 351 484 323 q 514 294 514 246 l 514 246 q 514 220 499 192 q 483 163 458 136 q 432 108 400 83 q 368 58 335 40 q 301 21 269 10 q 237 -2 212 -2 l 212 -2 q 204 -2 195 0 q 186 2 180 7 q 173 11 170 20 q 166 29 171 43"},"T":{"x_min":20,"x_max":778,"ha":814,"o":"m 408 600 l 408 600 q 404 614 393 619 q 381 624 368 625 q 354 625 341 623 q 328 621 321 621 l 321 621 q 304 622 262 625 q 220 628 172 632 q 123 635 81 639 q 39 642 22 643 l 22 643 q 22 645 21 653 q 20 661 20 664 l 20 664 q 20 678 23 689 q 25 700 42 706 l 42 706 q 136 704 228 707 q 319 710 411 716 q 502 721 594 726 q 685 731 778 731 l 778 731 q 778 693 760 676 q 742 658 716 652 q 689 646 657 647 q 625 648 596 646 q 566 644 544 635 q 521 625 514 600 l 514 600 q 513 594 512 577 q 511 560 511 541 q 510 522 510 506 q 509 489 509 482 l 509 482 q 509 425 524 370 q 538 314 556 260 q 573 205 588 151 q 602 96 602 40 l 602 40 q 602 -2 554 -2 l 554 -2 q 525 -2 503 38 q 480 78 464 140 q 447 202 437 275 q 426 348 420 415 q 413 482 411 533 q 408 584 408 600"},"U":{"x_min":0,"x_max":588,"ha":621,"o":"m 0 643 l 43 686 q 59 674 69 657 q 79 639 85 621 l 85 621 q 86 583 86 530 q 86 477 90 420 q 94 363 105 307 q 116 250 140 205 q 163 160 203 133 q 242 105 302 105 l 302 105 q 357 105 397 131 q 436 157 463 197 q 489 237 502 287 q 514 336 514 383 l 514 383 q 514 474 505 569 q 496 663 472 751 l 472 751 q 479 769 490 772 q 501 774 514 774 l 514 774 q 540 774 555 753 q 570 732 578 700 q 585 667 587 629 q 588 590 587 556 q 585 521 583 495 q 580 468 580 461 l 580 461 q 580 409 578 356 q 575 302 566 253 q 556 204 538 162 q 519 119 488 88 q 457 56 411 38 q 365 20 301 20 l 301 20 q 220 20 168 51 q 116 82 85 134 q 53 185 38 251 q 22 317 16 386 q 9 455 7 522 q 4 589 0 643 l 0 643"},"V":{"x_min":0,"x_max":602,"ha":643,"o":"m 0 664 l 0 723 q 44 723 73 697 q 102 671 122 630 q 142 588 155 535 q 168 481 180 425 q 192 368 205 315 q 217 261 237 219 q 256 177 284 152 q 311 126 354 126 l 354 126 q 356 126 359 127 l 359 127 q 361 128 364 129 l 364 129 q 368 130 376 139 q 384 147 386 150 l 386 150 q 388 155 394 183 q 400 211 411 254 q 421 297 434 351 q 447 405 462 461 q 476 516 491 569 q 506 621 520 662 q 534 703 547 728 q 559 752 568 752 l 568 752 q 580 752 587 747 q 594 742 597 734 q 600 726 601 717 q 602 707 602 698 l 602 698 q 602 683 597 645 q 591 607 582 556 q 572 504 559 443 q 545 382 529 320 q 513 257 494 200 q 475 142 456 98 q 436 53 416 27 q 395 0 375 0 l 375 0 q 348 0 323 15 q 298 30 276 54 q 254 78 235 109 q 215 139 200 170 q 184 201 171 229 q 158 257 150 278 l 150 278 q 139 305 124 344 q 108 382 92 424 q 75 466 59 509 q 42 551 29 585 q 16 618 8 640 q 0 662 0 664 l 0 664"},"W":{"x_min":0,"x_max":838,"ha":878,"o":"m 0 602 l 0 602 q 0 618 7 632 q 13 645 32 645 l 32 645 q 48 645 64 612 q 79 579 96 528 q 112 476 130 415 q 148 353 168 296 q 188 238 210 193 q 232 147 257 129 l 257 129 q 281 139 296 165 q 310 190 319 226 q 328 261 333 303 q 337 344 342 386 q 346 427 351 467 q 356 506 366 536 q 375 566 390 584 q 405 602 428 602 l 428 602 q 442 602 453 600 q 464 597 472 579 l 472 579 q 476 566 485 541 q 494 516 506 483 q 517 450 532 413 q 546 375 562 339 q 577 303 592 271 q 607 238 621 215 l 621 215 q 623 211 632 203 q 640 194 643 193 l 643 193 l 686 236 q 703 253 712 287 q 721 320 726 364 q 730 408 732 459 q 733 509 734 559 q 735 609 738 656 q 741 703 748 739 q 755 774 768 795 q 781 816 804 816 l 804 816 q 805 816 807 816 q 808 815 810 815 l 810 815 q 813 814 814 814 l 814 814 q 815 814 819 811 q 823 807 827 804 q 830 801 833 798 q 835 795 836 793 l 836 793 q 836 786 837 768 q 837 750 837 729 q 837 708 838 690 q 838 671 838 664 l 838 664 q 838 644 838 609 q 837 574 835 530 q 832 485 828 435 q 823 384 814 335 q 805 285 792 240 q 778 194 759 160 q 739 125 714 105 q 688 84 653 84 l 653 84 q 619 84 596 107 q 572 129 555 163 q 538 196 526 236 q 514 275 502 309 q 489 343 475 366 q 460 388 439 388 l 439 388 q 437 388 434 387 q 430 386 428 386 l 428 386 q 427 382 422 351 q 417 320 408 278 q 399 235 386 186 q 373 137 357 96 q 340 55 321 28 q 301 0 278 0 l 278 0 q 231 0 192 36 q 153 71 123 128 q 92 184 69 253 q 46 322 31 389 q 15 455 8 513 q 0 570 0 602"},"X":{"x_min":20,"x_max":623,"ha":643,"o":"m 148 105 l 148 105 q 148 147 155 187 q 162 227 170 267 q 178 307 186 347 q 193 386 193 428 l 193 428 l 193 450 q 188 454 173 468 q 158 481 140 500 q 121 519 100 543 q 78 566 61 591 q 43 616 32 640 q 20 664 20 686 l 20 686 q 20 690 21 698 q 21 706 23 713 q 24 719 29 724 q 34 729 42 729 l 42 729 q 66 729 84 716 q 101 703 115 684 q 129 664 141 642 q 153 619 167 600 q 180 580 197 567 q 213 554 236 554 l 236 554 q 259 554 278 569 q 297 584 315 607 q 332 629 351 656 q 369 682 391 705 q 413 727 441 742 q 469 757 506 757 l 506 757 q 506 730 494 708 q 481 686 463 667 q 445 647 424 628 q 402 609 384 589 q 365 568 353 544 q 341 520 341 491 l 341 491 q 341 477 361 452 q 381 427 411 398 q 440 368 475 338 q 510 307 541 281 q 572 255 594 237 q 616 219 621 215 l 621 215 q 621 213 622 205 q 623 196 623 193 l 623 193 q 623 176 616 162 q 608 148 589 148 l 589 148 q 587 148 584 149 q 580 150 579 150 l 579 150 q 571 157 557 171 q 542 184 523 201 q 504 218 483 237 q 462 255 443 272 q 424 288 408 302 q 392 315 385 321 l 385 321 q 376 329 362 341 q 348 352 335 363 q 321 373 311 380 q 301 387 300 386 l 300 386 l 278 364 q 270 355 267 325 q 263 295 260 255 q 257 214 254 169 q 251 124 245 86 q 238 48 225 23 q 212 -2 191 -2 l 191 -2 q 172 -2 163 10 q 153 22 150 40 q 147 57 148 75 q 148 93 148 105"},"Y":{"x_min":20,"x_max":651,"ha":643,"o":"m 343 558 l 343 558 q 304 566 265 594 q 226 622 191 662 q 155 702 124 751 q 92 800 69 850 q 46 900 33 947 q 20 994 20 1031 l 20 1031 q 20 1036 21 1043 q 21 1050 23 1057 q 24 1063 29 1068 q 34 1072 42 1072 l 42 1072 q 67 1072 85 1055 q 103 1037 118 1008 q 133 979 146 942 q 159 905 173 867 q 186 829 201 792 q 216 755 235 726 q 253 697 277 680 q 301 662 332 662 l 332 662 q 334 662 338 663 q 341 664 343 664 l 343 664 q 371 689 394 731 q 416 772 435 820 q 454 868 472 919 q 490 970 510 1014 q 529 1058 551 1091 q 572 1124 600 1137 l 600 1137 l 643 1093 q 651 1085 646 1061 q 640 1036 627 1000 q 613 963 593 919 q 573 874 551 826 q 529 778 507 731 q 485 683 468 641 q 450 599 439 566 q 428 533 428 514 l 428 514 q 428 454 446 398 q 463 342 483 287 q 503 231 520 176 q 537 120 537 62 l 537 62 q 537 54 537 42 q 537 29 534 18 q 530 7 521 1 q 511 -5 493 0 l 493 0 q 456 54 428 123 q 400 191 380 265 q 360 339 351 415 q 341 490 343 558"},"Z":{"x_min":0,"x_max":836,"ha":878,"o":"m 148 51 l 148 51 q 148 119 174 181 q 199 242 238 300 q 276 357 321 412 q 366 467 405 522 q 444 576 470 631 q 495 685 495 742 l 495 742 q 495 742 495 744 q 494 745 494 747 l 494 747 q 493 749 493 751 l 493 751 q 484 760 466 766 q 448 772 427 777 q 406 782 384 785 q 362 788 344 790 q 325 791 313 792 q 301 793 301 793 l 301 793 q 254 793 221 786 q 187 778 159 770 q 130 762 103 755 q 75 748 40 748 l 40 748 q 18 748 9 766 q 0 783 0 804 l 0 804 q 0 824 20 837 q 40 850 72 856 q 103 861 139 863 q 175 864 206 864 q 236 863 257 861 q 277 859 278 859 l 278 859 q 288 859 313 859 q 337 859 364 859 q 391 858 416 858 q 440 857 450 857 l 450 857 q 469 852 495 846 q 521 840 545 830 q 569 820 586 804 q 602 788 602 765 l 602 765 q 602 710 580 658 q 558 605 524 554 q 490 502 449 451 q 407 400 369 348 q 330 295 300 241 q 270 186 257 129 l 257 129 l 301 129 q 368 129 435 133 q 501 137 568 142 q 635 146 702 150 q 769 154 836 154 l 836 154 l 836 85 q 796 83 746 75 q 695 67 638 58 q 581 49 521 39 q 460 28 401 20 q 341 11 285 6 q 229 0 183 0 l 183 0 q 170 0 164 5 q 157 10 153 18 q 149 25 149 34 q 148 43 148 51"},"[":{"x_min":19,"x_max":536,"ha":558,"o":"m 20 540 l 20 540 q 20 546 20 556 q 19 565 21 574 q 22 583 27 591 q 31 598 42 600 l 42 600 q 146 633 257 655 q 368 676 477 676 l 477 676 q 477 669 477 658 q 477 646 475 635 q 472 624 467 614 q 462 604 450 600 l 450 600 q 441 598 423 595 q 404 591 381 587 q 357 583 332 579 q 306 574 283 570 q 259 566 241 563 q 222 560 214 558 l 214 558 q 209 556 194 554 q 178 552 161 548 q 143 543 128 535 q 112 526 107 514 l 107 514 q 119 464 125 413 q 130 362 134 311 q 137 259 140 208 q 143 157 150 107 l 150 107 l 214 107 q 247 107 280 110 q 312 113 345 117 q 377 121 410 125 q 443 129 475 129 l 475 129 q 485 129 494 128 q 503 127 511 123 q 519 118 526 110 q 532 101 535 85 l 535 85 q 536 83 534 76 q 532 69 529 63 q 526 56 522 50 q 517 44 514 43 l 514 43 q 500 41 472 38 q 444 35 409 31 q 373 26 333 22 q 293 17 257 13 q 221 8 193 5 q 164 2 150 0 l 150 0 l 126 0 q 100 0 82 34 q 64 68 52 122 q 40 175 34 240 q 27 304 24 364 q 21 424 21 472 q 20 519 20 540"},"\\":{"x_min":16,"x_max":497,"ha":520,"o":"m 42 753 l 42 753 q 40 757 37 766 q 33 774 29 784 q 25 793 22 801 q 18 809 16 812 l 16 812 q 16 815 20 822 q 24 828 29 834 q 34 840 39 845 q 44 849 48 850 l 48 850 q 57 851 79 828 q 101 805 131 766 q 160 727 196 676 q 231 624 268 567 q 305 510 341 453 q 376 395 406 345 q 436 294 459 254 q 481 214 491 193 l 491 193 q 497 181 494 173 q 491 164 485 157 q 478 150 470 146 q 461 141 453 138 l 453 138 q 429 127 402 142 q 374 156 345 188 q 316 220 286 267 q 256 314 226 367 q 196 420 169 477 q 141 534 118 586 q 94 637 75 681 q 55 725 42 753"},"]":{"x_min":4,"x_max":560,"ha":600,"o":"m 231 60 l 231 60 q 231 62 232 67 q 232 71 233 76 l 233 76 q 234 80 236 85 l 236 85 l 450 150 q 450 157 451 163 l 451 163 q 452 168 453 174 q 453 180 453 184 l 453 184 q 453 188 453 196 q 452 204 452 212 q 451 220 451 227 q 450 234 450 236 l 450 236 q 448 281 442 332 q 436 382 433 433 q 429 484 432 532 q 435 580 450 621 l 450 621 q 450 624 450 629 q 449 634 449 640 q 449 646 449 652 q 448 657 448 660 l 448 660 q 336 660 226 651 q 115 641 4 641 l 4 641 q 4 676 30 698 q 55 720 94 733 q 133 745 181 750 q 229 754 276 755 q 322 755 361 754 q 400 752 420 752 l 420 752 q 430 752 446 752 q 462 751 477 751 q 491 751 502 751 q 513 751 514 751 l 514 751 q 520 694 524 651 q 528 607 531 568 q 533 529 534 493 q 534 457 534 416 l 534 416 q 534 380 538 345 q 542 310 547 276 q 552 241 556 207 q 560 173 560 138 l 560 138 q 560 113 543 93 q 526 73 499 58 q 472 42 439 31 q 406 20 375 13 q 343 5 317 2 q 291 -2 278 -2 l 278 -2 q 247 -2 239 16 q 231 33 231 60"},"^":{"x_min":27,"x_max":419,"ha":428,"o":"m 191 982 l 191 982 q 211 971 232 950 q 253 929 275 903 q 296 876 317 847 q 337 817 356 790 q 375 763 392 740 q 408 717 419 705 l 419 705 q 418 703 413 697 q 408 691 401 685 q 394 678 387 671 q 380 664 376 661 l 376 661 q 373 661 372 661 l 372 661 q 369 660 366 660 l 366 660 q 362 660 359 661 l 359 661 q 356 661 355 661 l 355 661 q 325 681 309 709 q 293 736 279 761 q 265 785 247 802 q 229 819 196 819 l 196 819 q 175 768 163 736 q 151 704 143 686 q 135 668 128 661 q 121 653 110 652 q 98 651 79 653 q 59 655 27 655 l 27 655 q 27 674 34 703 q 40 732 52 765 q 63 798 79 833 q 94 868 112 898 q 130 928 151 951 q 171 973 191 982"},"_":{"x_min":0,"x_max":430,"ha":514,"o":"m 0 22 l 0 85 q 13 86 42 89 q 70 91 106 93 q 141 94 181 97 q 220 100 256 102 q 292 103 321 105 q 350 106 364 107 l 364 107 l 390 107 q 405 107 418 100 q 430 93 430 75 l 430 75 q 430 66 423 57 q 415 47 404 39 q 393 31 382 27 q 371 22 364 22 l 364 22 l 0 22"},"`":{"x_min":103,"x_max":261,"ha":514,"o":"m 211 609 l 103 757 q 107 777 116 783 q 125 788 137 784 q 148 780 162 768 q 175 755 189 739 q 203 723 216 705 q 229 687 239 671 l 239 671 q 240 670 244 665 q 247 660 250 657 l 250 657 q 261 644 261 631 q 260 617 254 608 q 247 599 235 598 q 222 597 211 609 l 211 609"},"a":{"x_min":20,"x_max":578,"ha":621,"o":"m 450 129 l 450 129 q 412 103 385 83 q 357 62 331 48 q 305 34 276 27 q 246 20 203 20 l 203 20 q 110 20 65 70 q 20 119 20 217 l 20 217 q 20 255 30 296 q 40 337 60 378 q 79 418 106 455 q 133 491 167 519 q 201 547 240 564 q 278 580 321 580 l 321 580 q 393 573 434 545 q 475 516 496 472 q 517 427 525 373 q 533 318 538 260 q 542 202 549 144 q 556 86 578 37 l 578 37 q 565 4 554 -9 q 542 -23 528 -14 q 514 -5 496 30 q 477 65 450 129 m 105 215 l 105 215 q 105 158 127 132 q 148 105 203 105 l 203 105 q 244 105 282 120 q 319 134 347 160 q 375 185 392 221 q 409 257 409 301 l 409 301 q 409 319 410 352 q 411 384 406 416 q 401 448 387 472 q 373 495 345 495 l 345 495 q 293 495 249 469 q 205 442 173 401 q 141 360 123 311 q 105 261 105 215"},"b":{"x_min":20,"x_max":580,"ha":621,"o":"m 171 43 l 171 43 q 140 133 113 212 q 85 290 65 366 q 44 441 32 519 q 20 597 20 686 l 20 686 q 20 693 21 712 q 21 730 21 750 q 21 770 22 789 q 22 807 22 814 l 22 814 q 31 834 54 851 q 76 868 99 868 l 99 868 q 99 794 101 711 q 103 627 114 544 q 124 461 148 382 q 171 302 214 236 l 214 236 q 215 260 216 289 q 217 318 222 347 q 226 376 236 403 q 246 430 266 451 q 285 472 317 484 q 348 496 396 495 l 396 495 q 439 495 474 479 q 508 463 532 436 q 555 408 568 372 q 580 335 580 294 l 580 294 q 580 239 553 186 q 526 133 482 91 q 437 49 382 24 q 327 -2 270 -2 l 270 -2 q 241 -2 214 9 q 187 19 171 43 m 408 408 l 408 408 q 388 397 366 382 q 344 367 326 336 q 307 304 294 250 q 281 196 278 107 l 278 107 q 280 107 289 106 q 297 105 300 105 l 300 105 q 327 105 362 122 q 396 139 429 164 q 461 189 485 220 q 509 250 514 278 l 514 278 q 517 295 507 317 q 497 339 481 360 q 464 380 445 394 q 425 408 408 408"},"c":{"x_min":0,"x_max":436,"ha":472,"o":"m 0 301 l 0 301 q 0 343 19 389 q 37 435 68 473 q 99 510 140 535 q 180 560 225 560 l 225 560 q 248 560 271 552 q 294 544 313 529 q 331 514 343 493 q 354 472 354 446 l 354 446 q 336 446 322 450 q 307 454 293 460 q 279 465 266 469 q 252 473 236 473 l 236 473 q 195 473 170 453 q 144 432 129 401 q 114 370 109 335 q 103 299 103 268 l 103 268 q 103 263 104 249 q 104 235 105 220 q 105 204 106 190 q 106 176 107 171 l 107 171 q 118 147 129 134 q 139 121 151 115 q 163 108 177 107 q 191 105 210 105 l 210 105 q 236 105 256 113 q 275 121 292 132 q 309 143 324 157 q 339 170 356 182 q 372 193 392 201 q 411 208 436 208 l 436 208 q 436 159 419 121 q 401 83 370 56 q 338 29 296 15 q 253 0 203 0 l 203 0 q 156 0 119 32 q 81 64 55 111 q 28 157 14 209 q 0 261 0 301"},"d":{"x_min":-2,"x_max":519,"ha":558,"o":"m -2 118 l -2 118 q -2 176 27 221 q 56 266 99 300 q 142 333 192 357 q 242 380 285 396 q 328 411 357 421 q 386 430 386 436 l 386 436 q 386 471 383 505 q 379 538 375 572 q 371 606 368 640 q 364 673 364 706 l 364 706 l 364 771 q 405 786 423 768 q 440 750 428 706 l 428 706 q 432 684 439 637 q 446 590 455 531 q 463 472 473 407 q 482 342 491 283 q 499 223 505 177 q 511 130 514 107 l 514 107 q 515 102 516 88 q 517 73 518 57 q 518 40 519 26 q 519 12 519 6 l 519 6 q 481 6 468 9 q 454 12 451 21 q 447 30 447 47 q 447 64 437 94 l 437 94 q 400 65 367 46 q 334 27 301 16 q 268 4 235 0 q 201 -5 163 -5 l 163 -5 q 131 -5 102 1 q 72 6 49 20 q 26 34 12 58 q -2 82 -2 118 m 85 139 l 85 139 q 85 123 92 113 q 99 103 110 96 q 121 89 134 87 q 146 84 158 84 l 158 84 q 193 84 234 98 q 274 111 309 136 q 343 160 366 194 q 388 228 388 268 l 388 268 q 388 299 377 311 q 366 323 335 323 l 335 323 q 303 323 261 308 q 218 293 179 268 q 139 243 112 210 q 85 176 85 139"},"e":{"x_min":20,"x_max":516,"ha":558,"o":"m 20 278 l 20 278 q 20 332 33 386 q 46 440 75 483 q 103 526 149 553 q 194 580 259 580 l 259 580 q 296 580 324 567 q 352 553 371 531 q 390 509 400 480 q 409 450 409 418 l 409 418 q 409 367 386 319 q 362 271 323 235 q 283 198 232 180 q 181 161 128 171 l 128 171 q 129 142 148 125 q 166 107 192 98 q 218 89 246 87 q 274 84 296 84 l 296 84 q 319 84 339 88 q 359 92 379 97 q 399 102 420 106 q 440 110 463 110 l 463 110 q 472 110 481 109 q 490 108 498 105 q 506 101 511 94 q 516 86 516 75 l 516 75 q 516 56 502 44 q 488 31 467 22 q 445 13 419 9 q 393 4 369 2 q 344 -1 324 -1 q 303 -2 293 -2 l 293 -2 q 229 -2 178 19 q 127 39 92 76 q 57 112 39 164 q 20 215 20 278 m 126 343 l 126 343 q 126 308 136 292 q 145 276 182 276 l 182 276 q 208 276 233 286 q 258 295 279 312 q 299 329 311 352 q 323 375 323 402 l 323 402 q 323 417 321 433 q 318 449 310 463 q 302 476 290 485 q 277 493 257 493 l 257 493 q 227 493 203 480 q 178 466 161 445 q 144 423 135 397 q 126 370 126 343"},"f":{"x_min":18,"x_max":709,"ha":706,"o":"m 427 -93 l 427 -93 q 406 -54 381 5 q 355 63 328 127 q 301 190 272 251 q 242 312 212 357 l 212 357 q 200 366 179 368 q 158 370 135 370 q 112 369 90 371 q 67 372 51 381 q 34 390 26 409 q 18 428 23 464 l 23 464 l 191 464 q 196 520 208 575 q 220 630 241 680 q 261 730 290 773 q 319 816 360 847 q 401 878 455 896 q 508 914 576 914 l 576 914 q 600 914 624 903 q 648 891 667 872 q 686 853 698 829 q 709 805 709 781 l 709 781 q 690 781 675 789 q 660 796 646 806 q 632 815 616 824 q 600 832 580 832 l 580 832 q 520 832 469 808 q 417 784 379 744 q 340 704 318 651 q 296 598 296 539 l 296 539 q 296 535 297 525 q 297 514 297 502 q 297 490 298 479 q 298 468 298 464 l 298 464 q 335 452 381 446 q 427 440 474 439 q 520 437 564 439 q 607 441 641 444 l 641 444 q 644 441 652 433 q 660 425 661 421 l 661 421 q 661 418 662 417 l 662 417 q 664 411 664 411 l 664 411 q 664 390 642 378 q 620 366 586 361 q 552 355 511 353 q 469 351 431 350 q 392 348 362 346 q 331 343 319 336 l 319 336 q 332 276 366 220 q 399 164 434 108 q 469 52 496 -5 q 523 -62 523 -122 l 523 -122 q 519 -122 505 -122 q 490 -123 474 -121 q 458 -119 444 -112 q 429 -106 427 -93"},"g":{"x_min":0,"x_max":602,"ha":579,"o":"m 278 -532 l 278 -532 q 334 -532 378 -511 q 422 -491 453 -455 q 483 -420 500 -374 q 516 -329 516 -280 l 516 -280 q 516 -255 514 -214 q 511 -173 506 -125 q 501 -77 492 -27 q 482 23 468 68 q 454 112 434 146 q 413 179 386 193 l 386 193 q 360 173 335 157 q 310 140 283 129 q 256 118 227 112 q 198 105 165 105 l 165 105 q 122 105 92 113 q 61 121 41 140 q 20 159 10 190 q 0 221 0 268 l 0 268 q 0 301 16 333 q 32 364 59 392 q 85 419 119 442 q 152 465 188 482 q 223 499 258 508 q 292 517 319 517 l 319 517 q 345 517 362 516 q 379 514 391 508 q 403 501 412 488 q 420 474 428 451 l 428 451 q 451 373 481 283 q 511 193 538 98 q 565 3 584 -93 q 602 -190 602 -280 l 602 -280 q 602 -360 580 -415 q 557 -471 521 -506 q 484 -542 438 -561 q 391 -580 344 -585 q 297 -591 253 -588 q 209 -585 177 -576 q 145 -568 129 -557 q 112 -546 121 -538 q 129 -531 166 -528 q 203 -525 278 -532 m 292 433 l 292 433 q 218 417 173 389 q 127 360 105 328 q 82 295 80 263 q 78 230 92 207 q 106 184 133 173 q 159 161 193 172 q 227 182 266 217 q 304 252 343 321 l 343 321 q 343 338 344 358 q 344 378 340 395 q 336 411 325 422 q 314 433 292 433"},"h":{"x_min":20,"x_max":468,"ha":488,"o":"m 49 650 l 49 650 q 49 661 52 678 q 54 694 61 709 q 67 724 77 735 q 87 745 103 745 l 103 745 q 104 745 108 744 q 112 743 113 743 l 113 743 q 130 681 133 620 q 136 559 131 502 q 126 444 116 391 q 106 337 100 292 q 93 247 92 211 q 90 175 102 150 l 102 150 q 100 166 100 189 q 99 211 104 235 q 108 259 119 283 q 129 307 149 326 q 169 345 201 356 q 232 367 279 367 l 279 367 q 328 367 364 350 q 399 333 422 304 q 445 274 457 235 q 468 195 468 150 l 468 150 q 468 129 468 103 q 467 76 461 54 q 454 31 438 16 q 421 0 389 0 l 389 0 q 389 16 391 44 q 393 71 394 102 q 394 133 392 165 q 389 197 378 223 q 367 248 348 265 q 328 281 294 281 l 294 281 q 282 281 265 280 q 247 278 229 270 q 211 262 194 246 q 177 229 167 201 q 157 172 156 129 q 154 85 166 22 l 166 22 q 159 4 149 1 q 138 -2 122 -2 l 122 -2 q 90 -2 70 21 q 49 43 38 81 q 27 119 24 169 q 20 219 21 274 q 22 328 27 385 q 31 441 36 492 q 40 542 45 584 q 49 625 49 650"},"i":{"x_min":27,"x_max":217,"ha":236,"o":"m 62 375 l 62 375 q 62 381 63 395 q 63 408 64 423 q 64 438 65 452 q 65 466 65 472 l 65 472 q 76 488 94 498 q 111 508 129 514 l 129 514 q 132 460 146 399 q 160 338 176 277 q 192 215 205 155 q 217 95 217 43 l 217 43 q 217 -2 171 -2 l 171 -2 q 143 -2 124 21 q 105 44 94 80 q 82 115 75 159 q 68 202 66 244 q 63 286 63 321 q 62 356 62 375 m 76 750 l 76 750 q 95 742 108 724 q 121 706 120 692 q 118 677 97 672 q 76 666 27 683 l 27 683 q 27 710 38 730 q 48 750 76 750"},"j":{"x_min":-217,"x_max":323,"ha":301,"o":"m -217 -315 l -217 -315 q -188 -315 -164 -330 q -140 -345 -113 -362 q -87 -380 -56 -395 q -25 -410 16 -410 l 16 -410 q 57 -410 96 -399 q 135 -389 166 -367 q 197 -346 216 -311 q 235 -277 235 -230 l 235 -230 q 235 -152 223 -68 q 210 16 191 100 q 171 183 149 262 q 126 341 107 408 l 107 408 q 107 409 106 413 q 105 417 105 418 l 105 418 q 105 438 119 446 q 133 453 149 453 l 149 453 q 153 453 161 452 q 169 451 171 451 l 171 451 q 202 373 230 292 q 257 210 278 126 q 299 42 311 -42 q 323 -127 323 -210 l 323 -210 q 323 -275 301 -328 q 278 -381 238 -418 q 198 -455 143 -475 q 87 -495 22 -495 l 22 -495 q -21 -495 -63 -485 q -106 -476 -140 -455 q -175 -434 -196 -399 q -217 -365 -217 -315 m 18 697 l 18 697 q 18 700 18 709 q 18 718 20 728 q 22 737 27 744 q 32 751 42 751 l 42 751 q 59 751 68 747 q 77 742 81 736 q 85 729 86 720 q 87 710 87 698 l 87 698 q 87 690 86 680 q 85 670 82 661 q 79 652 72 647 q 65 641 53 641 l 53 641 q 41 641 34 647 q 27 652 24 660 q 20 668 19 678 q 18 688 18 697"},"k":{"x_min":19,"x_max":560,"ha":579,"o":"m 214 20 l 214 20 q 198 6 181 33 q 163 60 145 115 q 127 169 110 245 q 92 321 76 406 q 60 491 46 579 q 31 666 20 743 l 20 743 q 20 757 20 772 q 19 786 23 799 q 26 811 36 821 q 45 831 65 836 l 65 836 q 67 837 74 835 q 80 832 87 829 q 94 825 100 821 q 105 817 107 814 l 107 814 q 94 627 150 450 l 150 450 q 153 453 166 471 q 179 488 199 512 q 219 535 245 562 q 270 589 298 612 q 326 635 354 651 q 382 666 408 666 l 408 666 q 423 666 438 659 q 452 652 452 632 l 452 632 q 452 630 451 627 q 450 623 450 621 l 450 621 q 434 607 402 578 q 369 549 333 513 q 297 477 264 438 q 231 399 214 364 l 214 364 q 211 358 212 354 q 213 349 214 343 l 214 343 q 225 339 249 331 q 273 323 302 313 q 331 302 364 291 q 397 279 426 268 q 455 257 479 249 q 502 240 514 236 l 514 236 q 528 230 537 228 q 546 226 551 223 q 556 219 558 213 q 560 207 560 195 l 560 195 q 560 166 546 157 q 532 148 506 148 l 506 148 q 429 153 355 181 q 281 208 205 247 l 205 247 q 202 228 208 203 q 213 178 221 153 q 229 128 237 104 q 244 80 246 61 q 247 42 241 31 q 235 20 214 20"},"l":{"x_min":36,"x_max":202,"ha":234,"o":"m 44 566 l 44 566 q 44 595 40 623 q 36 650 38 672 q 40 693 54 706 q 67 719 103 719 l 103 719 q 114 696 125 649 q 135 602 145 541 q 155 480 164 409 q 173 337 181 265 q 188 193 194 124 q 199 54 202 -3 l 202 -3 q 169 -25 149 -6 q 129 13 116 59 q 103 104 96 170 q 89 235 83 306 q 76 376 67 445 q 58 513 44 566"},"m":{"x_min":-2,"x_max":857,"ha":878,"o":"m -2 420 l -2 420 q -2 445 7 459 q 15 473 43 473 l 43 473 q 46 473 55 473 q 63 472 65 472 l 65 472 q 72 441 80 405 q 87 368 97 331 q 107 294 120 258 q 132 222 150 193 l 150 193 q 168 212 176 238 q 184 264 188 291 q 192 317 196 342 q 199 366 210 384 q 221 401 243 409 q 264 417 302 409 l 302 409 q 344 409 369 394 q 394 378 413 355 q 431 331 449 305 q 466 278 493 257 l 493 257 q 499 270 508 290 q 517 309 531 331 q 544 352 560 374 q 575 395 592 413 q 609 430 627 442 q 645 453 662 453 l 662 453 q 703 453 733 428 q 763 402 785 364 q 806 325 820 278 q 834 230 842 186 q 850 142 854 106 q 857 69 857 53 l 857 53 q 857 40 851 33 q 845 26 836 23 q 827 19 817 18 q 806 17 797 17 l 797 17 q 795 17 791 18 q 787 18 782 19 l 782 19 q 778 20 771 22 l 771 22 l 706 321 q 706 324 698 333 q 690 341 686 343 l 686 343 q 683 343 681 344 l 681 344 q 679 344 678 345 q 677 345 676 345 l 676 345 q 655 345 637 328 q 618 311 602 285 q 586 259 572 227 q 558 195 547 164 q 536 132 528 106 q 519 79 514 65 l 514 65 q 510 63 498 62 q 486 60 482 60 l 482 60 q 454 60 439 80 q 424 99 415 128 q 405 157 399 192 q 392 226 383 255 q 373 284 357 304 q 340 323 310 323 l 310 323 q 299 323 289 301 q 279 279 271 246 q 263 212 256 174 q 249 135 245 102 q 240 68 238 45 q 236 22 236 22 l 236 22 q 234 19 228 16 q 222 12 216 8 q 209 4 203 2 q 196 0 193 0 l 193 0 q 165 0 139 26 q 113 51 92 92 q 70 132 53 181 q 35 230 23 277 q 11 324 5 362 q -2 400 -2 420"},"n":{"x_min":20,"x_max":544,"ha":579,"o":"m 20 337 l 20 337 q 20 363 33 375 q 46 386 75 386 l 75 386 l 85 386 q 88 370 92 349 q 96 328 104 306 q 112 284 123 266 q 134 247 150 236 l 150 236 q 151 271 168 304 q 184 336 209 362 q 233 387 263 405 q 292 422 321 428 l 321 428 l 343 428 q 391 428 425 407 q 459 385 482 351 q 504 316 516 272 q 528 228 535 183 q 541 137 543 95 q 544 52 544 22 l 544 22 l 471 22 q 465 82 456 137 l 456 137 q 453 159 448 184 q 443 208 437 230 q 431 251 424 270 q 417 288 408 301 l 408 301 q 404 305 398 312 q 391 319 384 326 q 377 333 371 338 q 365 343 364 343 l 364 343 q 334 351 312 332 q 290 312 273 279 q 256 246 246 204 q 235 162 228 124 q 221 85 218 57 q 215 28 214 22 l 214 22 q 189 4 167 12 q 145 19 126 43 q 106 67 91 103 q 75 139 62 180 q 49 220 39 261 q 28 302 20 337"},"o":{"x_min":20,"x_max":495,"ha":514,"o":"m 20 203 l 20 203 q 20 265 49 319 q 78 372 126 411 q 173 449 233 471 q 292 493 353 493 l 353 493 q 387 493 414 471 q 440 449 458 418 q 476 386 486 351 q 495 316 495 290 l 495 290 q 495 234 468 182 q 441 129 398 89 q 355 48 301 23 q 247 -2 193 -2 l 193 -2 q 145 -2 112 15 q 79 31 59 59 q 39 86 30 124 q 20 161 20 203 m 105 193 l 105 193 q 105 167 110 148 q 114 128 126 114 q 137 100 156 93 q 175 85 203 85 l 203 85 q 240 85 277 106 q 314 126 344 158 q 373 189 391 227 q 409 265 409 301 l 409 301 q 409 317 406 336 q 403 355 396 371 q 389 387 376 398 q 363 409 343 409 l 343 409 q 325 409 301 397 q 276 385 250 366 q 223 347 198 323 q 172 299 151 275 q 130 251 118 229 q 105 207 105 193"},"p":{"x_min":20,"x_max":433,"ha":472,"o":"m 20 369 l 20 369 q 20 466 65 513 q 110 560 203 560 l 203 560 q 241 560 282 553 q 322 546 356 529 q 390 511 412 480 q 433 449 433 400 l 433 400 q 433 346 410 299 q 386 251 351 210 q 315 168 273 133 q 230 97 193 65 l 193 65 q 191 61 190 49 q 188 36 188 32 l 188 32 q 188 -1 208 -34 q 227 -68 250 -102 q 273 -137 292 -174 q 311 -211 311 -251 l 311 -251 q 311 -275 301 -279 q 291 -284 259 -284 l 259 -284 q 239 -276 220 -246 q 200 -217 181 -174 q 161 -131 143 -77 q 124 -24 108 32 q 91 87 77 142 q 62 196 51 242 q 40 288 32 322 q 23 355 20 369 m 105 360 l 105 360 q 105 345 107 317 q 109 288 116 260 q 122 232 135 212 q 148 191 171 191 l 171 191 q 202 191 234 212 q 265 233 290 265 q 314 297 330 334 q 345 370 345 400 l 345 400 q 345 425 333 440 q 321 454 303 463 q 284 471 263 474 q 242 476 223 476 l 223 476 q 166 476 136 446 q 105 415 105 360"},"q":{"x_min":22,"x_max":558,"ha":551,"o":"m 377 130 l 377 130 q 356 130 336 123 q 316 116 296 107 q 276 98 256 91 q 235 84 212 84 l 212 84 q 168 84 133 99 q 98 113 74 139 q 49 165 36 201 q 22 236 22 278 l 22 278 q 22 333 43 371 q 64 408 99 431 q 133 454 177 464 q 221 473 267 473 l 267 473 q 318 471 359 440 q 400 408 433 358 q 465 308 489 246 q 513 183 529 118 q 544 53 551 -8 q 558 -69 557 -116 q 556 -164 549 -192 q 541 -220 526 -217 l 526 -217 q 499 -213 486 -193 q 472 -174 465 -145 q 457 -116 456 -81 q 454 -47 453 -12 q 452 22 450 54 q 447 85 440 106 q 433 126 418 134 q 403 142 377 130 m 107 268 l 107 268 q 107 251 116 234 q 124 217 138 203 q 152 189 169 180 q 186 171 203 171 l 203 171 q 220 171 247 179 q 274 186 300 201 q 326 215 345 235 q 364 254 364 278 l 364 278 q 364 312 360 337 q 356 362 346 378 q 336 394 317 402 q 298 409 267 409 l 267 409 q 242 409 214 398 q 186 386 163 366 q 139 346 123 321 q 107 295 107 268"},"r":{"x_min":20,"x_max":495,"ha":511,"o":"m 20 420 l 20 420 q 20 429 21 439 q 22 448 25 456 q 28 463 35 468 q 41 473 53 473 l 53 473 q 63 473 76 458 q 88 442 101 419 q 114 395 127 367 q 139 339 149 316 q 158 292 164 275 q 170 258 171 257 l 171 257 q 184 292 200 333 q 216 374 240 410 q 263 445 296 469 q 328 493 375 493 l 375 493 q 399 493 421 486 q 442 478 459 464 q 475 449 485 429 q 495 409 495 383 l 495 383 q 495 361 478 352 q 460 343 438 343 l 438 343 l 428 343 l 385 386 q 383 386 382 387 l 382 387 q 380 387 379 388 q 377 388 375 388 l 375 388 q 340 388 321 369 q 301 349 291 321 q 281 292 279 261 q 276 229 276 203 l 276 203 q 276 183 280 163 q 284 142 289 123 q 294 103 298 83 q 302 62 302 40 l 302 40 q 302 -2 257 -2 l 257 -2 q 232 -2 205 25 q 178 51 152 92 q 125 133 101 183 q 77 232 59 279 q 41 326 31 364 q 20 402 20 420"},"s":{"x_min":20,"x_max":473,"ha":493,"o":"m 212 45 l 212 45 q 228 56 251 74 q 273 91 296 111 q 319 131 339 153 q 359 175 371 196 q 382 216 382 234 q 382 252 364 264 l 364 264 q 332 264 294 262 q 256 259 218 260 q 180 260 145 266 q 109 272 81 288 q 53 304 37 334 q 20 363 20 409 l 20 409 q 20 463 41 507 q 61 550 95 584 q 129 617 172 643 q 214 668 257 686 l 257 686 q 283 679 305 661 q 327 643 343 621 l 343 621 q 336 599 316 587 q 295 575 269 566 q 242 557 213 547 q 184 537 161 521 q 137 504 121 478 q 105 451 105 408 l 105 408 q 105 376 121 361 q 137 346 163 341 q 189 335 222 337 q 255 338 290 341 q 324 344 357 345 q 390 345 416 337 q 442 328 458 309 q 473 290 473 253 l 473 253 q 473 237 463 212 q 452 187 435 159 q 417 130 394 102 q 370 74 345 52 q 319 29 294 15 q 268 0 246 0 l 246 0 q 225 0 219 15 q 212 30 212 45"},"t":{"x_min":-2,"x_max":625,"ha":643,"o":"m -2 504 l -2 504 q -2 507 -1 509 l -1 509 q -1 511 0 514 l 0 514 q 4 519 12 527 q 20 535 22 535 l 22 535 l 223 535 q 223 546 220 570 q 217 594 215 623 q 212 652 213 684 q 214 715 222 741 q 229 766 246 783 q 262 799 292 799 l 292 799 q 292 698 306 637 q 320 576 344 543 q 367 510 397 500 q 427 490 459 492 q 490 493 520 501 q 550 509 574 512 q 597 515 611 508 q 625 500 625 472 l 625 472 q 625 451 616 442 q 606 433 579 428 l 579 428 q 571 427 553 425 q 534 422 511 420 q 488 418 462 416 q 436 413 413 411 q 390 409 371 409 q 352 408 343 408 l 343 408 q 343 403 342 391 q 341 379 341 375 l 341 375 q 341 331 355 290 q 369 248 386 207 q 402 166 416 125 q 430 84 430 40 l 430 40 q 430 32 429 24 q 427 15 423 9 q 418 2 410 -1 q 401 -5 386 0 l 386 0 q 348 10 330 43 q 311 76 302 122 q 293 167 290 218 q 287 269 281 314 q 274 358 260 390 q 246 421 215 428 l 215 428 l 22 472 q 18 472 10 481 q 2 489 0 493 l 0 493 q -1 495 -1 498 l -1 498 q -2 500 -2 504"},"u":{"x_min":20,"x_max":475,"ha":514,"o":"m 20 408 l 20 408 q 20 414 21 430 q 21 445 21 462 q 21 479 22 494 q 22 508 22 514 l 22 514 q 29 526 39 538 q 48 549 59 554 q 69 558 82 555 q 94 552 107 535 l 107 535 l 107 527 l 107 514 q 106 509 103 491 q 100 472 96 450 q 92 428 89 410 q 85 391 85 386 l 85 386 q 85 367 89 339 q 93 310 101 279 q 108 248 120 217 q 131 186 147 162 q 163 137 183 121 q 202 105 228 105 l 228 105 q 260 105 285 122 q 309 139 327 166 q 345 193 357 227 q 368 261 375 296 q 382 330 385 362 q 388 394 388 418 l 388 418 q 388 442 385 464 q 381 485 376 506 q 371 527 368 548 q 364 568 364 589 l 364 589 q 364 608 378 616 q 391 624 408 624 l 408 624 q 429 624 442 612 q 455 599 463 580 q 470 561 473 537 q 475 512 475 488 q 475 464 474 443 q 473 421 473 408 l 473 408 q 473 374 468 331 q 463 288 451 243 q 438 197 420 153 q 401 109 375 75 q 348 40 314 19 q 279 -2 236 -2 l 236 -2 q 191 -2 157 20 q 123 41 100 77 q 76 112 60 157 q 44 202 36 247 q 27 292 24 335 q 20 377 20 408"},"v":{"x_min":14,"x_max":495,"ha":535,"o":"m 14 521 l 14 521 q 21 545 31 543 q 40 541 54 520 q 68 499 86 464 q 103 429 123 389 q 143 348 167 306 q 190 264 216 229 q 241 194 270 171 q 298 148 328 144 l 328 144 l 408 558 q 410 575 424 578 q 437 580 450 580 l 450 580 q 495 580 495 538 l 495 538 q 495 516 491 468 q 487 420 478 363 q 469 305 456 245 q 443 184 425 134 q 407 84 384 52 q 360 20 332 20 l 332 20 q 291 20 251 48 q 211 75 176 120 q 140 164 111 219 q 81 274 60 330 q 38 385 26 436 q 14 487 14 521"},"w":{"x_min":-2,"x_max":710,"ha":751,"o":"m -2 428 l -2 428 q -2 445 6 459 q 13 473 32 473 l 32 473 q 33 473 35 473 q 37 472 39 472 l 39 472 q 41 472 43 472 l 43 472 q 46 470 55 462 q 63 454 65 450 l 65 450 q 68 444 78 424 q 87 404 101 378 q 114 351 129 322 q 143 292 157 265 q 170 238 180 219 q 189 199 193 193 l 193 193 q 194 190 203 182 q 211 173 215 171 l 215 171 q 223 185 231 213 q 239 241 248 275 q 256 308 265 344 q 274 379 286 408 q 297 436 311 455 q 325 473 343 473 l 343 473 q 369 473 393 453 q 416 433 438 401 q 459 369 479 330 q 498 290 516 252 q 533 213 549 181 q 564 148 579 129 l 579 129 q 591 133 599 149 q 607 165 612 183 q 616 200 618 216 q 620 231 621 236 l 621 236 q 622 247 624 271 q 626 294 629 324 q 631 354 633 386 q 635 418 638 448 q 640 478 642 502 q 643 525 643 535 l 643 535 q 645 535 653 537 q 661 538 664 538 l 664 538 q 678 538 689 535 q 700 532 706 514 l 706 514 q 706 507 707 489 q 707 471 708 451 q 708 430 709 412 q 709 393 709 386 l 709 386 q 709 370 710 337 q 710 303 709 262 q 707 221 702 179 q 697 136 687 101 q 676 65 658 43 q 640 20 613 20 l 613 20 q 582 20 555 35 q 528 50 505 75 q 481 100 460 131 q 439 161 422 193 q 404 224 390 253 q 375 281 364 301 l 364 301 q 356 283 350 256 q 343 229 335 198 q 327 166 317 135 q 307 103 295 78 q 282 52 266 36 q 249 20 228 20 l 228 20 q 218 20 210 20 q 202 19 195 21 q 188 22 182 27 q 176 32 171 43 l 171 43 l 0 408 q 0 409 -1 417 q -2 424 -2 428"},"x":{"x_min":-2,"x_max":517,"ha":493,"o":"m 171 301 l 0 472 q -1 473 -1 475 l -1 475 q -2 477 -2 482 l -2 482 q -2 501 14 509 q 30 516 45 516 l 45 516 q 47 516 50 516 q 52 515 56 515 l 56 515 q 59 514 65 514 l 65 514 l 205 396 q 241 448 264 477 q 286 506 299 520 q 312 533 319 536 q 325 538 328 538 l 328 538 q 335 538 344 538 q 352 538 361 537 q 370 535 377 530 q 383 525 386 514 l 386 514 q 369 497 354 480 q 339 463 326 444 q 313 424 302 400 q 290 376 278 346 l 278 346 q 297 332 326 307 q 354 281 384 251 q 413 220 441 189 q 469 157 488 129 q 506 101 512 81 q 517 61 504 55 l 504 55 q 490 37 485 29 q 480 20 475 23 q 469 26 460 42 q 451 58 428 88 q 404 117 363 162 q 322 207 254 269 l 254 269 l 246 22 q 246 21 242 18 q 238 15 234 12 q 229 8 224 5 q 219 2 215 0 l 215 0 l 203 0 l 193 0 q 188 4 180 12 q 171 20 171 22 l 171 22 l 171 301"},"y":{"x_min":3,"x_max":453,"ha":493,"o":"m 3 517 l 3 517 q 3 526 4 536 q 4 545 8 554 q 11 562 18 567 q 24 571 37 571 l 37 571 q 38 571 40 571 q 41 571 43 571 l 43 571 q 46 570 48 570 l 48 570 q 67 544 81 504 q 95 463 108 418 q 121 372 136 326 q 151 279 175 242 q 199 205 234 183 q 269 161 321 164 l 321 164 q 344 164 351 189 q 358 214 359 253 q 359 292 357 339 q 354 386 357 429 q 359 471 372 503 q 384 535 415 546 l 415 546 q 428 520 437 465 q 445 409 449 337 q 453 264 453 180 q 453 95 449 12 q 445 -72 437 -149 q 429 -226 419 -284 q 409 -342 396 -375 q 382 -409 367 -404 l 367 -404 q 346 -384 335 -352 q 323 -320 319 -281 q 314 -242 315 -198 q 316 -155 319 -111 q 321 -67 325 -25 q 328 17 328 52 l 328 52 q 292 49 255 63 q 217 77 181 107 q 145 136 113 178 q 80 220 56 273 q 31 326 17 388 q 3 449 3 517"},"z":{"x_min":0,"x_max":538,"ha":579,"o":"m 364 493 l 364 493 q 366 495 368 499 q 369 502 369 504 l 369 504 q 369 527 342 535 q 314 542 273 542 q 232 541 185 537 q 137 533 96 534 q 55 534 28 544 q 0 553 0 579 l 0 579 q 0 596 3 605 q 5 613 10 617 q 15 620 23 621 q 30 621 39 621 l 39 621 l 65 621 q 77 620 104 619 q 131 617 165 616 q 199 614 237 612 q 274 609 308 607 q 341 605 368 603 q 394 601 408 600 l 408 600 q 426 589 439 580 q 451 571 459 562 q 466 553 470 543 q 473 532 473 516 l 473 516 q 473 482 459 450 q 445 417 424 385 q 402 352 375 320 q 347 287 321 255 q 295 223 272 191 q 249 159 236 129 l 236 129 l 493 129 q 522 129 530 118 q 538 107 538 87 l 538 87 q 538 73 535 61 q 532 49 514 43 l 514 43 q 466 39 417 31 q 368 23 319 15 q 270 7 221 1 q 171 -5 122 -5 l 122 -5 q 122 67 145 134 q 167 200 203 262 q 238 324 281 382 q 323 440 364 493"},"{":{"x_min":79,"x_max":514,"ha":472,"o":"m 146 265 l 146 265 q 146 283 156 301 q 166 319 180 336 q 194 352 209 368 q 224 384 234 401 l 234 401 q 207 436 179 472 q 151 507 129 544 q 107 581 93 622 q 79 662 79 708 l 79 708 q 79 743 95 777 q 110 811 136 837 q 161 863 195 879 q 229 895 266 895 l 266 895 q 278 895 293 893 q 307 890 321 885 q 334 880 345 872 q 356 864 362 852 l 362 852 q 338 838 306 827 q 273 816 242 802 q 211 787 189 765 q 167 742 167 704 l 167 704 q 167 673 179 647 q 190 621 207 598 q 224 574 245 552 q 265 530 282 507 q 299 483 310 457 q 321 431 321 400 l 321 400 q 321 380 314 363 q 307 346 299 331 q 291 315 284 299 q 276 283 276 265 l 276 265 q 276 261 274 233 q 272 205 272 165 q 271 125 273 80 q 275 34 284 -4 q 293 -43 311 -69 q 328 -95 358 -95 l 358 -95 q 378 -95 394 -87 q 409 -79 423 -70 q 436 -61 450 -53 q 463 -46 481 -46 l 481 -46 q 499 -46 507 -60 q 514 -75 514 -93 l 514 -93 q 514 -122 497 -142 q 479 -163 453 -176 q 427 -189 398 -194 q 369 -200 346 -200 l 346 -200 q 301 -200 270 -174 q 238 -148 216 -106 q 193 -64 180 -12 q 166 40 159 92 q 151 143 149 189 q 146 235 146 265"},"|":{"x_min":49,"x_max":247,"ha":278,"o":"m 57 570 l 57 570 q 57 598 53 626 q 49 653 51 675 q 53 697 67 710 q 81 723 116 723 l 116 723 q 136 705 154 661 q 171 617 186 557 q 201 496 213 424 q 224 351 232 277 q 239 202 243 130 q 247 57 246 -3 l 246 -3 q 221 -19 203 -12 q 184 -5 170 20 q 156 45 145 84 q 133 123 124 172 q 115 220 108 273 q 101 326 93 379 q 85 432 76 481 q 67 530 57 570"},"}":{"x_min":5,"x_max":322,"ha":343,"o":"m 40 -132 l 40 -132 q 40 -106 49 -94 q 58 -83 73 -78 q 88 -73 105 -71 q 121 -69 136 -63 q 151 -57 161 -43 q 170 -29 170 1 l 170 1 q 170 22 160 44 q 149 65 137 88 q 125 111 115 135 q 104 159 104 185 l 104 185 q 104 187 104 190 q 104 193 105 196 l 105 196 q 105 200 106 204 l 106 204 q 108 208 119 224 q 129 239 140 257 q 151 275 161 291 q 170 307 170 311 l 170 311 q 170 332 157 355 q 143 377 127 402 q 110 426 97 453 q 83 479 83 508 l 83 508 q 83 538 94 563 q 104 588 117 611 q 130 634 141 658 q 151 681 151 707 l 151 707 q 151 733 133 747 q 114 760 90 766 q 66 772 42 773 q 17 774 5 774 l 5 774 q 5 796 13 811 q 20 826 33 835 q 46 843 63 847 q 79 850 98 850 l 98 850 q 121 850 149 841 q 176 832 201 817 q 225 801 242 779 q 258 756 258 729 l 258 729 q 258 728 258 727 q 257 725 257 724 l 257 724 q 256 721 256 719 l 256 719 q 255 714 248 699 q 241 684 232 664 q 223 644 213 622 q 203 599 194 580 q 185 560 179 545 q 172 530 170 526 l 170 526 l 170 515 q 170 485 182 465 q 193 445 210 431 q 227 417 246 406 q 265 395 283 384 q 300 373 311 360 q 322 346 322 326 l 322 326 q 322 305 314 291 q 306 276 294 266 q 281 255 267 245 q 252 235 240 224 q 227 212 219 198 q 211 183 211 161 l 211 161 q 211 138 219 119 q 226 99 235 80 q 243 60 251 40 q 258 20 258 -5 l 258 -5 q 258 -35 252 -66 q 245 -98 229 -123 q 213 -149 189 -165 q 164 -182 128 -182 l 128 -182 q 112 -182 97 -181 q 81 -180 69 -175 q 56 -171 48 -161 q 40 -151 40 -132"},"~":{"x_min":34,"x_max":600,"ha":621,"o":"m 34 514 l 34 514 q 34 547 40 584 q 46 620 62 651 q 78 681 107 701 q 135 721 180 721 l 180 721 q 212 721 236 707 q 259 692 278 671 q 296 649 312 624 q 328 598 346 576 q 364 554 386 540 q 407 526 436 526 l 436 526 q 470 526 486 536 q 501 546 506 563 q 511 579 510 599 q 508 619 508 639 q 508 658 513 674 q 517 689 534 698 l 534 698 l 544 698 l 554 698 q 557 697 564 695 q 570 692 577 689 q 583 686 590 683 q 596 679 598 678 l 598 678 q 598 674 599 667 q 599 659 599 651 q 599 642 600 634 q 600 626 600 624 l 600 624 q 600 536 554 487 q 508 437 422 437 l 422 437 q 389 437 365 450 q 341 463 323 483 q 304 503 289 527 q 274 550 258 570 q 242 589 224 603 q 205 616 180 616 l 180 616 q 148 616 135 604 q 121 591 116 572 q 111 553 111 530 q 111 507 108 485 q 105 463 96 446 q 86 428 63 420 l 63 420 l 40 441 q 40 444 39 454 q 38 463 37 474 q 36 485 35 497 q 34 508 34 514"}," ":{"x_min":0,"x_max":0,"ha":461,"o":""},"¡":{"x_min":42,"x_max":162,"ha":188,"o":"m 117 650 l 117 650 q 130 650 143 657 q 155 665 159 675 q 162 686 152 699 q 142 712 109 723 l 109 723 q 82 719 71 710 q 59 702 58 692 q 56 682 63 673 q 69 663 79 656 q 88 649 99 647 q 110 645 117 650 m 42 41 l 42 41 q 69 18 84 31 q 99 43 107 79 q 114 115 115 165 q 116 215 117 267 q 117 320 119 367 q 120 413 127 441 l 127 441 q 127 455 125 465 q 123 475 118 481 q 113 488 102 491 q 91 494 73 494 l 73 494 q 70 494 67 491 q 64 489 61 475 q 58 462 55 434 q 52 406 50 355 q 47 305 45 229 q 42 153 42 41"},"¢":{"x_min":0,"x_max":436,"ha":472,"o":"m 118 644 l 118 644 q 135 682 151 676 q 166 670 179 634 l 179 634 q 191 604 202 558 l 202 558 q 213 560 225 560 l 225 560 q 248 560 271 552 q 294 544 313 529 q 331 514 343 493 q 354 472 354 446 l 354 446 q 336 446 322 450 q 307 454 293 460 q 279 465 266 469 q 252 473 236 473 l 236 473 q 228 473 220 472 l 220 472 q 227 439 233 403 l 233 403 q 246 332 257 257 l 257 257 q 268 186 280 124 l 280 124 q 286 128 292 131 l 292 131 q 309 143 324 157 q 339 170 356 182 q 372 193 392 201 q 411 208 436 208 l 436 208 q 436 159 419 121 q 401 83 370 56 l 370 56 q 340 31 301 16 l 301 16 q 303 11 305 4 l 305 4 q 317 -43 329 -61 l 329 -61 q 328 -61 314 -63 q 300 -65 285 -67 q 269 -70 256 -72 q 243 -74 242 -74 l 242 -74 q 231 -39 220 0 l 220 0 l 203 0 q 156 0 119 32 q 81 64 55 111 q 28 157 14 209 q 0 261 0 301 l 0 301 q 0 343 19 389 q 37 435 67 472 l 67 472 q 93 502 123 525 l 123 525 q 118 589 118 644 m 129 400 l 129 400 q 114 370 109 335 q 103 299 103 268 l 103 268 q 103 263 104 249 q 104 235 105 220 q 105 204 106 190 q 106 176 107 171 l 107 171 q 118 147 129 134 q 139 121 151 115 q 163 108 176 106 l 176 106 q 184 105 194 105 l 194 105 q 175 191 158 281 l 158 281 q 146 348 136 414 l 136 414 q 132 408 129 400"},"£":{"x_min":-81,"x_max":607,"ha":621,"o":"m -81 333 l -81 333 q -81 336 -80 344 q -79 352 -79 354 l -79 354 q -64 354 -40 356 q -16 357 13 359 l 13 359 q 9 400 7 447 q 4 494 3 537 q 2 580 1 612 q 0 644 0 656 l 0 656 q 0 703 28 723 q 56 743 100 745 q 143 747 196 734 q 249 720 300 699 q 350 678 392 653 q 434 628 455 607 q 475 585 469 571 q 463 556 417 556 l 417 556 q 416 556 391 564 q 366 572 328 584 q 289 596 244 610 q 198 624 160 636 q 121 647 70 663 l 70 663 q 72 642 74 607 q 76 571 78 531 q 79 490 82 447 q 85 404 89 366 l 89 366 q 116 368 142 370 q 167 371 190 372 q 213 372 232 372 q 250 371 262 369 l 262 369 q 280 369 287 365 q 294 361 294 337 l 294 337 q 277 326 255 318 q 232 310 207 305 q 181 300 154 297 q 127 293 101 292 l 101 292 q 106 259 109 236 q 112 212 117 193 q 121 174 129 157 q 137 139 151 118 l 151 118 q 170 106 174 101 q 178 95 181 96 q 184 97 193 104 q 202 111 230 124 q 257 136 310 154 q 363 172 454 195 l 454 195 q 517 187 550 164 q 582 140 595 112 q 607 84 604 57 q 600 30 592 14 q 583 -2 574 0 q 564 1 564 30 l 564 30 q 564 67 540 84 q 515 100 477 101 q 438 101 393 90 q 347 78 306 63 q 265 47 234 30 q 202 12 193 0 l 193 0 q 175 -21 158 -20 q 140 -19 123 -1 q 105 17 89 49 q 73 80 59 119 q 45 158 35 203 q 25 247 20 290 l 20 290 l -36 290 q -64 288 -72 301 q -81 313 -81 333"},"¤":{"x_min":38,"x_max":670,"ha":686,"o":"m 115 312 l 115 312 q 115 347 125 381 q 135 414 153 443 l 153 443 l 40 566 q 39 568 39 570 l 39 570 q 38 571 38 576 l 38 576 q 38 596 54 603 q 69 610 85 610 l 85 610 q 86 610 89 610 q 92 609 95 609 l 95 609 q 99 608 104 608 l 104 608 l 207 507 q 256 552 319 577 q 382 602 449 602 l 449 602 q 467 602 483 595 q 499 588 512 577 l 512 577 q 533 585 553 595 q 573 605 590 615 q 607 624 618 630 q 628 636 630 636 l 630 636 q 643 636 654 620 q 665 603 670 582 l 670 582 q 657 570 627 553 q 597 535 560 515 l 560 515 q 575 485 583 454 q 590 422 590 398 l 590 398 q 590 352 572 308 q 553 263 520 225 l 520 225 q 543 200 562 176 q 580 152 591 132 q 601 112 603 99 q 605 85 594 80 l 594 80 q 582 66 577 58 q 571 49 567 48 q 563 47 559 53 q 554 59 544 75 q 534 90 516 115 q 497 139 465 174 l 465 174 q 426 142 381 125 q 335 107 289 107 l 289 107 q 268 107 251 110 q 234 113 219 119 l 219 119 l 148 21 q 148 20 145 17 q 141 13 136 10 q 131 7 126 4 q 121 1 117 -1 l 117 -1 l 94 -1 q 90 3 82 11 q 74 19 74 21 l 74 21 l 159 159 q 136 188 126 227 q 115 266 115 312 m 193 301 l 193 301 q 193 276 198 257 q 202 237 214 223 q 225 209 245 202 q 264 194 292 194 l 292 194 q 329 194 366 215 q 402 235 432 267 q 461 298 480 336 q 498 373 498 409 l 498 409 q 498 426 495 445 q 492 463 485 480 q 477 496 464 507 q 451 517 431 517 l 431 517 q 398 517 357 505 q 315 492 279 466 q 243 439 218 398 q 193 357 193 301"},"¥":{"x_min":20,"x_max":651,"ha":643,"o":"m 559 351 l 559 351 q 588 353 596 341 q 604 328 604 310 l 604 310 q 604 285 591 272 q 577 259 557 253 q 536 247 513 246 q 490 244 472 243 l 472 243 q 461 242 435 241 l 435 241 q 438 151 438 57 l 438 57 l 438 36 q 438 24 435 14 q 431 3 422 -3 q 413 -9 394 -5 l 394 -5 q 358 49 345 119 l 345 119 q 334 176 331 238 l 331 238 l 309 238 q 274 238 242 237 q 209 236 183 236 q 157 235 146 235 l 146 235 q 146 276 174 301 q 202 325 244 337 l 244 337 q 284 349 331 353 l 331 353 l 335 414 l 337 439 l 327 439 q 298 439 268 442 q 238 445 212 452 q 185 459 165 473 q 145 486 135 508 l 135 508 l 156 530 q 238 535 313 538 l 313 538 q 328 539 342 539 l 342 539 q 342 549 343 558 l 343 558 q 304 566 265 594 q 226 622 191 662 q 155 702 124 751 q 92 800 69 850 q 46 900 33 947 q 20 994 20 1031 l 20 1031 q 20 1036 21 1043 q 21 1050 23 1057 q 24 1063 29 1068 q 34 1072 42 1072 l 42 1072 q 67 1072 85 1055 q 103 1037 118 1008 q 133 979 146 942 q 159 905 173 867 q 186 829 201 792 q 216 755 235 726 q 253 697 277 680 q 301 662 332 662 l 332 662 q 334 662 338 663 q 341 664 343 664 l 343 664 q 371 689 394 731 q 416 772 435 820 q 454 868 472 919 q 490 970 510 1014 q 529 1058 551 1091 q 572 1124 600 1137 l 600 1137 l 643 1093 q 651 1085 646 1061 q 640 1036 627 1000 q 613 963 593 919 q 573 874 551 826 l 551 826 l 507 731 q 485 683 468 641 q 450 599 439 566 l 439 566 q 436 554 433 544 l 433 544 l 447 544 q 481 546 511 548 q 540 549 563 551 l 563 551 l 576 551 q 596 551 602 538 q 608 524 608 508 l 608 508 q 608 484 600 471 q 591 457 563 445 l 563 445 q 555 445 536 445 q 516 444 494 444 q 472 444 452 443 l 452 443 l 428 443 q 429 399 430 355 l 430 355 l 435 355 q 481 355 515 353 q 549 350 559 351"},"¦":{"x_min":34,"x_max":180,"ha":236,"o":"m 144 443 l 67 435 q 59 468 54 494 q 48 520 44 545 q 39 569 37 594 q 34 619 34 651 l 34 651 l 34 688 q 34 715 39 740 q 44 765 56 784 q 67 803 89 803 l 89 803 q 106 803 116 780 q 125 757 130 721 q 134 685 135 642 q 135 598 136 559 q 136 519 138 487 q 139 455 144 443 l 144 443 m 70 377 l 151 377 q 162 336 165 288 q 168 239 170 195 q 171 150 172 114 q 173 78 178 62 l 178 62 q 178 60 179 56 q 180 52 180 50 l 180 50 q 180 40 173 33 q 166 26 156 23 q 145 19 134 18 q 122 16 113 16 l 113 16 q 110 16 102 17 q 94 18 92 18 l 92 18 q 79 59 78 103 q 77 147 79 193 q 80 238 80 284 q 80 329 70 377 l 70 377"},"§":{"x_min":22,"x_max":468,"ha":487,"o":"m 105 49 l 105 49 q 126 44 160 40 q 194 36 231 35 q 268 34 303 38 q 337 42 358 54 q 378 65 380 85 q 382 105 355 137 l 355 137 q 326 137 293 136 q 260 135 228 137 q 195 138 165 144 q 135 150 112 165 q 89 180 75 205 q 61 229 61 267 l 61 267 q 61 317 83 354 q 104 391 139 419 l 139 419 q 114 423 93 431 q 71 438 56 452 q 40 466 31 487 q 22 508 22 537 l 22 537 q 22 586 40 619 q 57 652 85 672 q 113 691 150 700 q 187 708 226 708 q 265 707 304 699 q 343 690 375 677 l 375 677 q 398 667 403 653 q 408 638 402 625 q 396 612 383 604 q 369 595 355 598 l 355 598 q 336 603 310 610 q 283 616 255 621 q 226 626 199 627 q 171 627 149 619 q 127 611 114 591 q 100 571 100 536 l 100 536 q 100 508 120 495 q 139 481 169 477 q 198 472 233 475 q 268 478 301 483 l 301 483 q 327 484 353 481 q 379 477 400 467 q 421 456 434 439 q 447 421 447 395 l 447 395 q 447 381 446 363 q 445 344 441 324 q 437 303 428 284 q 419 264 402 248 q 385 231 359 220 l 359 220 q 336 209 305 205 l 305 205 q 335 206 363 202 l 363 202 q 394 197 418 183 q 441 169 455 145 q 468 121 468 85 l 468 85 q 468 52 445 31 q 422 10 386 -2 q 349 -14 305 -19 q 261 -24 219 -25 q 177 -26 142 -25 q 106 -24 88 -24 l 88 -24 q 71 -24 68 -10 q 65 3 70 18 q 75 33 85 44 q 95 55 105 49 m 211 225 l 211 225 q 234 226 262 236 q 289 246 314 262 q 339 277 358 297 q 376 317 383 338 q 389 359 379 380 q 368 400 335 418 l 335 418 q 323 421 304 422 q 284 422 262 417 q 240 412 218 402 q 196 391 179 373 q 161 355 150 329 q 139 302 139 266 l 139 266 q 139 251 144 243 q 149 235 159 232 q 169 229 182 228 q 195 227 211 225"},"¨":{"x_min":213,"x_max":539,"ha":768,"o":"m 267 785 l 267 785 q 312 785 312 738 l 312 738 q 301 709 285 699 q 268 689 253 692 q 238 695 227 707 q 215 719 214 734 q 213 749 225 764 q 237 778 267 785 m 494 785 l 494 785 q 539 785 539 738 l 539 738 q 527 709 511 699 q 495 689 480 692 q 464 695 453 707 q 442 719 441 734 q 440 749 452 764 q 463 778 494 785"},"©":{"x_min":34,"x_max":775,"ha":826,"o":"m 206 377 l 206 377 q 206 410 222 447 q 237 483 263 514 q 289 544 323 564 q 357 583 395 583 l 395 583 q 415 583 435 577 q 454 571 469 559 q 484 546 494 530 q 503 513 503 493 l 503 493 q 489 493 477 496 q 464 499 453 504 q 441 508 430 512 q 418 515 405 515 l 405 515 q 371 515 350 498 q 328 481 316 457 q 303 433 298 404 q 293 375 293 351 l 293 351 q 293 346 294 336 q 294 325 295 313 q 295 301 296 290 q 296 279 296 274 l 296 274 q 305 256 314 245 q 322 234 333 229 q 343 224 355 223 q 367 222 382 222 l 382 222 q 415 222 437 235 q 459 247 479 263 q 498 279 520 292 q 541 304 573 304 l 573 304 q 573 265 559 235 q 544 204 517 183 q 490 161 455 150 q 419 139 378 139 l 378 139 q 338 139 306 165 q 274 190 252 227 q 229 264 218 305 q 206 346 206 377 m 34 355 l 34 355 q 34 398 42 444 q 49 490 64 534 q 78 578 101 618 q 124 657 155 687 q 186 717 226 735 q 265 753 314 753 l 314 753 q 396 769 479 748 q 562 726 628 676 q 694 625 735 549 q 775 473 774 380 l 774 380 q 775 322 754 267 q 733 211 696 162 q 658 113 607 74 q 556 35 498 10 q 439 -15 376 -24 q 313 -33 251 -22 l 251 -22 q 201 -22 166 -4 q 130 14 106 45 q 82 76 68 115 q 53 153 46 196 q 39 238 37 279 q 34 320 34 355 m 100 306 l 100 306 q 100 265 109 220 q 117 174 138 135 q 158 95 193 70 q 228 44 280 44 l 280 44 q 332 33 385 44 q 437 54 486 79 q 535 103 576 140 q 617 176 647 217 q 677 258 692 301 q 706 343 700 380 l 700 380 q 711 418 700 459 q 688 499 662 536 q 635 572 597 603 q 559 634 516 656 q 472 678 425 687 q 378 696 336 689 l 336 689 q 292 689 257 671 q 222 652 196 621 q 170 589 152 549 q 133 509 122 467 q 111 424 106 382 q 100 340 100 306"},"ª":{"x_min":19,"x_max":346,"ha":369,"o":"m 272 337 l 272 337 q 249 323 233 312 q 217 301 202 294 q 187 286 169 283 q 152 279 127 279 l 127 279 q 72 279 46 305 q 20 332 20 385 l 20 385 q 20 405 26 427 q 31 449 43 471 q 54 493 70 513 q 86 532 106 548 q 126 563 148 571 q 171 580 196 580 l 196 580 q 238 577 262 561 q 286 546 299 522 q 311 498 316 469 q 320 439 323 408 q 326 377 330 346 q 334 314 347 288 l 347 288 q 339 270 332 263 q 326 256 317 260 q 309 265 298 284 q 287 303 272 337 m 70 384 l 70 384 q 70 353 82 339 q 95 325 127 325 l 127 325 q 151 325 173 332 q 195 340 211 354 q 228 368 238 387 q 248 406 248 430 l 248 430 q 248 440 248 457 q 249 475 246 492 q 243 509 235 522 q 227 535 210 535 l 210 535 q 180 535 154 520 q 128 506 109 484 q 91 462 80 435 q 70 409 70 384"},"«":{"x_min":20,"x_max":741,"ha":826,"o":"m 20 257 l 20 257 q 20 290 40 323 q 60 356 93 388 q 126 419 168 447 q 210 474 254 495 q 297 516 339 528 q 380 540 411 540 l 411 540 q 411 511 397 487 q 382 463 358 442 q 334 421 305 402 q 275 382 247 363 q 218 344 192 323 q 166 302 150 278 l 150 278 q 149 275 148 274 l 148 274 q 148 271 148 268 l 148 268 q 148 265 148 262 l 148 262 q 149 259 150 257 l 150 257 q 152 256 160 247 q 167 238 171 236 l 171 236 q 176 232 195 221 q 213 210 238 194 q 262 178 290 161 q 317 144 341 128 q 365 112 383 101 q 401 89 408 85 l 408 85 q 410 84 419 76 q 427 67 428 65 l 428 65 q 428 62 429 59 l 429 59 q 429 58 430 56 q 430 54 430 53 l 430 53 q 430 52 430 51 q 429 49 429 48 l 429 48 q 428 45 428 43 l 428 43 q 426 39 419 31 q 412 23 406 17 q 399 10 393 5 q 387 0 385 0 l 385 0 q 369 0 336 13 q 302 25 262 46 q 221 67 179 94 q 136 121 101 150 q 65 179 43 207 q 20 235 20 257 m 330 259 l 330 259 q 330 292 351 325 q 371 358 404 390 q 436 421 479 449 q 521 476 564 497 q 607 517 649 530 q 690 542 722 542 l 722 542 q 722 513 707 489 q 692 465 668 444 q 644 423 615 404 q 586 384 557 365 q 528 346 503 325 q 477 304 461 280 l 461 280 q 460 277 459 275 l 459 275 q 458 273 458 270 l 458 270 q 458 266 459 264 l 459 264 q 460 261 461 259 l 461 259 q 463 257 471 249 q 478 240 482 238 l 482 238 q 488 234 506 223 q 524 211 548 196 q 572 180 600 163 q 627 146 652 130 q 676 114 694 103 q 712 91 718 87 l 718 87 q 721 85 729 77 q 737 69 739 67 l 739 67 q 739 64 740 61 l 740 61 q 740 59 741 58 q 741 56 741 55 l 741 55 q 741 54 741 53 q 740 51 740 49 l 740 49 q 739 47 739 45 l 739 45 q 736 40 730 33 q 723 25 716 19 q 709 12 703 7 q 697 2 696 2 l 696 2 q 679 2 646 15 q 613 27 573 48 q 532 69 489 96 q 446 123 411 152 q 375 181 353 209 q 330 237 330 259"},"¬":{"x_min":43,"x_max":584,"ha":626,"o":"m 584 199 l 505 199 q 503 230 501 249 q 499 268 497 281 q 495 293 493 302 q 491 310 490 320 q 489 329 488 343 q 487 356 487 380 l 487 380 q 374 380 264 370 q 154 360 43 360 l 43 360 q 43 395 69 418 q 94 440 133 452 q 172 464 220 469 q 268 473 315 474 q 361 475 400 474 q 438 472 459 472 l 459 472 q 469 472 485 472 q 500 471 515 471 q 530 471 541 471 q 552 470 553 470 l 553 470 q 558 427 562 400 q 566 373 569 355 q 572 336 575 323 q 577 309 579 293 q 580 277 581 256 q 582 234 584 199 l 584 199"},"­":{"x_min":76,"x_max":452,"ha":514,"o":"m 76 325 l 76 325 q 76 328 77 337 q 78 345 78 346 l 78 346 q 94 346 122 349 q 149 351 182 354 q 215 356 251 359 q 286 362 318 363 q 350 364 377 364 q 404 364 419 361 l 419 361 q 437 361 445 357 q 452 353 452 330 l 452 330 q 422 310 377 301 q 332 291 285 287 q 238 283 194 283 q 149 283 121 282 l 121 282 q 94 280 85 293 q 76 306 76 325"},"®":{"x_min":40,"x_max":726,"ha":752,"o":"m 40 342 l 40 342 q 40 383 50 429 q 60 475 79 519 q 97 563 125 603 q 152 643 187 673 q 221 703 264 721 q 306 738 355 738 l 355 738 q 400 738 445 723 q 490 707 532 681 q 573 655 609 620 q 644 584 671 543 q 697 501 712 457 q 726 413 726 369 l 726 369 q 726 317 713 265 q 700 212 675 165 q 649 118 612 79 q 574 40 526 13 q 477 -15 419 -28 q 360 -42 292 -36 l 292 -36 q 241 -36 204 -18 q 166 0 138 31 q 110 61 91 100 q 72 139 61 181 q 49 223 45 265 q 40 307 40 342 m 111 310 l 111 310 q 111 269 123 224 q 135 178 160 140 q 184 101 222 75 q 260 49 312 49 l 312 49 q 359 40 401 44 q 442 48 477 63 q 512 77 541 101 q 570 124 591 153 l 591 153 q 563 158 535 169 q 507 179 477 191 q 446 203 412 216 q 378 228 337 237 l 337 237 q 349 216 358 199 q 366 182 372 166 q 378 150 381 134 q 383 118 383 99 l 383 99 q 383 95 378 90 q 373 84 366 78 q 358 72 350 67 q 341 62 334 61 l 334 61 q 312 78 297 110 q 282 141 271 180 q 259 219 252 262 q 245 304 240 345 q 234 385 229 420 q 224 454 218 475 l 218 475 q 214 508 226 530 q 237 552 256 564 q 275 575 299 578 q 323 581 345 578 l 345 578 q 369 578 402 575 q 434 572 463 563 q 492 553 513 536 q 533 519 533 491 l 533 491 q 536 449 527 419 q 517 389 501 369 q 485 348 464 336 q 443 323 424 317 q 404 310 388 308 q 372 306 365 306 l 365 306 q 365 304 366 303 l 366 303 q 367 302 368 301 l 368 301 q 435 283 499 260 q 562 237 625 211 l 625 211 q 641 249 646 289 q 650 329 641 367 l 641 367 q 641 413 620 463 q 599 513 564 556 q 529 598 483 625 q 436 652 383 652 l 383 652 q 317 652 266 618 q 215 584 181 533 q 147 481 129 421 q 111 361 111 310 m 292 452 l 292 452 q 292 444 291 432 q 289 419 290 407 q 291 394 295 383 q 298 371 308 363 l 308 363 q 309 362 310 362 l 310 362 q 310 361 314 361 l 314 361 q 370 365 401 379 q 432 393 445 411 q 457 429 454 449 q 451 468 438 484 q 425 500 405 510 q 384 520 363 519 q 342 517 323 502 q 303 486 292 452"},"¯":{"x_min":50,"x_max":372,"ha":420,"o":"m 50 583 l 50 583 q 50 586 51 595 q 52 603 52 605 l 52 605 q 77 605 117 608 q 156 611 198 614 q 239 616 278 616 q 316 616 339 612 l 339 612 q 357 612 365 608 q 372 604 372 580 l 372 580 q 342 561 306 553 q 269 544 232 541 q 194 538 159 540 q 123 541 95 540 l 95 540 q 68 538 59 551 q 50 564 50 583"},"°":{"x_min":15,"x_max":261,"ha":320,"o":"m 15 496 l 15 496 q 15 531 30 561 q 45 591 70 613 q 95 634 125 647 q 156 659 188 659 l 188 659 q 205 659 219 647 q 233 634 242 617 q 251 599 256 579 q 261 559 261 545 l 261 545 q 261 513 247 483 q 233 454 211 431 q 189 408 161 394 q 133 380 105 380 l 105 380 q 80 380 63 389 q 46 398 36 414 q 25 430 20 451 q 15 472 15 496 m 59 490 l 59 490 q 59 475 62 464 q 64 453 70 445 q 76 437 86 433 q 96 429 110 429 l 110 429 q 129 429 148 441 q 167 452 183 470 q 198 488 207 509 q 217 531 217 551 l 217 551 q 217 560 215 571 q 214 581 210 590 q 206 599 200 606 q 193 612 182 612 l 182 612 q 173 612 160 605 q 148 598 134 588 q 120 577 107 563 q 94 550 83 536 q 72 523 66 510 q 59 498 59 490"},"±":{"x_min":39,"x_max":632,"ha":663,"o":"m 85 80 l 85 80 q 85 106 103 113 q 120 120 152 118 q 184 116 230 111 q 276 105 333 107 l 333 107 q 319 128 310 153 q 300 178 293 204 q 286 229 282 253 q 277 277 276 294 l 276 294 l 62 337 q 59 337 51 346 q 42 354 40 358 l 40 358 q 40 360 40 363 l 40 363 q 39 365 39 369 l 39 369 q 39 373 40 375 l 40 375 q 40 378 40 380 l 40 380 q 44 384 52 392 q 60 400 62 400 l 62 400 l 276 400 q 283 453 293 508 q 303 563 319 616 l 319 616 l 341 616 q 346 614 353 611 q 360 607 367 604 q 373 600 378 597 q 383 594 383 593 l 383 593 l 383 392 q 400 392 427 398 q 453 404 477 405 q 501 405 518 396 q 535 386 535 355 l 535 355 q 535 337 524 329 q 513 320 496 316 q 479 312 460 311 q 440 309 423 306 q 406 302 395 295 q 383 288 383 273 l 383 273 q 383 249 392 231 q 400 212 411 195 q 422 177 432 159 q 441 140 443 118 l 443 118 q 470 118 496 120 q 522 122 544 125 q 566 127 583 128 q 600 129 608 128 l 608 128 q 617 128 622 121 q 626 114 629 104 q 631 94 632 82 q 632 69 632 58 l 632 58 q 612 45 572 37 q 532 29 482 25 q 432 21 377 20 q 322 18 272 19 q 222 19 183 20 q 144 20 125 20 l 125 20 q 112 19 104 25 q 95 30 91 40 q 87 49 86 60 q 85 70 85 80"},"²":{"x_min":12,"x_max":393,"ha":431,"o":"m 129 367 l 129 367 q 129 400 135 432 q 141 465 149 497 q 156 529 162 563 q 168 596 168 630 l 168 630 q 168 635 168 646 q 168 657 168 669 q 168 681 168 693 q 167 704 167 708 l 167 708 q 166 710 161 715 q 157 720 155 721 l 155 721 l 149 721 q 129 721 117 712 q 104 704 95 691 q 86 678 78 663 q 70 648 61 635 q 52 623 41 614 q 30 605 13 605 l 13 605 q 13 637 23 667 q 34 698 53 721 q 73 745 100 760 q 127 774 160 774 l 160 774 q 174 774 183 773 q 191 772 198 767 q 204 763 208 755 q 212 747 218 733 l 218 733 q 218 728 218 716 q 218 704 218 689 q 218 675 218 662 q 219 649 219 644 l 219 644 q 219 612 215 582 q 212 551 207 521 q 202 491 198 461 q 195 430 195 399 l 195 399 l 205 399 l 343 463 q 344 463 346 464 q 348 464 351 464 q 354 464 356 464 q 359 465 360 465 l 360 465 q 365 465 371 464 q 377 463 382 462 q 387 460 390 456 q 394 451 394 444 l 394 444 q 394 432 386 424 q 379 417 368 413 q 358 409 347 406 q 337 403 330 399 l 330 399 q 324 396 313 390 q 302 384 286 377 q 271 369 255 361 q 239 352 224 344 q 209 337 198 331 q 186 325 180 322 l 180 322 q 179 322 176 322 q 174 322 171 322 q 167 322 165 321 q 162 321 161 321 l 161 321 q 149 321 143 324 q 136 326 133 332 q 130 338 129 346 q 129 355 129 367"},"³":{"x_min":0,"x_max":324,"ha":332,"o":"m 173 307 l 173 307 q 173 308 174 314 q 175 319 175 320 l 175 320 q 189 331 206 348 q 224 365 239 385 q 254 405 264 427 q 274 449 274 471 l 274 471 q 274 473 274 474 q 274 475 274 476 l 274 476 q 274 477 274 478 l 274 478 q 271 481 266 486 q 261 492 255 498 q 249 505 244 510 q 238 516 237 518 l 237 518 q 235 518 234 519 l 234 519 q 233 519 232 519 q 231 519 230 519 l 230 519 q 219 519 204 510 q 190 500 176 488 q 162 476 151 465 q 140 455 137 452 l 137 452 q 136 451 134 451 l 134 451 q 133 450 130 450 l 130 450 q 128 450 128 451 l 128 451 q 126 451 125 452 l 125 452 q 122 453 117 458 q 112 463 112 466 l 112 466 l 112 471 l 112 478 q 117 494 125 517 q 133 540 141 566 q 149 592 155 617 q 161 643 161 663 l 161 663 q 161 678 160 693 q 159 707 154 719 q 150 731 141 737 q 132 744 117 744 l 117 744 q 97 744 81 732 q 66 720 55 702 q 45 684 40 663 q 35 642 38 624 l 38 624 l 13 624 q 12 624 10 631 q 9 637 7 645 q 5 653 3 662 q 1 671 0 677 l 0 677 l 0 690 q 0 711 12 731 q 23 750 41 765 q 58 780 78 789 q 98 797 115 797 l 115 797 q 142 797 160 787 q 177 777 189 761 q 200 744 206 723 q 211 701 213 677 q 215 654 213 630 q 212 605 211 584 l 211 584 q 235 580 255 572 q 276 564 291 551 q 307 537 316 518 q 325 498 325 471 l 325 471 q 325 455 320 436 q 314 416 305 394 q 295 373 283 353 q 270 332 256 316 q 241 300 225 290 q 209 280 193 280 l 193 280 q 182 280 177 288 q 173 297 173 307"},"´":{"x_min":161,"x_max":319,"ha":514,"o":"m 319 740 l 319 740 l 211 580 q 199 566 187 568 q 175 570 169 580 q 162 589 162 604 q 161 618 172 632 l 172 632 q 175 635 179 641 q 182 646 183 648 l 183 648 q 193 664 206 684 q 219 704 233 722 q 247 739 261 753 q 274 766 286 771 q 298 775 307 769 q 315 762 319 740"},"µ":{"x_min":19,"x_max":475,"ha":514,"o":"m 20 408 l 20 408 q 20 414 21 430 q 21 445 21 462 q 21 479 22 494 q 22 508 22 514 l 22 514 q 29 526 39 538 q 48 549 59 554 q 69 558 82 555 q 94 552 107 535 l 107 535 l 107 514 q 106 509 103 491 q 100 472 96 450 q 92 428 89 410 q 85 391 85 386 l 85 386 q 85 367 89 339 q 93 310 101 279 q 108 248 120 217 q 131 186 147 162 q 163 137 183 121 q 202 105 228 105 l 228 105 q 260 105 285 122 q 309 139 327 166 q 345 193 357 227 q 368 261 375 296 q 382 330 385 362 q 388 394 388 418 l 388 418 q 388 442 385 464 q 381 485 376 506 q 371 527 368 548 q 364 568 364 589 l 364 589 q 364 608 378 616 q 391 624 408 624 l 408 624 q 429 624 442 612 q 455 599 463 580 q 470 561 473 537 q 475 512 475 488 q 475 464 474 443 q 473 421 473 408 l 473 408 l 473 360 q 473 331 474 297 q 474 262 474 223 l 474 223 l 474 148 q 474 112 474 78 q 473 44 473 18 l 473 18 q 472 -17 456 -21 q 440 -25 409 -11 l 409 -11 q 404 -8 401 4 q 398 16 396 30 q 393 43 391 53 q 388 62 383 59 l 383 59 q 374 53 355 43 q 335 32 313 23 q 290 13 269 6 q 247 -2 236 -2 l 236 -2 q 202 -2 175 11 q 147 23 125 45 l 125 45 q 120 50 118 54 q 116 58 115 62 q 113 65 112 70 q 111 74 107 81 l 107 81 q 105 85 104 69 q 103 53 102 31 q 101 8 99 -14 q 96 -37 92 -48 l 92 -48 q 87 -60 79 -64 q 71 -68 63 -67 q 55 -66 48 -60 q 41 -55 40 -50 l 40 -50 q 32 -29 28 10 q 24 48 22 94 q 20 139 20 189 q 19 238 19 282 q 19 326 20 360 q 20 393 20 408"},"¶":{"x_min":32,"x_max":652,"ha":715,"o":"m 543 670 l 543 670 q 543 677 534 677 q 525 677 510 675 q 494 673 475 673 q 455 673 435 681 l 435 681 q 454 645 467 603 q 479 560 485 516 q 491 472 493 430 q 495 387 495 351 l 495 351 l 495 332 q 493 319 489 295 q 485 271 481 241 q 476 211 471 180 q 466 148 462 118 q 457 88 454 64 q 450 40 447 28 l 447 28 q 440 13 429 9 q 417 5 404 6 q 390 6 375 10 q 359 13 344 13 l 344 13 q 344 67 351 109 q 358 150 367 189 q 375 228 383 269 q 390 310 390 364 l 390 364 q 390 367 390 378 q 389 389 389 401 q 388 413 388 424 q 387 435 387 438 l 387 438 q 360 409 340 391 q 319 373 301 365 q 282 356 260 354 q 238 351 209 351 l 209 351 q 171 347 137 360 q 103 373 79 399 q 54 424 43 459 q 32 494 42 535 l 42 535 q 42 586 55 631 q 67 676 94 710 q 121 744 163 764 q 204 784 261 784 l 261 784 q 308 784 340 782 q 372 780 405 778 q 438 776 481 774 q 524 772 594 772 l 594 772 q 607 772 616 750 q 625 728 631 695 q 636 661 639 621 q 642 580 643 544 q 644 508 645 482 q 646 455 648 449 l 648 449 q 652 433 651 402 q 650 371 648 333 q 646 294 643 252 q 640 209 639 171 q 637 132 638 102 q 638 71 643 56 l 643 56 q 643 54 644 51 q 645 47 645 45 l 645 45 q 645 34 638 28 q 631 21 621 17 q 610 13 599 12 q 588 11 579 11 l 579 11 q 575 11 568 12 q 560 13 558 13 l 558 13 q 557 94 555 182 q 552 269 549 355 q 546 440 545 521 q 543 601 543 670"},"·":{"x_min":85,"x_max":239,"ha":310,"o":"m 85 270 l 85 270 q 85 286 98 300 q 110 314 127 325 q 144 335 163 341 q 182 347 194 347 l 194 347 q 223 347 231 330 q 239 313 239 287 l 239 287 q 239 268 231 254 q 223 240 210 232 q 196 223 178 219 q 160 215 141 215 l 141 215 q 138 215 135 216 l 135 216 q 132 216 130 217 l 130 217 q 127 218 121 224 q 114 229 108 236 q 101 243 95 250 q 89 256 87 259 l 87 259 q 86 261 86 264 l 86 264 q 85 266 85 270"},"¸":{"x_min":85,"x_max":434,"ha":493,"o":"m 166 -364 l 166 -364 q 181 -353 204 -338 q 227 -324 251 -308 q 274 -293 296 -276 q 318 -260 330 -245 q 342 -230 343 -215 q 343 -200 324 -188 l 324 -188 q 276 -188 234 -190 q 191 -193 159 -181 q 126 -170 107 -137 q 87 -104 87 -33 l 87 -33 q 85 6 93 25 q 101 43 114 46 q 126 49 140 40 q 154 31 165 18 q 175 4 179 -10 q 182 -25 174 -35 l 174 -35 q 174 -67 185 -82 q 196 -98 214 -104 q 232 -110 256 -109 q 279 -108 304 -106 q 328 -104 352 -104 q 375 -105 393 -113 q 411 -122 423 -142 q 434 -162 434 -199 l 434 -199 q 434 -223 410 -258 q 386 -294 351 -328 q 315 -362 274 -386 q 233 -410 200 -410 l 200 -410 q 179 -410 173 -395 q 166 -380 166 -364"},"¹":{"x_min":25,"x_max":173,"ha":184,"o":"m 26 656 l 26 656 q 26 662 26 674 q 26 687 29 699 q 32 712 40 721 q 47 730 63 730 l 63 730 q 72 730 77 719 q 83 708 87 692 q 91 676 92 656 q 94 636 95 618 q 96 601 97 588 q 97 575 99 572 l 99 572 q 101 564 107 548 q 112 533 119 513 q 126 493 134 472 q 142 450 149 431 q 156 411 162 395 q 169 380 172 373 l 172 373 q 172 372 173 370 q 173 368 173 367 l 173 367 q 173 362 168 358 q 163 355 156 353 q 149 352 141 351 q 134 351 128 351 l 128 351 q 125 351 120 351 q 115 352 114 352 l 114 352 q 99 386 83 424 q 68 462 55 501 q 42 540 34 580 q 26 619 26 656"},"º":{"x_min":16,"x_max":335,"ha":383,"o":"m 16 456 l 16 456 q 16 499 36 536 q 55 574 87 601 q 119 628 159 643 q 199 658 240 658 l 240 658 q 263 658 281 643 q 299 628 311 606 q 323 584 329 559 q 336 535 336 517 l 336 517 q 336 477 318 441 q 300 404 271 376 q 242 348 205 330 q 169 313 133 313 l 133 313 q 101 313 78 324 q 56 336 43 355 q 29 374 23 400 q 16 426 16 456 m 74 449 l 74 449 q 74 431 77 417 q 80 403 87 394 q 95 384 108 379 q 121 373 140 373 l 140 373 q 164 373 189 388 q 214 402 234 424 q 254 446 266 473 q 278 499 278 524 l 278 524 q 278 535 276 549 q 274 562 269 573 q 265 584 256 592 q 247 600 234 600 l 234 600 q 222 600 205 591 q 189 583 171 570 q 153 556 136 540 q 119 523 105 506 q 90 489 82 474 q 74 459 74 449"},"»":{"x_min":16,"x_max":709,"ha":763,"o":"m 85 43 l 85 43 q 85 59 99 85 q 113 111 135 141 q 157 170 183 202 q 208 233 232 262 q 256 290 274 312 q 292 333 300 343 l 300 343 q 300 345 301 349 q 302 352 302 354 l 302 354 l 301 359 q 300 361 300 364 l 300 364 q 298 368 290 376 q 282 384 278 386 l 278 386 q 272 390 254 401 q 236 412 212 428 q 188 444 161 461 q 133 478 109 494 q 85 509 67 521 q 49 532 42 535 l 42 535 q 27 545 22 556 q 16 567 16 585 l 16 585 q 43 585 87 577 q 130 568 178 554 q 226 539 275 519 q 324 499 363 476 q 402 452 427 426 q 452 400 452 375 l 452 375 q 452 373 451 370 q 450 366 450 364 l 450 364 l 423 331 q 405 310 382 282 q 359 254 334 224 q 308 193 285 166 q 261 139 242 117 q 223 95 214 85 l 214 85 q 199 68 190 56 q 181 44 174 36 q 166 28 157 24 q 147 20 130 20 l 130 20 q 126 20 119 21 q 111 21 104 23 q 96 25 91 30 q 85 34 85 43 m 344 84 l 344 84 q 344 100 358 126 q 372 151 394 181 q 415 211 441 243 q 466 274 490 302 q 514 330 533 352 q 551 373 558 383 l 558 383 q 558 385 560 389 q 561 392 561 394 l 561 394 q 561 395 559 400 l 559 400 q 558 403 558 405 l 558 405 q 556 409 548 417 q 540 425 536 427 l 536 427 q 530 430 512 442 q 494 453 470 469 q 445 484 418 501 q 391 518 367 534 q 343 550 325 561 q 306 572 301 576 l 301 576 q 284 586 279 597 q 274 607 274 625 l 274 625 q 302 625 345 617 q 388 608 436 594 q 484 580 533 560 q 581 539 621 516 q 660 493 685 468 q 709 442 709 416 l 709 416 q 709 414 708 411 q 707 407 707 405 l 707 405 q 699 394 681 372 q 662 350 639 323 q 616 295 591 265 q 565 234 542 207 q 518 179 500 158 q 481 136 472 126 l 472 126 q 456 109 447 97 q 438 85 431 77 q 423 68 414 64 q 405 60 389 60 l 389 60 q 384 60 377 61 q 369 61 362 64 q 355 66 350 71 q 344 75 344 84"},"¼":{"x_min":18,"x_max":817,"ha":837,"o":"m 18 700 l 18 700 q 18 709 18 725 q 18 741 22 756 q 25 772 33 784 q 41 796 57 796 l 57 796 q 67 796 73 782 q 79 768 83 747 q 86 726 88 701 q 90 675 91 653 q 92 630 93 614 q 94 597 95 593 l 95 593 q 97 583 103 563 q 109 543 116 518 q 123 493 132 465 q 140 438 148 413 q 155 388 162 367 q 168 347 172 339 l 172 339 q 172 337 172 335 q 173 332 173 331 l 173 331 q 173 324 168 320 q 162 316 155 314 q 148 312 140 311 q 132 311 126 311 l 126 311 q 123 311 117 311 q 112 312 111 312 l 111 312 q 96 356 79 404 q 62 453 49 503 q 35 553 27 603 q 18 654 18 700 m 196 73 l 196 73 q 197 82 201 104 q 205 125 209 150 q 213 175 216 196 q 220 217 221 226 l 221 226 q 228 259 240 319 q 252 379 270 447 q 287 515 310 585 q 333 654 361 707 q 389 759 422 787 q 455 815 493 800 l 493 800 q 481 733 463 673 q 444 613 423 556 q 402 499 380 442 q 357 386 337 328 q 316 270 299 207 q 282 145 273 73 l 273 73 q 268 38 256 33 q 244 28 228 34 l 228 34 q 217 37 208 44 q 198 52 196 73 m 599 192 l 377 192 q 377 217 387 253 q 397 288 415 326 q 434 364 459 402 q 483 439 512 469 q 541 499 574 518 q 606 537 638 537 l 638 537 q 645 537 657 536 q 669 536 681 534 q 692 532 701 528 q 710 523 710 514 l 710 514 q 710 513 708 510 l 708 510 q 708 508 708 507 l 708 507 q 706 505 702 500 q 698 496 693 492 q 689 487 684 483 q 679 479 677 478 l 677 478 q 677 473 677 462 q 676 450 676 437 q 676 424 676 412 q 676 400 676 395 l 676 395 q 676 374 675 355 q 675 336 676 317 q 678 298 681 279 q 684 261 692 241 l 692 241 q 694 241 698 241 q 703 240 708 240 q 713 240 717 240 q 721 240 724 240 l 724 240 q 733 240 742 240 q 752 240 760 243 q 769 245 775 251 q 782 257 786 269 l 786 269 q 808 261 813 249 q 818 238 818 221 l 818 221 q 818 202 808 192 q 799 182 783 177 q 768 172 748 172 q 728 172 708 171 l 708 171 q 710 165 715 149 q 719 133 724 115 q 729 97 733 81 q 737 65 739 59 l 739 59 q 739 58 740 52 q 740 46 740 43 l 740 43 q 740 25 729 21 q 718 16 700 16 l 700 16 q 697 16 688 16 q 679 17 677 17 l 677 17 q 676 25 671 43 q 667 61 662 81 q 658 101 652 118 q 647 136 645 143 l 645 143 q 643 148 639 157 q 634 165 628 173 q 622 181 614 186 q 607 192 599 192 l 599 192 m 599 450 l 599 450 q 576 436 551 413 q 526 390 505 364 q 483 337 470 308 q 456 280 456 255 l 456 255 l 615 255 q 615 275 613 305 q 611 334 609 363 q 606 392 603 417 q 599 441 599 450"},"½":{"x_min":84,"x_max":755,"ha":793,"o":"m 85 670 l 85 670 q 85 678 85 694 q 85 710 88 726 q 92 743 99 755 q 107 767 123 767 l 123 767 q 132 767 138 752 q 144 738 148 717 q 152 696 153 670 q 155 644 156 621 q 157 598 158 582 q 158 565 160 561 l 160 561 q 162 551 168 530 q 174 510 181 484 q 188 459 196 431 q 204 403 212 377 q 219 352 225 332 q 231 311 235 302 l 235 302 q 235 301 236 298 q 236 296 236 295 l 236 295 q 236 288 231 284 q 226 279 219 277 q 211 275 204 274 q 196 274 190 274 l 190 274 q 187 274 182 274 q 177 275 175 275 l 175 275 q 161 319 144 369 q 128 418 115 469 q 102 520 93 571 q 85 622 85 670 m 213 17 l 213 17 q 214 26 217 48 q 220 70 222 95 q 225 120 227 142 q 230 163 231 172 l 231 172 q 235 206 243 267 q 252 328 264 397 q 276 466 291 537 q 307 608 326 661 q 345 714 368 743 q 390 771 416 756 l 416 756 q 408 687 395 627 q 382 566 368 508 q 354 449 339 392 q 323 335 309 276 q 295 217 284 153 q 272 89 266 17 l 266 17 q 263 -19 254 -24 q 246 -30 236 -24 l 236 -24 q 228 -20 221 -12 q 215 -5 213 17 m 478 102 l 478 102 q 478 138 485 172 q 491 207 499 241 q 507 276 514 312 q 520 348 520 384 l 520 384 q 520 389 520 401 q 519 413 519 426 q 519 439 519 451 q 519 463 519 467 l 519 467 q 518 470 513 475 q 508 480 506 481 l 506 481 l 499 481 q 479 481 466 472 q 452 463 443 449 q 433 436 425 419 q 417 403 408 389 q 398 376 387 367 q 375 357 357 357 l 357 357 q 357 391 368 424 q 379 456 399 482 q 420 507 448 523 q 477 538 511 538 l 511 538 q 525 538 535 537 q 544 535 551 531 q 557 526 562 518 q 566 509 571 494 l 571 494 q 571 489 571 476 q 571 463 572 447 q 572 432 572 418 q 573 404 573 399 l 573 399 q 573 365 569 332 q 565 299 560 267 q 555 235 551 202 q 547 170 547 137 l 547 137 l 558 137 l 703 205 q 703 205 705 206 q 707 206 711 206 q 714 206 716 206 q 719 207 720 207 l 720 207 q 726 207 732 206 q 738 205 743 203 q 748 202 752 197 q 756 193 756 185 l 756 185 q 756 171 748 164 q 740 156 729 151 q 718 147 707 144 q 696 140 689 137 l 689 137 q 683 133 671 127 q 659 120 643 112 q 627 104 610 95 q 593 86 578 78 q 563 70 551 63 q 538 57 532 54 l 532 54 q 531 54 528 54 q 525 54 522 54 q 519 54 516 53 q 513 53 512 53 l 512 53 q 500 53 493 56 q 486 59 483 65 q 480 71 479 80 q 478 89 478 102"},"¾":{"x_min":0,"x_max":890,"ha":948,"o":"m 179 379 l 179 379 q 179 381 180 385 q 181 390 181 392 l 181 392 q 195 401 213 417 q 231 433 247 452 q 263 471 273 491 q 284 512 284 533 l 284 533 q 284 534 283 535 q 283 537 283 538 l 283 538 q 283 538 283 539 l 283 539 q 281 542 275 547 q 270 553 264 558 q 258 564 252 569 q 246 575 245 577 l 245 577 q 243 577 242 578 l 242 578 q 240 578 240 578 q 239 578 237 578 l 237 578 q 226 578 211 569 q 196 560 182 549 q 167 538 156 528 q 145 517 142 515 l 142 515 q 140 514 139 514 l 139 514 q 137 513 135 513 l 135 513 q 133 513 132 514 l 132 514 q 130 514 129 515 l 129 515 q 127 516 121 521 q 116 526 116 528 l 116 528 l 116 533 l 116 539 q 121 554 129 576 q 137 598 146 622 q 154 646 160 670 q 167 694 167 713 l 167 713 q 167 727 166 740 q 164 754 160 765 q 155 776 146 782 q 137 788 121 788 l 121 788 q 100 788 84 777 q 68 766 57 749 q 46 732 41 712 q 37 693 39 676 l 39 676 l 13 676 q 13 676 11 682 q 9 688 7 696 q 5 703 3 712 q 1 720 0 725 l 0 725 l 0 738 q 0 758 12 776 q 24 794 42 808 q 60 822 81 830 q 101 838 119 838 l 119 838 q 147 838 165 829 q 183 820 195 804 q 207 788 213 768 q 218 748 220 726 q 222 704 221 681 q 219 658 218 639 l 218 639 q 243 635 264 627 q 285 620 301 607 q 317 595 327 577 q 336 558 336 532 l 336 532 q 336 518 330 500 q 325 481 315 461 q 305 441 292 422 q 279 403 264 388 q 249 372 233 363 q 216 354 199 354 l 199 354 q 188 354 183 362 q 179 370 179 379 m 320 60 l 320 60 q 322 69 325 92 q 328 115 331 142 q 334 168 337 191 q 339 213 341 222 l 341 222 q 346 258 355 322 q 365 386 379 458 q 393 531 411 605 q 429 679 452 735 q 474 791 500 821 q 526 851 556 835 l 556 835 q 547 763 532 699 q 517 636 500 574 q 483 513 466 453 q 448 393 432 332 q 416 270 402 203 q 389 136 381 60 l 381 60 q 378 22 368 17 q 359 11 346 17 l 346 17 q 337 21 330 29 q 322 37 320 60 m 678 181 l 461 181 q 461 206 471 242 q 481 277 499 315 q 517 353 541 391 q 565 428 593 458 q 621 488 653 507 q 684 526 715 526 l 715 526 q 723 526 734 525 q 746 525 757 523 q 769 521 777 517 q 786 512 786 503 l 786 503 q 786 502 784 499 l 784 499 q 783 497 783 496 l 783 496 q 782 494 778 489 q 774 485 770 481 q 765 476 760 472 q 755 468 754 467 l 754 467 q 754 462 753 451 q 753 439 753 426 q 753 413 753 401 q 752 389 752 384 l 752 384 q 752 363 752 344 q 752 325 753 306 q 754 287 758 268 q 761 250 768 230 l 768 230 q 770 230 774 230 q 778 229 783 229 q 788 229 793 229 q 797 229 799 229 l 799 229 q 808 229 817 229 q 827 229 835 232 q 843 234 849 240 q 856 246 860 258 l 860 258 q 882 250 886 238 q 891 227 891 210 l 891 210 q 891 191 882 181 q 873 171 857 166 q 842 161 823 161 q 803 161 783 160 l 783 160 q 786 154 790 138 q 795 122 800 104 q 805 86 809 70 q 812 54 814 48 l 814 48 q 814 47 815 41 q 815 35 815 32 l 815 32 q 815 14 805 10 q 794 5 776 5 l 776 5 q 774 5 765 5 q 756 6 754 6 l 754 6 q 752 14 748 32 q 744 50 739 70 q 735 90 730 107 q 725 125 723 132 l 723 132 q 720 137 716 146 q 712 154 706 162 q 700 170 692 175 q 685 181 678 181 l 678 181 m 678 439 l 678 439 q 655 425 631 402 q 607 379 586 353 q 565 326 551 297 q 538 269 538 244 l 538 244 l 694 244 q 694 264 691 294 q 689 323 687 352 q 684 381 681 406 q 678 430 678 439"},"¿":{"x_min":35,"x_max":441,"ha":447,"o":"m 196 764 l 196 764 q 196 753 185 738 q 174 723 158 711 q 143 698 125 690 q 107 681 91 681 l 91 681 q 88 681 78 689 q 67 697 62 702 l 62 702 q 60 705 56 711 q 51 718 47 724 q 43 731 40 737 q 38 742 38 743 l 38 743 q 38 761 44 771 q 50 780 60 783 q 70 787 83 787 q 96 787 111 787 l 111 787 q 115 787 129 787 q 143 788 158 786 q 174 785 185 780 q 196 776 196 764 m 278 389 l 278 389 q 278 354 261 323 q 243 292 222 263 q 202 234 184 204 q 166 173 166 138 l 166 138 q 166 125 175 114 q 185 103 198 95 q 212 87 229 82 q 246 77 262 77 l 262 77 q 286 77 306 87 q 327 96 344 109 q 361 123 377 137 q 392 152 407 161 l 407 161 q 409 163 424 165 q 438 167 441 167 l 441 167 q 441 129 428 97 q 415 65 390 42 q 364 19 325 6 q 286 -8 236 -8 l 236 -8 q 202 -8 165 5 q 129 18 101 39 q 72 59 54 86 q 35 112 35 140 l 35 140 q 35 175 47 204 q 59 232 75 257 q 91 282 108 305 q 125 328 138 354 q 150 379 153 407 q 155 436 143 473 l 143 473 q 145 476 153 479 q 160 483 168 486 q 176 489 184 491 q 192 494 196 494 l 196 494 q 223 494 239 483 q 255 472 264 456 q 274 440 276 422 q 278 403 278 389"},"À":{"x_min":15,"x_max":645,"ha":686,"o":"m 236 878 l 236 878 q 242 896 254 899 q 265 902 280 902 l 280 902 q 303 902 332 872 q 360 841 390 790 q 420 739 451 673 q 481 607 510 537 q 538 466 563 396 q 588 326 607 268 q 625 209 635 166 q 645 123 645 107 l 645 107 q 645 91 638 77 q 630 62 611 62 l 611 62 q 599 62 591 70 q 582 77 576 88 q 570 99 565 110 q 560 121 556 129 l 556 129 q 552 140 540 171 q 527 202 514 236 q 500 270 488 300 q 476 330 471 343 l 471 343 q 401 355 331 366 q 260 376 182 386 l 182 386 l 171 386 q 135 231 108 141 q 80 51 62 13 q 43 -25 33 -18 q 22 -12 19 28 q 15 67 20 133 q 24 199 37 279 q 49 358 67 445 q 85 532 111 613 q 136 694 168 764 q 199 833 236 878 m 212 526 l 212 526 q 212 489 236 472 q 260 454 294 449 q 328 444 366 445 q 403 446 430 446 l 430 446 q 430 486 417 533 q 404 579 384 625 q 364 671 342 715 q 319 758 300 793 l 300 793 q 289 782 277 753 q 264 723 252 687 q 239 650 229 615 q 219 580 214 558 l 214 558 q 214 555 213 543 q 212 530 212 526 m 329 934 l 221 1082 q 225 1102 234 1108 q 243 1113 255 1109 q 266 1105 280 1093 q 293 1080 307 1064 q 321 1048 334 1030 q 347 1012 357 996 l 357 996 q 358 995 362 990 q 365 985 368 982 l 368 982 q 379 969 379 956 q 378 942 372 933 q 365 924 353 923 q 340 922 329 934 l 329 934"},"Á":{"x_min":15,"x_max":645,"ha":686,"o":"m 236 878 l 236 878 q 242 896 254 899 q 265 902 280 902 l 280 902 q 303 902 332 872 q 360 841 390 790 q 420 739 451 673 q 481 607 510 537 q 538 466 563 396 q 588 326 607 268 q 625 209 635 166 q 645 123 645 107 l 645 107 q 645 91 638 77 q 630 62 611 62 l 611 62 q 599 62 591 70 q 582 77 576 88 q 570 99 565 110 q 560 121 556 129 l 556 129 q 552 140 540 171 q 527 202 514 236 q 500 270 488 300 q 476 330 471 343 l 471 343 q 401 355 331 366 q 260 376 182 386 l 182 386 l 171 386 q 135 231 108 141 q 80 51 62 13 q 43 -25 33 -18 q 22 -12 19 28 q 15 67 20 133 q 24 199 37 279 q 49 358 67 445 q 85 532 111 613 q 136 694 168 764 q 199 833 236 878 m 212 526 l 212 526 q 212 489 236 472 q 260 454 294 449 q 328 444 366 445 q 403 446 430 446 l 430 446 q 430 486 417 533 q 404 579 384 625 q 364 671 342 715 q 319 758 300 793 l 300 793 q 289 782 277 753 q 264 723 252 687 q 239 650 229 615 q 219 580 214 558 l 214 558 q 214 555 213 543 q 212 530 212 526 m 341 1117 l 341 1117 l 233 957 q 221 943 209 945 q 197 947 191 957 q 184 966 184 981 q 183 995 194 1009 l 194 1009 q 197 1012 201 1018 q 204 1023 205 1025 l 205 1025 q 215 1041 228 1061 q 241 1081 255 1099 q 269 1116 283 1130 q 296 1143 308 1148 q 320 1152 329 1146 q 337 1139 341 1117"},"Â":{"x_min":15,"x_max":645,"ha":686,"o":"m 236 878 l 236 878 q 242 896 254 899 q 265 902 280 902 l 280 902 q 303 902 332 872 q 360 841 390 790 q 420 739 451 673 q 481 607 510 537 q 538 466 563 396 q 588 326 607 268 q 625 209 635 166 q 645 123 645 107 l 645 107 q 645 91 638 77 q 630 62 611 62 l 611 62 q 599 62 591 70 q 582 77 576 88 q 570 99 565 110 q 560 121 556 129 l 556 129 q 552 140 540 171 q 527 202 514 236 q 500 270 488 300 q 476 330 471 343 l 471 343 q 401 355 331 366 q 260 376 182 386 l 182 386 l 171 386 q 135 231 108 141 q 80 51 62 13 q 43 -25 33 -18 q 22 -12 19 28 q 15 67 20 133 q 24 199 37 279 q 49 358 67 445 q 85 532 111 613 q 136 694 168 764 q 199 833 236 878 m 212 526 l 212 526 q 212 489 236 472 q 260 454 294 449 q 328 444 366 445 q 403 446 430 446 l 430 446 q 430 486 417 533 q 404 579 384 625 q 364 671 342 715 q 319 758 300 793 l 300 793 q 289 782 277 753 q 264 723 252 687 q 239 650 229 615 q 219 580 214 558 l 214 558 q 214 555 213 543 q 212 530 212 526 m 258 1274 l 258 1274 q 278 1263 299 1242 q 320 1221 342 1195 q 363 1168 384 1139 q 404 1109 423 1082 q 442 1055 459 1032 q 475 1009 486 997 l 486 997 q 485 995 480 989 q 475 983 468 977 q 461 970 454 963 q 447 956 443 953 l 443 953 q 440 953 439 953 l 439 953 q 436 952 433 952 l 433 952 q 429 952 426 953 l 426 953 q 423 953 422 953 l 422 953 q 392 973 376 1001 q 360 1028 346 1053 q 332 1077 314 1094 q 296 1111 263 1111 l 263 1111 q 242 1060 230 1028 q 218 996 210 978 q 202 960 195 953 q 188 945 177 944 q 165 943 146 945 q 126 947 94 947 l 94 947 q 94 966 101 995 q 107 1024 119 1057 q 130 1090 146 1125 q 161 1160 179 1190 q 197 1220 218 1243 q 238 1265 258 1274"},"Ã":{"x_min":15,"x_max":645,"ha":686,"o":"m 236 878 l 236 878 q 242 896 254 899 q 265 902 280 902 l 280 902 q 303 902 332 872 q 360 841 390 790 q 420 739 451 673 q 481 607 510 537 q 538 466 563 396 q 588 326 607 268 q 625 209 635 166 q 645 123 645 107 l 645 107 q 645 91 638 77 q 630 62 611 62 l 611 62 q 599 62 591 70 q 582 77 576 88 q 570 99 565 110 q 560 121 556 129 l 556 129 q 552 140 540 171 q 527 202 514 236 q 500 270 488 300 q 476 330 471 343 l 471 343 q 401 355 331 366 q 260 376 182 386 l 182 386 l 171 386 q 135 231 108 141 q 80 51 62 13 q 43 -25 33 -18 q 22 -12 19 28 q 15 67 20 133 q 24 199 37 279 q 49 358 67 445 q 85 532 111 613 q 136 694 168 764 q 199 833 236 878 m 212 526 l 212 526 q 212 489 236 472 q 260 454 294 449 q 328 444 366 445 q 403 446 430 446 l 430 446 q 430 486 417 533 q 404 579 384 625 q 364 671 342 715 q 319 758 300 793 l 300 793 q 289 782 277 753 q 264 723 252 687 q 239 650 229 615 q 219 580 214 558 l 214 558 q 214 555 213 543 q 212 530 212 526 m 60 985 l 60 985 q 60 1018 66 1055 q 72 1091 88 1122 q 104 1152 133 1172 q 161 1192 206 1192 l 206 1192 q 238 1192 262 1178 q 285 1163 304 1142 q 322 1120 338 1095 q 354 1069 372 1047 q 390 1025 412 1011 q 433 997 462 997 l 462 997 q 496 997 512 1007 q 527 1017 532 1034 q 537 1050 536 1070 q 534 1090 534 1110 q 534 1129 539 1145 q 543 1160 560 1169 l 560 1169 l 580 1169 q 583 1168 590 1166 q 596 1163 603 1160 q 609 1157 616 1154 q 622 1150 624 1149 l 624 1149 q 624 1145 625 1138 q 625 1130 625 1122 q 625 1113 626 1105 q 626 1097 626 1095 l 626 1095 q 626 1007 580 958 q 534 908 448 908 l 448 908 q 415 908 391 921 q 367 934 349 954 q 330 974 315 998 q 300 1021 284 1041 q 268 1060 250 1074 q 231 1087 206 1087 l 206 1087 q 174 1087 161 1075 q 147 1062 142 1043 q 137 1024 137 1001 q 137 978 134 956 q 131 934 122 917 q 112 899 89 891 l 89 891 l 66 912 q 66 915 65 925 q 64 934 63 944 l 63 944 l 61 967 q 60 979 60 985"},"Ä":{"x_min":15,"x_max":645,"ha":686,"o":"m 236 878 l 236 878 q 242 896 254 899 q 265 902 280 902 l 280 902 q 303 902 332 872 q 360 841 390 790 q 420 739 451 673 q 481 607 510 537 q 538 466 563 396 q 588 326 607 268 q 625 209 635 166 q 645 123 645 107 l 645 107 q 645 91 638 77 q 630 62 611 62 l 611 62 q 599 62 591 70 q 582 77 576 88 q 570 99 565 110 q 560 121 556 129 l 556 129 q 552 140 540 171 q 527 202 514 236 q 500 270 488 300 q 476 330 471 343 l 471 343 q 401 355 331 366 q 260 376 182 386 l 182 386 l 171 386 q 135 231 108 141 q 80 51 62 13 q 43 -25 33 -18 q 22 -12 19 28 q 15 67 20 133 q 24 199 37 279 q 49 358 67 445 q 85 532 111 613 q 136 694 168 764 q 199 833 236 878 m 212 526 l 212 526 q 212 489 236 472 q 260 454 294 449 q 328 444 366 445 q 403 446 430 446 l 430 446 q 430 486 417 533 q 404 579 384 625 q 364 671 342 715 q 319 758 300 793 l 300 793 q 289 782 277 753 q 264 723 252 687 q 239 650 229 615 q 219 580 214 558 l 214 558 q 214 555 213 543 q 212 530 212 526 m 171 1077 l 171 1077 q 216 1077 216 1030 l 216 1030 q 205 1001 189 991 q 172 981 157 984 q 142 987 131 999 q 119 1011 118 1026 q 117 1041 129 1056 q 141 1070 171 1077 m 398 1077 l 398 1077 q 443 1077 443 1030 l 443 1030 q 431 1001 415 991 q 399 981 384 984 q 368 987 357 999 q 346 1011 345 1026 q 344 1041 356 1056 q 367 1070 398 1077"},"Å":{"x_min":15,"x_max":645,"ha":686,"o":"m 148 985 l 148 985 q 148 1020 166 1050 q 183 1079 211 1101 q 239 1122 276 1135 q 312 1147 349 1147 l 349 1147 q 369 1147 385 1135 q 401 1122 412 1105 q 423 1087 429 1068 q 435 1048 435 1032 l 435 1032 q 435 1001 419 972 q 402 942 376 919 l 376 919 q 351 896 319 883 l 319 883 q 325 877 331 871 l 331 871 q 360 841 390 790 q 420 739 451 673 q 481 607 510 537 q 538 466 563 396 q 588 326 607 268 q 625 209 635 166 q 645 123 645 107 l 645 107 q 645 91 638 77 q 630 62 611 62 l 611 62 q 599 62 591 70 q 582 77 576 88 q 570 99 565 110 q 560 121 556 129 l 556 129 q 552 140 540 171 q 527 202 514 236 q 500 270 488 300 q 476 330 471 343 l 471 343 q 401 355 331 366 q 260 376 182 386 l 182 386 l 171 386 q 135 231 108 141 q 80 51 62 13 q 43 -25 33 -18 q 22 -12 19 28 q 15 67 20 133 q 24 199 37 279 q 49 358 67 445 q 85 532 111 613 q 136 694 167 763 l 167 763 q 195 827 229 869 l 229 869 q 214 872 203 877 l 203 877 q 184 886 171 902 q 158 918 153 939 q 148 960 148 985 m 212 526 l 212 526 q 212 489 236 472 q 260 454 294 449 q 328 444 366 445 q 403 446 430 446 l 430 446 q 430 486 417 533 q 404 579 384 625 q 364 671 342 715 q 319 758 300 793 l 300 793 q 289 782 277 753 q 264 723 252 687 q 239 650 229 615 q 219 580 214 558 l 214 558 q 214 555 213 543 q 212 530 212 526 m 222 983 l 222 983 q 222 968 223 958 q 224 948 228 941 q 232 934 242 931 q 251 927 269 927 l 269 927 q 313 927 340 952 q 367 976 367 1016 l 367 1016 q 367 1025 365 1037 q 363 1049 359 1061 q 354 1072 346 1080 q 337 1087 325 1087 l 325 1087 q 309 1087 291 1076 q 273 1064 258 1047 q 242 1030 232 1012 q 222 994 222 983"},"Æ":{"x_min":30,"x_max":897,"ha":935,"o":"m 250 883 l 250 883 q 281 905 307 893 q 333 881 356 843 l 356 843 q 372 850 388 854 q 404 858 414 859 l 414 859 l 435 859 q 459 857 493 853 q 526 849 562 844 q 598 838 633 833 q 668 828 697 824 q 726 819 746 816 q 765 813 769 813 l 769 813 q 778 812 791 809 q 803 806 816 801 q 828 796 839 788 q 850 780 855 769 l 855 769 q 847 753 841 745 q 835 736 829 732 q 822 728 814 728 q 806 727 796 727 l 796 727 q 753 727 711 730 l 711 730 l 542 742 q 499 746 456 746 l 456 746 q 456 727 452 692 q 447 656 445 616 q 443 576 447 537 q 451 497 469 470 l 469 470 q 504 490 542 492 q 580 493 619 493 l 619 493 l 662 493 q 688 493 713 487 q 737 481 754 467 q 771 453 771 425 l 771 425 q 771 405 763 395 q 755 384 726 384 l 726 384 q 724 384 715 388 q 705 391 694 395 q 683 399 674 403 q 665 406 662 406 l 662 406 q 661 406 655 407 q 648 407 639 407 q 630 407 622 408 q 613 408 608 408 l 608 408 q 585 408 564 405 q 543 401 527 392 q 510 382 501 365 q 491 348 491 321 l 491 321 q 491 311 493 290 q 495 269 499 243 q 502 216 509 188 q 515 159 525 136 q 535 112 548 97 q 560 82 577 82 l 577 82 q 580 82 589 83 q 597 84 598 84 l 598 84 q 631 106 666 134 q 700 161 738 185 q 775 208 815 224 q 854 240 897 240 l 897 240 l 897 192 q 897 187 878 170 q 859 152 828 128 q 796 103 757 76 q 718 49 679 27 q 640 4 605 -10 q 569 -25 544 -25 l 544 -25 q 508 -25 480 10 q 452 44 431 101 l 431 101 q 431 76 430 54 q 429 31 427 13 l 427 13 q 404 13 389 18 q 374 22 367 38 l 367 38 q 364 46 364 70 q 364 93 367 124 q 369 155 372 190 q 375 225 378 257 q 380 288 380 312 q 380 335 377 343 l 377 343 q 342 348 324 355 q 306 361 291 367 q 275 373 255 379 q 234 385 195 391 l 195 391 l 185 391 q 149 236 122 146 q 94 56 76 18 q 57 -21 47 -14 q 36 -7 33 33 q 30 72 35 138 q 39 203 51 283 q 62 363 81 450 q 100 536 125 617 q 149 698 181 768 q 212 838 250 883 m 228 562 l 228 562 q 206 533 207 511 q 208 489 225 475 q 242 461 272 454 q 301 446 337 446 l 337 446 q 337 486 339 533 q 341 580 340 628 q 339 675 332 720 q 324 764 305 799 l 305 799 q 294 788 283 758 q 272 728 261 692 q 250 655 241 620 q 232 584 228 562"},"Ç":{"x_min":20,"x_max":621,"ha":643,"o":"m 287 -344 l 287 -344 q 302 -333 325 -318 q 348 -304 372 -289 q 396 -274 418 -257 q 439 -240 451 -225 q 463 -210 464 -195 q 464 -180 445 -168 l 445 -168 q 398 -168 355 -170 q 312 -173 280 -161 q 247 -150 228 -117 q 209 -84 209 -14 l 209 -14 q 206 16 211 34 l 211 34 q 163 57 125 92 l 125 92 q 76 137 48 201 q 20 264 20 343 l 20 343 q 20 377 30 417 q 39 457 56 498 q 73 538 97 577 q 121 615 151 645 q 181 674 216 692 q 251 709 290 709 l 290 709 q 322 709 350 701 q 378 692 398 675 q 418 658 430 633 q 441 607 441 572 l 441 572 q 419 572 406 584 q 392 595 381 609 q 369 623 356 634 q 342 645 321 645 l 321 645 q 290 645 262 629 q 233 613 209 586 q 184 559 166 525 q 147 491 134 457 q 120 422 113 389 q 105 356 105 332 l 105 332 q 105 280 121 235 q 136 189 165 156 q 194 122 237 103 q 280 84 335 84 l 335 84 q 370 84 402 95 q 433 105 463 118 q 492 130 521 141 q 550 152 579 152 l 579 152 q 583 152 591 152 q 598 151 605 149 q 611 147 616 143 q 621 138 621 129 l 621 129 q 621 93 594 68 q 566 43 528 28 q 490 12 449 5 q 408 -2 382 -2 l 382 -2 q 339 -2 301 5 l 301 5 q 302 -6 295 -15 l 295 -15 q 295 -47 307 -62 q 318 -78 336 -84 q 354 -90 377 -89 q 400 -88 425 -86 q 450 -85 474 -85 q 497 -86 515 -94 q 533 -103 544 -122 q 555 -142 555 -179 l 555 -179 q 555 -203 532 -239 q 508 -275 472 -308 q 436 -342 396 -366 q 355 -390 321 -390 l 321 -390 q 301 -390 294 -375 q 287 -360 287 -344"},"È":{"x_min":-2,"x_max":621,"ha":664,"o":"m 65 793 l 65 793 q 60 793 51 796 q 41 798 31 802 q 21 805 12 809 q 3 812 0 814 l 0 814 q -1 816 -1 818 l -1 818 q -2 820 -2 823 l -2 823 q -2 837 9 847 q 20 857 35 864 q 49 870 63 874 q 77 877 85 878 l 85 878 l 97 878 l 107 878 q 131 876 168 872 q 205 868 247 864 q 288 859 331 855 q 373 850 408 846 q 442 841 466 839 q 489 836 493 836 l 493 836 q 501 835 514 833 q 526 830 539 825 q 552 819 563 812 q 574 804 579 793 l 579 793 q 571 777 565 769 q 559 760 552 756 q 545 751 538 751 q 530 751 519 751 l 519 751 q 477 751 435 754 q 392 757 350 760 q 308 763 266 766 q 223 769 180 769 l 180 769 q 180 751 176 715 q 171 679 169 639 q 166 599 171 560 q 175 520 193 493 l 193 493 q 228 514 266 515 q 304 516 343 516 l 343 516 q 360 516 386 516 q 412 516 437 510 q 461 504 478 490 q 495 476 495 448 l 495 448 q 495 428 487 418 q 479 408 450 408 l 450 408 q 447 408 438 411 q 428 414 418 418 q 407 422 398 425 q 389 428 386 428 l 386 428 q 385 428 379 429 q 372 429 363 429 q 354 429 346 430 q 337 430 332 430 l 332 430 q 309 430 288 427 q 266 424 250 415 q 234 406 225 389 q 215 372 215 345 l 215 345 q 215 336 217 314 q 219 292 223 266 q 226 239 232 211 q 238 183 248 160 q 258 136 271 121 q 283 105 301 105 l 301 105 q 303 105 311 106 q 319 107 321 107 l 321 107 q 355 130 390 157 q 424 184 461 208 q 498 231 538 248 q 578 264 621 264 l 621 264 l 621 215 q 621 211 602 193 q 582 175 551 151 q 519 127 480 100 q 441 73 402 51 q 363 28 328 13 q 292 -2 268 -2 l 268 -2 q 234 -2 208 29 q 181 59 160 110 q 139 160 125 226 q 111 292 101 362 q 90 432 84 502 q 77 571 73 630 q 69 689 68 733 q 66 776 65 793 m 310 924 l 202 1072 q 206 1092 215 1098 q 224 1103 236 1099 q 247 1095 261 1083 q 274 1070 288 1054 q 302 1038 315 1020 q 328 1002 338 986 l 338 986 q 339 985 343 980 q 346 975 349 972 l 349 972 q 360 959 360 946 q 359 932 353 923 q 346 914 334 913 q 321 912 310 924 l 310 924"},"É":{"x_min":-2,"x_max":621,"ha":664,"o":"m 65 793 l 65 793 q 60 793 51 796 q 41 798 31 802 q 21 805 12 809 q 3 812 0 814 l 0 814 q -1 816 -1 818 l -1 818 q -2 820 -2 823 l -2 823 q -2 837 9 847 q 20 857 35 864 q 49 870 63 874 q 77 877 85 878 l 85 878 l 97 878 l 107 878 q 131 876 168 872 q 205 868 247 864 q 288 859 331 855 q 373 850 408 846 q 442 841 466 839 q 489 836 493 836 l 493 836 q 501 835 514 833 q 526 830 539 825 q 552 819 563 812 q 574 804 579 793 l 579 793 q 571 777 565 769 q 559 760 552 756 q 545 751 538 751 q 530 751 519 751 l 519 751 q 477 751 435 754 q 392 757 350 760 q 308 763 266 766 q 223 769 180 769 l 180 769 q 180 751 176 715 q 171 679 169 639 q 166 599 171 560 q 175 520 193 493 l 193 493 q 228 514 266 515 q 304 516 343 516 l 343 516 q 360 516 386 516 q 412 516 437 510 q 461 504 478 490 q 495 476 495 448 l 495 448 q 495 428 487 418 q 479 408 450 408 l 450 408 q 447 408 438 411 q 428 414 418 418 q 407 422 398 425 q 389 428 386 428 l 386 428 q 385 428 379 429 q 372 429 363 429 q 354 429 346 430 q 337 430 332 430 l 332 430 q 309 430 288 427 q 266 424 250 415 q 234 406 225 389 q 215 372 215 345 l 215 345 q 215 336 217 314 q 219 292 223 266 q 226 239 232 211 q 238 183 248 160 q 258 136 271 121 q 283 105 301 105 l 301 105 q 303 105 311 106 q 319 107 321 107 l 321 107 q 355 130 390 157 q 424 184 461 208 q 498 231 538 248 q 578 264 621 264 l 621 264 l 621 215 q 621 211 602 193 q 582 175 551 151 q 519 127 480 100 q 441 73 402 51 q 363 28 328 13 q 292 -2 268 -2 l 268 -2 q 234 -2 208 29 q 181 59 160 110 q 139 160 125 226 q 111 292 101 362 q 90 432 84 502 q 77 571 73 630 q 69 689 68 733 q 66 776 65 793 m 377 1075 l 377 1075 l 269 915 q 257 901 245 903 q 233 905 227 915 q 220 924 220 939 q 219 953 230 967 l 230 967 q 233 970 237 976 q 240 981 241 983 l 241 983 q 251 999 264 1019 q 277 1039 291 1057 q 305 1074 319 1088 q 332 1101 344 1106 q 356 1110 365 1104 q 373 1097 377 1075"},"Ê":{"x_min":-2,"x_max":621,"ha":664,"o":"m 65 793 l 65 793 q 60 793 51 796 q 41 798 31 802 q 21 805 12 809 q 3 812 0 814 l 0 814 q -1 816 -1 818 l -1 818 q -2 820 -2 823 l -2 823 q -2 837 9 847 q 20 857 35 864 q 49 870 63 874 q 77 877 85 878 l 85 878 l 97 878 l 107 878 q 131 876 168 872 q 205 868 247 864 q 288 859 331 855 q 373 850 408 846 q 442 841 466 839 q 489 836 493 836 l 493 836 q 501 835 514 833 q 526 830 539 825 q 552 819 563 812 q 574 804 579 793 l 579 793 q 571 777 565 769 q 559 760 552 756 q 545 751 538 751 q 530 751 519 751 l 519 751 q 477 751 435 754 q 392 757 350 760 q 308 763 266 766 q 223 769 180 769 l 180 769 q 180 751 176 715 q 171 679 169 639 q 166 599 171 560 q 175 520 193 493 l 193 493 q 228 514 266 515 q 304 516 343 516 l 343 516 q 360 516 386 516 q 412 516 437 510 q 461 504 478 490 q 495 476 495 448 l 495 448 q 495 428 487 418 q 479 408 450 408 l 450 408 q 447 408 438 411 q 428 414 418 418 q 407 422 398 425 q 389 428 386 428 l 386 428 q 385 428 379 429 q 372 429 363 429 q 354 429 346 430 q 337 430 332 430 l 332 430 q 309 430 288 427 q 266 424 250 415 q 234 406 225 389 q 215 372 215 345 l 215 345 q 215 336 217 314 q 219 292 223 266 q 226 239 232 211 q 238 183 248 160 q 258 136 271 121 q 283 105 301 105 l 301 105 q 303 105 311 106 q 319 107 321 107 l 321 107 q 355 130 390 157 q 424 184 461 208 q 498 231 538 248 q 578 264 621 264 l 621 264 l 621 215 q 621 211 602 193 q 582 175 551 151 q 519 127 480 100 q 441 73 402 51 q 363 28 328 13 q 292 -2 268 -2 l 268 -2 q 234 -2 208 29 q 181 59 160 110 q 139 160 125 226 q 111 292 101 362 q 90 432 84 502 q 77 571 73 630 q 69 689 68 733 q 66 776 65 793 m 304 1260 l 304 1260 q 324 1249 345 1228 q 366 1207 388 1181 q 409 1154 430 1125 q 450 1095 469 1068 q 488 1041 505 1018 q 521 995 532 983 l 532 983 q 531 981 526 975 q 521 969 514 963 q 507 956 500 949 q 493 942 489 939 l 489 939 q 486 939 485 939 l 485 939 q 482 938 479 938 l 479 938 q 475 938 472 939 l 472 939 q 469 939 468 939 l 468 939 q 438 959 422 987 q 406 1014 392 1039 q 378 1063 360 1080 q 342 1097 309 1097 l 309 1097 q 288 1046 276 1014 q 264 982 256 964 q 248 946 241 939 q 234 931 223 930 q 211 929 192 931 q 172 933 140 933 l 140 933 q 140 952 147 981 q 153 1010 165 1043 q 176 1076 192 1111 q 207 1146 225 1176 q 243 1206 264 1229 q 284 1251 304 1260"},"Ë":{"x_min":-2,"x_max":621,"ha":664,"o":"m 65 793 l 65 793 q 60 793 51 796 q 41 798 31 802 q 21 805 12 809 q 3 812 0 814 l 0 814 q -1 816 -1 818 l -1 818 q -2 820 -2 823 l -2 823 q -2 837 9 847 q 20 857 35 864 q 49 870 63 874 q 77 877 85 878 l 85 878 l 97 878 l 107 878 q 131 876 168 872 q 205 868 247 864 q 288 859 331 855 q 373 850 408 846 q 442 841 466 839 q 489 836 493 836 l 493 836 q 501 835 514 833 q 526 830 539 825 q 552 819 563 812 q 574 804 579 793 l 579 793 q 571 777 565 769 q 559 760 552 756 q 545 751 538 751 q 530 751 519 751 l 519 751 q 477 751 435 754 q 392 757 350 760 q 308 763 266 766 q 223 769 180 769 l 180 769 q 180 751 176 715 q 171 679 169 639 q 166 599 171 560 q 175 520 193 493 l 193 493 q 228 514 266 515 q 304 516 343 516 l 343 516 q 360 516 386 516 q 412 516 437 510 q 461 504 478 490 q 495 476 495 448 l 495 448 q 495 428 487 418 q 479 408 450 408 l 450 408 q 447 408 438 411 q 428 414 418 418 q 407 422 398 425 q 389 428 386 428 l 386 428 q 385 428 379 429 q 372 429 363 429 q 354 429 346 430 q 337 430 332 430 l 332 430 q 309 430 288 427 q 266 424 250 415 q 234 406 225 389 q 215 372 215 345 l 215 345 q 215 336 217 314 q 219 292 223 266 q 226 239 232 211 q 238 183 248 160 q 258 136 271 121 q 283 105 301 105 l 301 105 q 303 105 311 106 q 319 107 321 107 l 321 107 q 355 130 390 157 q 424 184 461 208 q 498 231 538 248 q 578 264 621 264 l 621 264 l 621 215 q 621 211 602 193 q 582 175 551 151 q 519 127 480 100 q 441 73 402 51 q 363 28 328 13 q 292 -2 268 -2 l 268 -2 q 234 -2 208 29 q 181 59 160 110 q 139 160 125 226 q 111 292 101 362 q 90 432 84 502 q 77 571 73 630 q 69 689 68 733 q 66 776 65 793 m 207 1021 l 207 1021 q 252 1021 252 974 l 252 974 q 241 945 225 935 q 208 925 193 928 q 178 931 167 943 q 155 955 154 970 q 153 985 165 1000 q 177 1014 207 1021 m 434 1021 l 434 1021 q 479 1021 479 974 l 479 974 q 467 945 451 935 q 435 925 420 928 q 404 931 393 943 q 382 955 381 970 q 380 985 392 1000 q 403 1014 434 1021"},"Ì":{"x_min":13,"x_max":718,"ha":771,"o":"m 321 139 l 321 139 q 321 192 308 254 q 295 316 280 381 q 265 446 251 511 q 237 575 236 632 l 236 632 l 13 632 q 13 640 13 655 q 13 670 16 686 q 19 701 25 714 q 31 726 43 729 l 43 729 l 593 729 q 592 697 580 680 q 568 663 549 654 q 529 645 505 643 q 481 640 457 637 q 433 634 410 630 q 387 625 371 612 q 354 599 346 577 q 337 554 341 516 l 341 516 q 341 495 344 461 q 347 426 354 386 q 361 346 372 306 q 383 265 400 232 q 416 198 438 178 q 459 157 488 157 l 488 157 q 508 155 540 157 q 571 158 603 159 q 635 160 664 158 q 692 156 705 146 q 718 136 711 117 q 704 97 667 64 l 667 64 q 603 40 538 32 q 472 23 406 23 q 340 22 274 25 q 208 27 143 27 l 143 27 q 106 72 99 96 q 92 120 105 130 q 117 139 145 140 q 172 140 204 138 q 236 135 268 134 q 300 132 321 139 m 405 802 l 297 950 q 301 970 310 976 q 319 981 331 977 q 342 973 356 961 q 369 948 383 932 q 397 916 410 898 q 423 880 433 864 l 433 864 q 434 863 438 858 q 441 853 444 850 l 444 850 q 455 837 455 824 q 454 810 448 801 q 441 792 429 791 q 416 790 405 802 l 405 802"},"Í":{"x_min":13,"x_max":718,"ha":771,"o":"m 321 139 l 321 139 q 321 192 308 254 q 295 316 280 381 q 265 446 251 511 q 237 575 236 632 l 236 632 l 13 632 q 13 640 13 655 q 13 670 16 686 q 19 701 25 714 q 31 726 43 729 l 43 729 l 593 729 q 592 697 580 680 q 568 663 549 654 q 529 645 505 643 q 481 640 457 637 q 433 634 410 630 q 387 625 371 612 q 354 599 346 577 q 337 554 341 516 l 341 516 q 341 495 344 461 q 347 426 354 386 q 361 346 372 306 q 383 265 400 232 q 416 198 438 178 q 459 157 488 157 l 488 157 q 508 155 540 157 q 571 158 603 159 q 635 160 664 158 q 692 156 705 146 q 718 136 711 117 q 704 97 667 64 l 667 64 q 603 40 538 32 q 472 23 406 23 q 340 22 274 25 q 208 27 143 27 l 143 27 q 106 72 99 96 q 92 120 105 130 q 117 139 145 140 q 172 140 204 138 q 236 135 268 134 q 300 132 321 139 m 473 933 l 473 933 l 365 773 q 353 759 341 761 q 329 763 323 773 q 316 782 316 797 q 315 811 326 825 l 326 825 q 329 828 333 834 q 336 839 337 841 l 337 841 q 347 857 360 877 q 373 897 387 915 q 401 932 415 946 q 428 959 440 964 q 452 968 461 962 q 469 955 473 933"},"Î":{"x_min":13,"x_max":718,"ha":771,"o":"m 321 139 l 321 139 q 321 192 308 254 q 295 316 280 381 q 265 446 251 511 q 237 575 236 632 l 236 632 l 13 632 q 13 640 13 655 q 13 670 16 686 q 19 701 25 714 q 31 726 43 729 l 43 729 l 593 729 q 592 697 580 680 q 568 663 549 654 q 529 645 505 643 q 481 640 457 637 q 433 634 410 630 q 387 625 371 612 q 354 599 346 577 q 337 554 341 516 l 341 516 q 341 495 344 461 q 347 426 354 386 q 361 346 372 306 q 383 265 400 232 q 416 198 438 178 q 459 157 488 157 l 488 157 q 508 155 540 157 q 571 158 603 159 q 635 160 664 158 q 692 156 705 146 q 718 136 711 117 q 704 97 667 64 l 667 64 q 603 40 538 32 q 472 23 406 23 q 340 22 274 25 q 208 27 143 27 l 143 27 q 106 72 99 96 q 92 120 105 130 q 117 139 145 140 q 172 140 204 138 q 236 135 268 134 q 300 132 321 139 m 353 1175 l 353 1175 q 373 1164 394 1143 q 415 1122 437 1096 q 458 1069 479 1040 q 499 1010 518 983 q 537 956 554 933 q 570 910 581 898 l 581 898 q 580 896 575 890 q 570 884 563 878 q 556 871 549 864 q 542 857 538 854 l 538 854 q 535 854 534 854 l 534 854 q 531 853 528 853 l 528 853 q 524 853 521 854 l 521 854 q 518 854 517 854 l 517 854 q 487 874 471 902 q 455 929 441 954 q 427 978 409 995 q 391 1012 358 1012 l 358 1012 q 337 961 325 929 q 313 897 305 879 q 297 861 290 854 q 283 846 272 845 q 260 844 241 846 q 221 848 189 848 l 189 848 q 189 867 196 896 q 202 925 214 958 q 225 991 241 1026 q 256 1061 274 1091 q 292 1121 313 1144 q 333 1166 353 1175"},"Ï":{"x_min":13,"x_max":718,"ha":771,"o":"m 321 139 l 321 139 q 321 192 308 254 q 295 316 280 381 q 265 446 251 511 q 237 575 236 632 l 236 632 l 13 632 q 13 640 13 655 q 13 670 16 686 q 19 701 25 714 q 31 726 43 729 l 43 729 l 593 729 q 592 697 580 680 q 568 663 549 654 q 529 645 505 643 q 481 640 457 637 q 433 634 410 630 q 387 625 371 612 q 354 599 346 577 q 337 554 341 516 l 341 516 q 341 495 344 461 q 347 426 354 386 q 361 346 372 306 q 383 265 400 232 q 416 198 438 178 q 459 157 488 157 l 488 157 q 508 155 540 157 q 571 158 603 159 q 635 160 664 158 q 692 156 705 146 q 718 136 711 117 q 704 97 667 64 l 667 64 q 603 40 538 32 q 472 23 406 23 q 340 22 274 25 q 208 27 143 27 l 143 27 q 106 72 99 96 q 92 120 105 130 q 117 139 145 140 q 172 140 204 138 q 236 135 268 134 q 300 132 321 139 m 227 916 l 227 916 q 272 916 272 869 l 272 869 q 261 840 245 830 q 228 820 213 823 q 198 826 187 838 q 175 850 174 865 q 173 880 185 895 q 197 909 227 916 m 454 916 l 454 916 q 499 916 499 869 l 499 869 q 487 840 471 830 q 455 820 440 823 q 424 826 413 838 q 402 850 401 865 q 400 880 412 895 q 423 909 454 916"},"Ð":{"x_min":0,"x_max":490,"ha":509,"o":"m 9 329 l 9 329 q 9 330 8 339 q 6 348 5 359 q 3 369 2 378 q 0 386 0 387 l 0 387 q 24 380 56 384 l 56 384 q 66 386 76 388 l 76 388 l 66 431 q 51 489 40 538 q 29 587 23 624 q 16 661 16 678 l 16 678 q 16 720 41 747 q 66 774 103 790 q 139 805 181 811 q 223 816 257 816 l 257 816 q 322 816 367 791 q 411 765 439 723 q 466 681 478 626 q 490 571 490 514 l 490 514 q 490 476 482 425 q 474 373 459 319 q 443 264 420 211 q 396 157 365 115 q 333 72 295 46 q 256 20 210 20 l 210 20 q 202 20 189 45 q 175 69 160 110 q 145 151 129 205 q 112 258 96 316 l 96 316 l 91 332 l 85 332 q 52 328 30 328 q 8 327 9 329 m 101 621 l 101 621 q 101 589 106 548 q 110 507 119 463 l 119 463 q 126 431 135 399 l 135 399 q 160 402 183 405 l 183 405 q 213 408 234 396 l 234 396 q 255 385 247 375 q 238 365 212 356 l 212 356 q 188 348 154 342 l 154 342 q 165 316 176 291 l 176 291 q 195 252 220 221 q 244 189 274 171 l 274 171 q 307 219 332 257 q 356 295 373 333 q 389 371 397 414 q 405 457 405 514 l 405 514 q 405 555 400 594 q 394 633 378 664 q 362 694 332 713 q 301 731 253 731 l 253 731 q 212 731 175 719 q 138 706 103 686 l 103 686 q 103 683 103 674 q 102 665 102 655 q 102 644 102 635 q 101 625 101 621"},"Ñ":{"x_min":-4,"x_max":661,"ha":686,"o":"m 62 -6 l 62 -6 q 58 10 52 40 q 45 70 38 106 q 30 142 23 182 q 16 221 10 259 q 4 296 1 328 q -3 359 -3 379 l -3 379 q -3 388 -1 410 q 1 432 5 456 q 9 480 13 501 q 16 522 19 530 l 19 530 q 22 531 30 531 q 37 531 46 532 q 54 533 62 534 q 69 534 72 534 l 72 534 q 120 534 163 515 q 206 496 245 467 q 284 438 321 402 q 358 366 396 332 q 433 298 472 271 q 511 243 555 229 l 555 229 q 555 234 556 245 q 556 255 556 267 q 556 279 557 290 q 557 300 557 305 l 557 305 q 557 368 549 428 q 541 488 531 548 q 521 608 513 669 q 505 729 505 793 l 505 793 q 512 793 523 793 q 533 792 544 790 q 555 787 564 782 q 573 776 576 765 l 576 765 q 580 693 594 621 q 608 548 623 476 q 638 403 650 331 q 661 258 661 187 l 661 187 q 661 174 661 159 q 660 144 657 131 q 653 117 645 108 q 637 99 621 99 l 621 99 q 569 99 525 123 q 481 146 440 181 q 398 216 359 258 q 319 300 278 335 q 236 370 192 394 q 147 418 96 418 l 96 418 q 96 362 104 311 q 112 259 122 208 q 131 157 139 107 q 147 56 147 4 l 147 4 q 147 -15 134 -22 q 120 -29 104 -29 l 104 -29 q 91 -29 80 -26 q 68 -24 62 -6 m -4 905 l -4 905 q -4 938 2 975 q 8 1011 24 1042 q 40 1072 69 1092 q 97 1112 142 1112 l 142 1112 q 174 1112 198 1098 q 221 1083 240 1062 q 258 1040 274 1015 q 290 989 308 967 q 326 945 348 931 q 369 917 398 917 l 398 917 q 432 917 448 927 q 463 937 468 954 q 473 970 472 990 q 470 1010 470 1030 q 470 1049 475 1065 q 479 1080 496 1089 l 496 1089 l 516 1089 q 519 1088 526 1086 q 532 1083 539 1080 q 545 1077 552 1074 q 558 1070 560 1069 l 560 1069 q 560 1065 561 1058 q 561 1050 561 1042 q 561 1033 562 1025 q 562 1017 562 1015 l 562 1015 q 562 927 516 878 q 470 828 384 828 l 384 828 q 351 828 327 841 q 303 854 285 874 q 266 894 251 918 q 236 941 220 961 q 204 980 186 994 q 167 1007 142 1007 l 142 1007 q 110 1007 97 995 q 83 982 78 963 q 73 944 73 921 q 73 898 70 876 q 67 854 58 837 q 48 819 25 811 l 25 811 l 2 832 q 2 835 1 845 q 0 854 -1 864 l -1 864 l -3 887 q -4 899 -4 905"},"Ò":{"x_min":0,"x_max":602,"ha":643,"o":"m 0 278 l 0 278 q 0 329 14 382 q 27 434 52 482 q 76 530 111 572 q 146 613 189 644 q 231 674 281 692 q 331 709 386 709 l 386 709 q 441 709 482 688 q 522 666 549 630 q 576 594 589 548 q 602 501 602 453 l 602 453 q 602 369 577 288 q 552 206 503 142 q 454 77 382 38 q 309 -2 215 -2 l 215 -2 q 159 -2 119 24 q 78 49 52 90 q 25 130 13 180 q 0 229 0 278 m 85 256 l 85 256 q 85 229 94 199 q 103 169 119 144 q 135 119 160 102 q 184 85 215 85 l 215 85 q 282 85 337 116 q 392 146 432 195 q 472 243 494 303 q 516 363 516 422 l 516 422 q 516 456 514 492 q 512 528 501 558 q 490 587 467 606 q 443 624 399 624 l 399 624 q 385 624 362 623 q 338 622 315 618 q 292 613 275 604 q 257 595 257 579 l 257 579 q 257 577 261 571 q 264 564 268 557 q 272 550 275 544 q 278 537 278 535 l 278 535 q 278 533 270 525 q 262 516 257 514 l 257 514 q 207 501 174 482 q 140 462 121 431 q 101 400 93 357 q 85 314 85 256 m 341 802 l 233 950 q 237 970 246 976 q 255 981 267 977 q 278 973 292 961 q 305 948 319 932 q 333 916 346 898 q 359 880 369 864 l 369 864 q 370 863 374 858 q 377 853 380 850 l 380 850 q 391 837 391 824 q 390 810 384 801 q 377 792 365 791 q 352 790 341 802 l 341 802"},"Ó":{"x_min":0,"x_max":602,"ha":643,"o":"m 0 278 l 0 278 q 0 329 14 382 q 27 434 52 482 q 76 530 111 572 q 146 613 189 644 q 231 674 281 692 q 331 709 386 709 l 386 709 q 441 709 482 688 q 522 666 549 630 q 576 594 589 548 q 602 501 602 453 l 602 453 q 602 369 577 288 q 552 206 503 142 q 454 77 382 38 q 309 -2 215 -2 l 215 -2 q 159 -2 119 24 q 78 49 52 90 q 25 130 13 180 q 0 229 0 278 m 85 256 l 85 256 q 85 229 94 199 q 103 169 119 144 q 135 119 160 102 q 184 85 215 85 l 215 85 q 282 85 337 116 q 392 146 432 195 q 472 243 494 303 q 516 363 516 422 l 516 422 q 516 456 514 492 q 512 528 501 558 q 490 587 467 606 q 443 624 399 624 l 399 624 q 385 624 362 623 q 338 622 315 618 q 292 613 275 604 q 257 595 257 579 l 257 579 q 257 577 261 571 q 264 564 268 557 q 272 550 275 544 q 278 537 278 535 l 278 535 q 278 533 270 525 q 262 516 257 514 l 257 514 q 207 501 174 482 q 140 462 121 431 q 101 400 93 357 q 85 314 85 256 m 409 933 l 409 933 l 301 773 q 289 759 277 761 q 265 763 259 773 q 252 782 252 797 q 251 811 262 825 l 262 825 q 265 828 269 834 q 272 839 273 841 l 273 841 q 283 857 296 877 q 309 897 323 915 q 337 932 351 946 q 364 959 376 964 q 388 968 397 962 q 405 955 409 933"},"Ô":{"x_min":0,"x_max":602,"ha":643,"o":"m 0 278 l 0 278 q 0 329 14 382 q 27 434 52 482 q 76 530 111 572 q 146 613 189 644 q 231 674 281 692 q 331 709 386 709 l 386 709 q 441 709 482 688 q 522 666 549 630 q 576 594 589 548 q 602 501 602 453 l 602 453 q 602 369 577 288 q 552 206 503 142 q 454 77 382 38 q 309 -2 215 -2 l 215 -2 q 159 -2 119 24 q 78 49 52 90 q 25 130 13 180 q 0 229 0 278 m 85 256 l 85 256 q 85 229 94 199 q 103 169 119 144 q 135 119 160 102 q 184 85 215 85 l 215 85 q 282 85 337 116 q 392 146 432 195 q 472 243 494 303 q 516 363 516 422 l 516 422 q 516 456 514 492 q 512 528 501 558 q 490 587 467 606 q 443 624 399 624 l 399 624 q 385 624 362 623 q 338 622 315 618 q 292 613 275 604 q 257 595 257 579 l 257 579 q 257 577 261 571 q 264 564 268 557 q 272 550 275 544 q 278 537 278 535 l 278 535 q 278 533 270 525 q 262 516 257 514 l 257 514 q 207 501 174 482 q 140 462 121 431 q 101 400 93 357 q 85 314 85 256 m 290 1175 l 290 1175 q 310 1164 331 1143 q 352 1122 374 1096 q 395 1069 416 1040 q 436 1010 455 983 q 474 956 491 933 q 507 910 518 898 l 518 898 q 517 896 512 890 q 507 884 500 878 q 493 871 486 864 q 479 857 475 854 l 475 854 q 472 854 471 854 l 471 854 q 468 853 465 853 l 465 853 q 461 853 458 854 l 458 854 q 455 854 454 854 l 454 854 q 424 874 408 902 q 392 929 378 954 q 364 978 346 995 q 328 1012 295 1012 l 295 1012 q 274 961 262 929 q 250 897 242 879 q 234 861 227 854 q 220 846 209 845 q 197 844 178 846 q 158 848 126 848 l 126 848 q 126 867 133 896 q 139 925 151 958 q 162 991 178 1026 q 193 1061 211 1091 q 229 1121 250 1144 q 270 1166 290 1175"},"Õ":{"x_min":0,"x_max":614,"ha":643,"o":"m 0 278 l 0 278 q 0 329 14 382 q 27 434 52 482 q 76 530 111 572 q 146 613 189 644 q 231 674 281 692 q 331 709 386 709 l 386 709 q 441 709 482 688 q 522 666 549 630 q 576 594 589 548 q 602 501 602 453 l 602 453 q 602 369 577 288 q 552 206 503 142 q 454 77 382 38 q 309 -2 215 -2 l 215 -2 q 159 -2 119 24 q 78 49 52 90 q 25 130 13 180 q 0 229 0 278 m 85 256 l 85 256 q 85 229 94 199 q 103 169 119 144 q 135 119 160 102 q 184 85 215 85 l 215 85 q 282 85 337 116 q 392 146 432 195 q 472 243 494 303 q 516 363 516 422 l 516 422 q 516 456 514 492 q 512 528 501 558 q 490 587 467 606 q 443 624 399 624 l 399 624 q 385 624 362 623 q 338 622 315 618 q 292 613 275 604 q 257 595 257 579 l 257 579 q 257 577 261 571 q 264 564 268 557 q 272 550 275 544 q 278 537 278 535 l 278 535 q 278 533 270 525 q 262 516 257 514 l 257 514 q 207 501 174 482 q 140 462 121 431 q 101 400 93 357 q 85 314 85 256 m 48 853 l 48 853 q 48 886 54 923 q 60 959 76 990 q 92 1020 121 1040 q 149 1060 194 1060 l 194 1060 q 226 1060 250 1046 q 273 1031 292 1010 q 310 988 326 963 q 342 937 360 915 q 378 893 400 879 q 421 865 450 865 l 450 865 q 484 865 500 875 q 515 885 520 902 q 525 918 524 938 q 522 958 522 978 q 522 997 527 1013 q 531 1028 548 1037 l 548 1037 l 568 1037 q 571 1036 578 1034 q 584 1031 591 1028 q 597 1025 604 1022 q 610 1018 612 1017 l 612 1017 q 612 1013 613 1006 q 613 998 613 990 q 613 981 614 973 q 614 965 614 963 l 614 963 q 614 875 568 826 q 522 776 436 776 l 436 776 q 403 776 379 789 q 355 802 337 822 q 318 842 303 866 q 288 889 272 909 q 256 928 238 942 q 219 955 194 955 l 194 955 q 162 955 149 943 q 135 930 130 911 q 125 892 125 869 q 125 846 122 824 q 119 802 110 785 q 100 767 77 759 l 77 759 l 54 780 q 54 783 53 793 q 52 802 51 812 l 51 812 l 49 835 q 48 847 48 853"},"Ö":{"x_min":0,"x_max":602,"ha":643,"o":"m 0 278 l 0 278 q 0 329 14 382 q 27 434 52 482 q 76 530 111 572 q 146 613 189 644 q 231 674 281 692 q 331 709 386 709 l 386 709 q 441 709 482 688 q 522 666 549 630 q 576 594 589 548 q 602 501 602 453 l 602 453 q 602 369 577 288 q 552 206 503 142 q 454 77 382 38 q 309 -2 215 -2 l 215 -2 q 159 -2 119 24 q 78 49 52 90 q 25 130 13 180 q 0 229 0 278 m 85 256 l 85 256 q 85 229 94 199 q 103 169 119 144 q 135 119 160 102 q 184 85 215 85 l 215 85 q 282 85 337 116 q 392 146 432 195 q 472 243 494 303 q 516 363 516 422 l 516 422 q 516 456 514 492 q 512 528 501 558 q 490 587 467 606 q 443 624 399 624 l 399 624 q 385 624 362 623 q 338 622 315 618 q 292 613 275 604 q 257 595 257 579 l 257 579 q 257 577 261 571 q 264 564 268 557 q 272 550 275 544 q 278 537 278 535 l 278 535 q 278 533 270 525 q 262 516 257 514 l 257 514 q 207 501 174 482 q 140 462 121 431 q 101 400 93 357 q 85 314 85 256 m 248 978 l 248 978 q 293 978 293 931 l 293 931 q 282 902 266 892 q 249 882 234 885 q 219 888 208 900 q 196 912 195 927 q 194 942 206 957 q 218 971 248 978 m 475 978 l 475 978 q 520 978 520 931 l 520 931 q 508 902 492 892 q 476 882 461 885 q 445 888 434 900 q 423 912 422 927 q 421 942 433 957 q 444 971 475 978"},"×":{"x_min":105,"x_max":376,"ha":486,"o":"m 189 346 l 105 463 l 105 465 q 105 468 106 469 l 106 469 q 109 479 120 480 q 130 481 141 476 l 141 476 q 142 476 148 474 l 148 474 q 150 473 152 472 l 152 472 l 225 388 q 256 407 274 417 q 292 427 302 432 q 312 436 317 436 q 321 436 323 435 l 323 435 q 332 433 345 429 q 357 424 357 413 l 357 413 q 330 401 309 388 q 287 374 264 348 l 264 348 q 274 337 288 320 q 302 302 317 282 q 332 261 345 240 q 358 219 366 202 q 374 184 375 173 q 376 162 366 162 l 366 162 q 354 156 350 153 q 345 149 342 152 q 339 154 336 164 q 332 173 322 192 q 311 211 292 241 q 272 271 238 315 l 238 315 l 196 193 q 195 192 187 190 l 187 190 l 174 188 q 172 188 170 189 l 170 189 l 167 189 l 166 190 q 166 190 165 191 q 164 191 162 191 l 162 191 q 160 191 159 192 l 159 192 q 157 195 153 200 q 148 205 148 206 l 148 206 l 189 346"},"Ø":{"x_min":0,"x_max":602,"ha":643,"o":"m 0 278 l 0 278 q 0 329 14 382 q 27 434 52 482 q 76 530 111 572 q 146 613 189 644 q 231 674 281 692 q 331 709 386 709 l 386 709 l 391 709 q 404 726 418 739 l 418 739 q 451 768 489 753 l 489 753 q 482 721 475 690 l 475 690 q 478 688 481 688 l 481 688 q 522 666 549 630 q 576 594 589 548 q 602 501 602 453 l 602 453 q 602 369 577 288 q 552 206 503 142 q 454 77 381 38 l 381 38 q 330 10 270 2 l 270 2 q 266 -30 256 -35 l 256 -35 q 244 -41 229 -36 l 229 -36 q 217 -32 208 -24 l 208 -24 q 200 -18 197 -1 l 197 -1 q 152 2 119 23 l 119 23 q 78 49 52 90 q 25 130 13 180 q 0 229 0 278 m 85 256 l 85 256 q 85 229 94 199 q 103 169 119 144 q 135 119 159 102 l 159 102 q 181 86 209 85 l 209 85 q 213 110 217 132 q 220 153 221 162 l 221 162 q 228 196 240 258 q 251 319 269 390 q 286 460 309 531 l 309 531 q 324 580 342 621 l 342 621 q 328 620 315 617 l 315 617 q 292 613 275 604 q 257 595 257 579 l 257 579 q 257 577 261 571 q 264 564 268 557 q 272 550 275 544 q 278 537 278 535 l 278 535 q 278 533 270 525 q 262 516 257 514 l 257 514 q 207 501 174 482 q 140 462 121 431 q 101 400 93 357 q 85 314 85 256 m 337 115 l 337 115 q 392 146 432 195 q 472 243 494 303 q 516 363 516 422 l 516 422 q 516 456 514 492 q 512 528 501 558 q 490 587 466 605 l 466 605 q 461 609 454 612 l 454 612 q 437 555 418 501 l 418 501 q 398 443 377 386 q 355 328 335 268 q 314 208 297 143 l 297 143 q 292 120 285 94 l 285 94 q 312 102 337 115"},"Ù":{"x_min":0,"x_max":588,"ha":621,"o":"m 0 643 l 43 686 q 59 674 69 657 q 79 639 85 621 l 85 621 q 86 583 86 530 q 86 477 90 420 q 94 363 105 307 q 116 250 140 205 q 163 160 203 133 q 242 105 302 105 l 302 105 q 357 105 397 131 q 436 157 463 197 q 489 237 502 287 q 514 336 514 383 l 514 383 q 514 474 505 569 q 496 663 472 751 l 472 751 q 479 769 490 772 q 501 774 514 774 l 514 774 q 540 774 555 753 q 570 732 578 700 q 585 667 587 629 q 588 590 587 556 q 585 521 583 495 q 580 468 580 461 l 580 461 q 580 409 578 356 q 575 302 566 253 q 556 204 538 162 q 519 119 488 88 q 457 56 411 38 q 365 20 301 20 l 301 20 q 220 20 168 51 q 116 82 85 134 q 53 185 38 251 q 22 317 16 386 q 9 455 7 522 q 4 589 0 643 l 0 643 m 330 802 l 222 950 q 226 970 235 976 q 244 981 256 977 q 267 973 281 961 q 294 948 308 932 q 322 916 335 898 q 348 880 358 864 l 358 864 q 359 863 363 858 q 366 853 369 850 l 369 850 q 380 837 380 824 q 379 810 373 801 q 366 792 354 791 q 341 790 330 802 l 330 802"},"Ú":{"x_min":0,"x_max":588,"ha":621,"o":"m 0 643 l 43 686 q 59 674 69 657 q 79 639 85 621 l 85 621 q 86 583 86 530 q 86 477 90 420 q 94 363 105 307 q 116 250 140 205 q 163 160 203 133 q 242 105 302 105 l 302 105 q 357 105 397 131 q 436 157 463 197 q 489 237 502 287 q 514 336 514 383 l 514 383 q 514 474 505 569 q 496 663 472 751 l 472 751 q 479 769 490 772 q 501 774 514 774 l 514 774 q 540 774 555 753 q 570 732 578 700 q 585 667 587 629 q 588 590 587 556 q 585 521 583 495 q 580 468 580 461 l 580 461 q 580 409 578 356 q 575 302 566 253 q 556 204 538 162 q 519 119 488 88 q 457 56 411 38 q 365 20 301 20 l 301 20 q 220 20 168 51 q 116 82 85 134 q 53 185 38 251 q 22 317 16 386 q 9 455 7 522 q 4 589 0 643 l 0 643 m 398 933 l 398 933 l 290 773 q 278 759 266 761 q 254 763 248 773 q 241 782 241 797 q 240 811 251 825 l 251 825 q 254 828 258 834 q 261 839 262 841 l 262 841 q 272 857 285 877 q 298 897 312 915 q 326 932 340 946 q 353 959 365 964 q 377 968 386 962 q 394 955 398 933"},"Û":{"x_min":0,"x_max":588,"ha":621,"o":"m 0 643 l 43 686 q 59 674 69 657 q 79 639 85 621 l 85 621 q 86 583 86 530 q 86 477 90 420 q 94 363 105 307 q 116 250 140 205 q 163 160 203 133 q 242 105 302 105 l 302 105 q 357 105 397 131 q 436 157 463 197 q 489 237 502 287 q 514 336 514 383 l 514 383 q 514 474 505 569 q 496 663 472 751 l 472 751 q 479 769 490 772 q 501 774 514 774 l 514 774 q 540 774 555 753 q 570 732 578 700 q 585 667 587 629 q 588 590 587 556 q 585 521 583 495 q 580 468 580 461 l 580 461 q 580 409 578 356 q 575 302 566 253 q 556 204 538 162 q 519 119 488 88 q 457 56 411 38 q 365 20 301 20 l 301 20 q 220 20 168 51 q 116 82 85 134 q 53 185 38 251 q 22 317 16 386 q 9 455 7 522 q 4 589 0 643 l 0 643 m 278 1175 l 278 1175 q 298 1164 319 1143 q 340 1122 362 1096 q 383 1069 404 1040 q 424 1010 443 983 q 462 956 479 933 q 495 910 506 898 l 506 898 q 505 896 500 890 q 495 884 488 878 q 481 871 474 864 q 467 857 463 854 l 463 854 q 460 854 459 854 l 459 854 q 456 853 453 853 l 453 853 q 449 853 446 854 l 446 854 q 443 854 442 854 l 442 854 q 412 874 396 902 q 380 929 366 954 q 352 978 334 995 q 316 1012 283 1012 l 283 1012 q 262 961 250 929 q 238 897 230 879 q 222 861 215 854 q 208 846 197 845 q 185 844 166 846 q 146 848 114 848 l 114 848 q 114 867 121 896 q 127 925 139 958 q 150 991 166 1026 q 181 1061 199 1091 q 217 1121 238 1144 q 258 1166 278 1175"},"Ü":{"x_min":0,"x_max":588,"ha":621,"o":"m 0 643 l 43 686 q 59 674 69 657 q 79 639 85 621 l 85 621 q 86 583 86 530 q 86 477 90 420 q 94 363 105 307 q 116 250 140 205 q 163 160 203 133 q 242 105 302 105 l 302 105 q 357 105 397 131 q 436 157 463 197 q 489 237 502 287 q 514 336 514 383 l 514 383 q 514 474 505 569 q 496 663 472 751 l 472 751 q 479 769 490 772 q 501 774 514 774 l 514 774 q 540 774 555 753 q 570 732 578 700 q 585 667 587 629 q 588 590 587 556 q 585 521 583 495 q 580 468 580 461 l 580 461 q 580 409 578 356 q 575 302 566 253 q 556 204 538 162 q 519 119 488 88 q 457 56 411 38 q 365 20 301 20 l 301 20 q 220 20 168 51 q 116 82 85 134 q 53 185 38 251 q 22 317 16 386 q 9 455 7 522 q 4 589 0 643 l 0 643 m 237 978 l 237 978 q 282 978 282 931 l 282 931 q 271 902 255 892 q 238 882 223 885 q 208 888 197 900 q 185 912 184 927 q 183 942 195 957 q 207 971 237 978 m 464 978 l 464 978 q 509 978 509 931 l 509 931 q 497 902 481 892 q 465 882 450 885 q 434 888 423 900 q 412 912 411 927 q 410 942 422 957 q 433 971 464 978"},"Ý":{"x_min":13,"x_max":644,"ha":643,"o":"m 336 489 l 336 489 q 297 497 258 525 q 219 553 184 593 q 148 633 117 682 q 85 731 62 781 q 39 831 26 878 q 13 925 13 962 l 13 962 q 13 967 14 974 q 14 981 16 988 q 17 994 22 999 q 27 1003 35 1003 l 35 1003 q 60 1003 78 986 q 96 968 111 939 q 126 910 139 873 q 152 836 166 798 q 179 760 194 723 q 209 686 228 657 q 246 628 270 611 q 294 593 325 593 l 325 593 q 327 593 331 594 q 334 595 336 595 l 336 595 q 364 620 387 662 q 409 703 428 751 q 447 799 465 850 q 483 901 503 945 q 522 989 544 1022 q 565 1055 593 1068 l 593 1068 l 636 1024 q 644 1016 639 992 q 633 967 620 931 q 606 894 586 850 q 566 805 544 757 q 522 709 500 662 q 478 614 461 572 q 443 530 432 497 q 421 464 421 445 l 421 445 q 421 385 439 329 q 456 273 476 218 q 496 162 513 107 q 530 51 530 -7 l 530 -7 q 530 -15 530 -27 q 530 -40 527 -51 q 523 -62 514 -68 q 504 -74 486 -69 l 486 -69 q 449 -15 421 54 q 393 122 373 196 q 353 270 344 346 q 334 421 336 489 m 429 1225 l 429 1225 l 321 1065 q 309 1051 297 1053 q 285 1055 279 1065 q 272 1074 272 1089 q 271 1103 282 1117 l 282 1117 q 285 1120 289 1126 q 292 1131 293 1133 l 293 1133 q 303 1149 316 1169 q 329 1189 343 1207 q 357 1224 371 1238 q 384 1251 396 1256 q 408 1260 417 1254 q 425 1247 429 1225"},"Þ":{"x_min":35,"x_max":527,"ha":577,"o":"m 114 14 l 88 280 q 88 283 86 307 q 84 330 80 366 q 76 401 72 446 q 67 490 62 536 q 57 582 52 627 q 47 671 44 707 q 40 742 38 766 q 35 789 35 793 l 35 793 q 45 812 67 829 q 89 846 112 846 l 112 846 q 122 793 126 753 q 130 713 131 681 q 131 648 131 620 q 130 591 132 562 q 134 532 141 498 q 147 463 160 418 l 160 418 q 162 443 163 471 q 163 499 168 529 q 172 558 183 586 q 193 613 213 634 q 232 654 264 667 q 295 679 343 678 l 343 678 q 386 678 421 662 q 455 645 479 618 q 502 590 515 554 q 527 517 527 476 l 527 476 q 527 421 500 369 q 472 316 428 274 q 384 232 329 207 q 274 181 217 181 l 217 181 q 213 181 213 169 q 212 156 213 138 q 213 119 215 97 q 216 75 217 57 q 218 38 218 26 q 217 13 214 14 l 214 14 q 210 15 195 14 q 180 13 164 13 q 147 13 133 13 q 118 12 114 14 l 114 14 m 354 589 l 354 589 q 334 580 313 565 q 291 550 273 519 q 254 487 241 433 q 228 379 225 290 l 225 290 q 227 290 235 289 q 243 287 246 287 l 246 287 q 273 287 308 304 q 343 320 376 346 q 408 372 432 403 q 456 433 461 461 l 461 461 q 463 478 454 500 q 444 522 428 542 q 411 562 391 576 q 371 589 354 589"},"ß":{"x_min":32,"x_max":561,"ha":604,"o":"m 200 -137 l 109 -158 q 97 -157 87 -122 q 77 -88 69 -31 q 61 25 55 98 q 49 171 45 250 q 40 328 37 407 q 34 486 33 554 q 32 621 34 672 q 35 723 38 746 l 38 746 q 52 805 85 837 q 118 868 159 879 q 199 889 243 880 q 287 871 325 847 q 363 823 390 787 q 417 751 423 708 q 428 664 409 615 q 390 565 336 516 l 336 516 q 373 503 413 490 q 452 476 485 457 q 518 437 540 410 q 561 383 561 343 l 561 343 q 561 316 548 286 q 535 256 513 226 q 490 195 461 165 q 432 135 401 109 q 370 83 339 62 q 307 40 280 27 l 280 27 l 262 156 l 298 180 q 319 195 343 213 q 367 231 391 250 q 415 269 435 287 q 454 304 466 319 q 477 334 477 343 l 477 343 q 477 386 452 414 q 427 441 390 449 q 352 457 307 445 q 262 432 221 397 l 221 397 l 218 501 q 265 537 292 581 q 318 625 325 667 q 332 709 321 744 q 310 778 283 794 q 256 809 213 802 q 170 794 114 752 l 114 752 q 121 708 119 656 q 117 603 115 541 q 112 478 112 405 q 111 331 118 247 q 125 163 144 67 q 163 -29 200 -137 l 200 -137"},"à":{"x_min":20,"x_max":578,"ha":621,"o":"m 450 129 l 450 129 q 412 103 385 83 q 357 62 331 48 q 305 34 276 27 q 246 20 203 20 l 203 20 q 110 20 65 70 q 20 119 20 217 l 20 217 q 20 255 30 296 q 40 337 60 378 q 79 418 106 455 q 133 491 167 519 q 201 547 240 564 q 278 580 321 580 l 321 580 q 393 573 434 545 q 475 516 496 472 q 517 427 525 373 q 533 318 538 260 q 542 202 549 144 q 556 86 578 37 l 578 37 q 565 4 554 -9 q 542 -23 528 -14 q 514 -5 496 30 q 477 65 450 129 m 105 215 l 105 215 q 105 158 127 132 q 148 105 203 105 l 203 105 q 244 105 282 120 q 319 134 347 160 q 375 185 392 221 q 409 257 409 301 l 409 301 q 409 319 410 352 q 411 384 406 416 q 401 448 387 472 q 373 495 345 495 l 345 495 q 293 495 249 469 q 205 442 173 401 q 141 360 123 311 q 105 261 105 215 m 325 651 l 217 799 q 221 819 230 825 q 239 830 251 826 q 262 822 276 810 q 289 797 303 781 q 317 765 330 747 q 343 729 353 713 l 353 713 q 354 712 358 707 q 361 702 364 699 l 364 699 q 375 686 375 673 q 374 659 368 650 q 361 641 349 640 q 336 639 325 651 l 325 651"},"á":{"x_min":20,"x_max":578,"ha":621,"o":"m 450 129 l 450 129 q 412 103 385 83 q 357 62 331 48 q 305 34 276 27 q 246 20 203 20 l 203 20 q 110 20 65 70 q 20 119 20 217 l 20 217 q 20 255 30 296 q 40 337 60 378 q 79 418 106 455 q 133 491 167 519 q 201 547 240 564 q 278 580 321 580 l 321 580 q 393 573 434 545 q 475 516 496 472 q 517 427 525 373 q 533 318 538 260 q 542 202 549 144 q 556 86 578 37 l 578 37 q 565 4 554 -9 q 542 -23 528 -14 q 514 -5 496 30 q 477 65 450 129 m 105 215 l 105 215 q 105 158 127 132 q 148 105 203 105 l 203 105 q 244 105 282 120 q 319 134 347 160 q 375 185 392 221 q 409 257 409 301 l 409 301 q 409 319 410 352 q 411 384 406 416 q 401 448 387 472 q 373 495 345 495 l 345 495 q 293 495 249 469 q 205 442 173 401 q 141 360 123 311 q 105 261 105 215 m 394 829 l 394 829 l 286 669 q 274 655 262 657 q 250 659 244 669 q 237 678 237 693 q 236 707 247 721 l 247 721 q 250 724 254 730 q 257 735 258 737 l 258 737 q 268 753 281 773 q 294 793 308 811 q 322 828 336 842 q 349 855 361 860 q 373 864 382 858 q 390 851 394 829"},"â":{"x_min":20,"x_max":578,"ha":621,"o":"m 450 129 l 450 129 q 412 103 385 83 q 357 62 331 48 q 305 34 276 27 q 246 20 203 20 l 203 20 q 110 20 65 70 q 20 119 20 217 l 20 217 q 20 255 30 296 q 40 337 60 378 q 79 418 106 455 q 133 491 167 519 q 201 547 240 564 q 278 580 321 580 l 321 580 q 393 573 434 545 q 475 516 496 472 q 517 427 525 373 q 533 318 538 260 q 542 202 549 144 q 556 86 578 37 l 578 37 q 565 4 554 -9 q 542 -23 528 -14 q 514 -5 496 30 q 477 65 450 129 m 105 215 l 105 215 q 105 158 127 132 q 148 105 203 105 l 203 105 q 244 105 282 120 q 319 134 347 160 q 375 185 392 221 q 409 257 409 301 l 409 301 q 409 319 410 352 q 411 384 406 416 q 401 448 387 472 q 373 495 345 495 l 345 495 q 293 495 249 469 q 205 442 173 401 q 141 360 123 311 q 105 261 105 215 m 278 982 l 278 982 q 298 971 319 950 q 340 929 362 903 q 383 876 404 847 q 424 817 443 790 q 462 763 479 740 q 495 717 506 705 l 506 705 q 505 703 500 697 q 495 691 488 685 q 481 678 474 671 q 467 664 463 661 l 463 661 q 460 661 459 661 l 459 661 q 456 660 453 660 l 453 660 q 449 660 446 661 l 446 661 q 443 661 442 661 l 442 661 q 412 681 396 709 q 380 736 366 761 q 352 785 334 802 q 316 819 283 819 l 283 819 q 262 768 250 736 q 238 704 230 686 q 222 668 215 661 q 208 653 197 652 q 185 651 166 653 q 146 655 114 655 l 114 655 q 114 674 121 703 q 127 732 139 765 q 150 798 166 833 q 181 868 199 898 q 217 928 238 951 q 258 973 278 982"},"ã":{"x_min":20,"x_max":603,"ha":621,"o":"m 450 129 l 450 129 q 412 103 385 83 q 357 62 331 48 q 305 34 276 27 q 246 20 203 20 l 203 20 q 110 20 65 70 q 20 119 20 217 l 20 217 q 20 255 30 296 q 40 337 60 378 q 79 418 106 455 q 133 491 167 519 q 201 547 240 564 q 278 580 321 580 l 321 580 q 393 573 434 545 q 475 516 496 472 q 517 427 525 373 q 533 318 538 260 q 542 202 549 144 q 556 86 578 37 l 578 37 q 565 4 554 -9 q 542 -23 528 -14 q 514 -5 496 30 q 477 65 450 129 m 105 215 l 105 215 q 105 158 127 132 q 148 105 203 105 l 203 105 q 244 105 282 120 q 319 134 347 160 q 375 185 392 221 q 409 257 409 301 l 409 301 q 409 319 410 352 q 411 384 406 416 q 401 448 387 472 q 373 495 345 495 l 345 495 q 293 495 249 469 q 205 442 173 401 q 141 360 123 311 q 105 261 105 215 m 37 682 l 37 682 q 37 715 43 752 q 49 788 65 819 q 81 849 110 869 q 138 889 183 889 l 183 889 q 215 889 239 875 q 262 860 281 839 q 299 817 315 792 q 331 766 349 744 q 367 722 389 708 q 410 694 439 694 l 439 694 q 473 694 489 704 q 504 714 509 731 q 514 747 513 767 q 511 787 511 807 q 511 826 516 842 q 520 857 537 866 l 537 866 l 557 866 q 560 865 567 863 q 573 860 580 857 q 586 854 593 851 q 599 847 601 846 l 601 846 q 601 842 602 835 q 602 827 602 819 q 602 810 603 802 q 603 794 603 792 l 603 792 q 603 704 557 655 q 511 605 425 605 l 425 605 q 392 605 368 618 q 344 631 326 651 q 307 671 292 695 q 277 718 261 738 q 245 757 227 771 q 208 784 183 784 l 183 784 q 151 784 138 772 q 124 759 119 740 q 114 721 114 698 q 114 675 111 653 q 108 631 99 614 q 89 596 66 588 l 66 588 l 43 609 q 43 612 42 622 q 41 631 40 641 l 40 641 l 38 664 q 37 676 37 682"},"ä":{"x_min":20,"x_max":578,"ha":621,"o":"m 450 129 l 450 129 q 412 103 385 83 q 357 62 331 48 q 305 34 276 27 q 246 20 203 20 l 203 20 q 110 20 65 70 q 20 119 20 217 l 20 217 q 20 255 30 296 q 40 337 60 378 q 79 418 106 455 q 133 491 167 519 q 201 547 240 564 q 278 580 321 580 l 321 580 q 393 573 434 545 q 475 516 496 472 q 517 427 525 373 q 533 318 538 260 q 542 202 549 144 q 556 86 578 37 l 578 37 q 565 4 554 -9 q 542 -23 528 -14 q 514 -5 496 30 q 477 65 450 129 m 105 215 l 105 215 q 105 158 127 132 q 148 105 203 105 l 203 105 q 244 105 282 120 q 319 134 347 160 q 375 185 392 221 q 409 257 409 301 l 409 301 q 409 319 410 352 q 411 384 406 416 q 401 448 387 472 q 373 495 345 495 l 345 495 q 293 495 249 469 q 205 442 173 401 q 141 360 123 311 q 105 261 105 215 m 237 785 l 237 785 q 282 785 282 738 l 282 738 q 271 709 255 699 q 238 689 223 692 q 208 695 197 707 q 185 719 184 734 q 183 749 195 764 q 207 778 237 785 m 464 785 l 464 785 q 509 785 509 738 l 509 738 q 497 709 481 699 q 465 689 450 692 q 434 695 423 707 q 412 719 411 734 q 410 749 422 764 q 433 778 464 785"},"å":{"x_min":20,"x_max":578,"ha":621,"o":"m 162 679 l 162 679 q 162 714 180 744 q 197 773 226 795 q 254 816 291 829 q 327 841 364 841 l 364 841 q 383 841 400 829 q 416 816 427 799 q 437 781 443 762 q 449 742 449 726 l 449 726 q 449 695 433 666 q 417 636 391 613 l 391 613 q 366 592 337 579 l 337 579 q 398 570 434 544 l 434 544 q 475 516 496 472 q 517 427 525 373 q 533 318 538 260 q 542 202 549 144 q 556 86 578 37 l 578 37 q 565 4 554 -9 q 542 -23 528 -14 q 514 -5 496 30 q 477 65 450 129 l 450 129 q 412 103 385 83 q 357 62 331 48 q 305 34 276 27 q 246 20 203 20 l 203 20 q 110 20 65 70 q 20 119 20 217 l 20 217 q 20 255 30 296 q 40 337 60 378 q 79 418 106 455 q 133 491 167 519 q 201 547 239 563 l 239 563 l 240 564 q 228 567 218 571 l 218 571 q 198 580 186 596 q 173 612 168 633 q 162 654 162 679 m 105 215 l 105 215 q 105 158 127 132 q 148 105 203 105 l 203 105 q 244 105 282 120 q 319 134 347 160 q 375 185 392 221 q 409 257 409 301 l 409 301 q 409 319 410 352 q 411 384 406 416 q 401 448 387 472 q 373 495 345 495 l 345 495 q 293 495 249 469 q 205 442 173 401 q 141 360 123 311 q 105 261 105 215 m 237 677 l 237 677 q 237 662 238 652 q 238 642 243 635 q 247 628 256 625 q 265 621 283 621 l 283 621 q 328 621 355 646 q 382 670 382 710 l 382 710 q 382 719 380 731 q 377 743 373 755 q 368 766 360 774 q 351 781 339 781 l 339 781 q 323 781 305 770 q 287 758 272 741 q 256 724 247 706 q 237 688 237 677"},"æ":{"x_min":20,"x_max":992,"ha":1005,"o":"m 450 129 l 450 129 q 412 103 385 83 q 357 62 331 48 q 305 34 276 27 q 246 20 203 20 l 203 20 q 110 20 65 70 q 20 119 20 217 l 20 217 q 20 255 30 296 q 40 337 60 378 q 79 418 106 455 q 133 491 167 519 q 201 547 240 564 q 278 580 321 580 l 321 580 q 369 576 403 561 q 436 546 459 524 q 482 501 496 472 q 509 442 517 408 l 517 408 q 529 442 549 472 q 568 501 595 524 q 621 546 656 559 q 691 571 734 571 l 734 571 q 771 571 800 558 q 828 544 847 522 q 866 500 876 471 q 885 441 885 409 l 885 409 q 885 358 861 310 q 837 262 798 226 q 758 189 708 171 q 657 152 604 162 l 604 162 q 605 133 624 116 q 642 98 668 89 q 694 80 723 78 q 751 75 771 75 l 771 75 q 794 75 815 79 q 835 83 855 88 q 875 93 895 97 q 915 101 938 101 l 938 101 q 947 101 957 100 q 966 99 974 96 q 982 92 987 85 q 992 77 992 66 l 992 66 q 992 47 978 35 q 964 22 943 13 q 921 4 895 0 q 868 -5 844 -7 q 819 -10 799 -10 q 778 -11 769 -11 l 769 -11 q 704 -11 653 9 q 601 28 567 66 l 567 66 q 571 51 578 37 l 578 37 q 565 4 554 -9 q 542 -23 528 -14 q 514 -5 496 30 q 477 65 450 129 m 105 215 l 105 215 q 105 158 127 132 q 148 105 203 105 l 203 105 q 244 105 282 120 q 319 134 347 160 q 375 185 392 221 q 409 257 409 301 l 409 301 q 409 319 410 352 q 411 384 406 416 q 401 448 387 472 q 373 495 345 495 l 345 495 q 293 495 249 469 q 205 442 173 401 q 141 360 123 311 q 105 261 105 215 m 602 334 l 602 334 q 602 316 604 304 q 606 291 612 283 q 617 274 628 271 q 639 267 657 267 l 657 267 q 683 267 708 277 q 733 286 754 303 q 774 319 787 343 q 799 366 799 393 l 799 393 q 799 408 796 424 q 793 440 786 454 q 778 467 765 476 q 752 484 733 484 l 733 484 q 702 484 678 471 q 653 457 637 436 q 620 414 611 388 q 602 361 602 334"},"ç":{"x_min":0,"x_max":499,"ha":472,"o":"m 230 -354 l 230 -354 q 246 -343 269 -328 q 292 -314 316 -299 q 339 -284 361 -267 q 382 -251 395 -235 q 407 -220 408 -205 q 408 -190 389 -178 l 389 -178 q 357 -178 328 -179 q 298 -181 272 -179 q 245 -178 224 -171 q 202 -164 186 -147 q 170 -130 161 -100 q 152 -70 152 -23 l 152 -23 q 151 -3 152 11 l 152 11 q 116 27 88 62 q 59 96 40 138 q 21 180 11 223 q 0 266 0 301 l 0 301 q 0 343 19 389 q 37 435 68 473 q 99 510 140 535 q 180 560 225 560 l 225 560 q 248 560 271 552 q 294 544 313 529 q 331 514 343 493 q 354 472 354 446 l 354 446 q 336 446 322 450 q 307 454 293 460 q 279 465 266 469 q 252 473 236 473 l 236 473 q 195 473 170 453 q 144 432 129 401 q 114 370 109 335 q 103 299 103 268 l 103 268 q 103 263 104 249 q 104 235 105 220 q 105 204 106 190 q 106 176 107 171 l 107 171 q 118 147 129 134 q 139 121 151 115 q 163 108 177 107 q 191 105 210 105 l 210 105 q 236 105 256 113 q 275 121 292 132 q 309 143 324 157 q 339 170 356 182 q 372 193 392 201 q 411 208 436 208 l 436 208 q 436 165 422 129 q 408 93 382 67 q 355 40 320 24 q 284 7 242 2 l 242 2 q 247 -14 238 -25 l 238 -25 q 238 -57 249 -72 q 260 -88 279 -94 q 297 -100 321 -99 q 344 -98 368 -96 q 392 -95 416 -95 q 439 -95 458 -104 q 476 -113 488 -132 q 499 -152 499 -189 l 499 -189 q 499 -205 488 -226 q 476 -248 458 -271 q 439 -295 415 -317 q 391 -340 365 -358 q 338 -376 312 -387 q 286 -399 265 -399 l 265 -399 q 244 -399 237 -384 q 230 -370 230 -354"},"è":{"x_min":20,"x_max":516,"ha":558,"o":"m 20 278 l 20 278 q 20 332 33 386 q 46 440 75 483 q 103 526 149 553 q 194 580 259 580 l 259 580 q 296 580 324 567 q 352 553 371 531 q 390 509 400 480 q 409 450 409 418 l 409 418 q 409 367 386 319 q 362 271 323 235 q 283 198 232 180 q 181 161 128 171 l 128 171 q 129 142 148 125 q 166 107 192 98 q 218 89 246 87 q 274 84 296 84 l 296 84 q 319 84 339 88 q 359 92 379 97 q 399 102 420 106 q 440 110 463 110 l 463 110 q 472 110 481 109 q 490 108 498 105 q 506 101 511 94 q 516 86 516 75 l 516 75 q 516 56 502 44 q 488 31 467 22 q 445 13 419 9 q 393 4 369 2 q 344 -1 324 -1 q 303 -2 293 -2 l 293 -2 q 229 -2 178 19 q 127 39 92 76 q 57 112 39 164 q 20 215 20 278 m 126 343 l 126 343 q 126 308 136 292 q 145 276 182 276 l 182 276 q 208 276 233 286 q 258 295 279 312 q 299 329 311 352 q 323 375 323 402 l 323 402 q 323 417 321 433 q 318 449 310 463 q 302 476 290 485 q 277 493 257 493 l 257 493 q 227 493 203 480 q 178 466 161 445 q 144 423 135 397 q 126 370 126 343 m 298 609 l 190 757 q 194 777 203 783 q 212 788 224 784 q 235 780 249 768 q 262 755 276 739 q 290 723 303 705 q 316 687 326 671 l 326 671 q 327 670 331 665 q 334 660 337 657 l 337 657 q 348 644 348 631 q 347 617 341 608 q 334 599 322 598 q 309 597 298 609 l 298 609"},"é":{"x_min":20,"x_max":516,"ha":558,"o":"m 20 278 l 20 278 q 20 332 33 386 q 46 440 75 483 q 103 526 149 553 q 194 580 259 580 l 259 580 q 296 580 324 567 q 352 553 371 531 q 390 509 400 480 q 409 450 409 418 l 409 418 q 409 367 386 319 q 362 271 323 235 q 283 198 232 180 q 181 161 128 171 l 128 171 q 129 142 148 125 q 166 107 192 98 q 218 89 246 87 q 274 84 296 84 l 296 84 q 319 84 339 88 q 359 92 379 97 q 399 102 420 106 q 440 110 463 110 l 463 110 q 472 110 481 109 q 490 108 498 105 q 506 101 511 94 q 516 86 516 75 l 516 75 q 516 56 502 44 q 488 31 467 22 q 445 13 419 9 q 393 4 369 2 q 344 -1 324 -1 q 303 -2 293 -2 l 293 -2 q 229 -2 178 19 q 127 39 92 76 q 57 112 39 164 q 20 215 20 278 m 126 343 l 126 343 q 126 308 136 292 q 145 276 182 276 l 182 276 q 208 276 233 286 q 258 295 279 312 q 299 329 311 352 q 323 375 323 402 l 323 402 q 323 417 321 433 q 318 449 310 463 q 302 476 290 485 q 277 493 257 493 l 257 493 q 227 493 203 480 q 178 466 161 445 q 144 423 135 397 q 126 370 126 343 m 288 763 l 288 763 l 180 603 q 168 589 156 591 q 144 593 138 603 q 131 612 131 627 q 130 641 141 655 l 141 655 q 144 658 148 664 q 151 669 152 671 l 152 671 q 162 687 175 707 q 188 727 202 745 q 216 762 230 776 q 243 789 255 794 q 267 798 276 792 q 284 785 288 763"},"ê":{"x_min":20,"x_max":516,"ha":558,"o":"m 20 278 l 20 278 q 20 332 33 386 q 46 440 75 483 q 103 526 149 553 q 194 580 259 580 l 259 580 q 296 580 324 567 q 352 553 371 531 q 390 509 400 480 q 409 450 409 418 l 409 418 q 409 367 386 319 q 362 271 323 235 q 283 198 232 180 q 181 161 128 171 l 128 171 q 129 142 148 125 q 166 107 192 98 q 218 89 246 87 q 274 84 296 84 l 296 84 q 319 84 339 88 q 359 92 379 97 q 399 102 420 106 q 440 110 463 110 l 463 110 q 472 110 481 109 q 490 108 498 105 q 506 101 511 94 q 516 86 516 75 l 516 75 q 516 56 502 44 q 488 31 467 22 q 445 13 419 9 q 393 4 369 2 q 344 -1 324 -1 q 303 -2 293 -2 l 293 -2 q 229 -2 178 19 q 127 39 92 76 q 57 112 39 164 q 20 215 20 278 m 126 343 l 126 343 q 126 308 136 292 q 145 276 182 276 l 182 276 q 208 276 233 286 q 258 295 279 312 q 299 329 311 352 q 323 375 323 402 l 323 402 q 323 417 321 433 q 318 449 310 463 q 302 476 290 485 q 277 493 257 493 l 257 493 q 227 493 203 480 q 178 466 161 445 q 144 423 135 397 q 126 370 126 343 m 246 982 l 246 982 q 266 971 287 950 q 308 929 330 903 q 351 876 372 847 q 392 817 411 790 q 430 763 447 740 q 463 717 474 705 l 474 705 q 473 703 468 697 q 463 691 456 685 q 449 678 442 671 q 435 664 431 661 l 431 661 q 428 661 427 661 l 427 661 q 424 660 421 660 l 421 660 q 417 660 414 661 l 414 661 q 411 661 410 661 l 410 661 q 380 681 364 709 q 348 736 334 761 q 320 785 302 802 q 284 819 251 819 l 251 819 q 230 768 218 736 q 206 704 198 686 q 190 668 183 661 q 176 653 165 652 q 153 651 134 653 q 114 655 82 655 l 82 655 q 82 674 89 703 q 95 732 107 765 q 118 798 134 833 q 149 868 167 898 q 185 928 206 951 q 226 973 246 982"},"ë":{"x_min":20,"x_max":516,"ha":558,"o":"m 20 278 l 20 278 q 20 332 33 386 q 46 440 75 483 q 103 526 149 553 q 194 580 259 580 l 259 580 q 296 580 324 567 q 352 553 371 531 q 390 509 400 480 q 409 450 409 418 l 409 418 q 409 367 386 319 q 362 271 323 235 q 283 198 232 180 q 181 161 128 171 l 128 171 q 129 142 148 125 q 166 107 192 98 q 218 89 246 87 q 274 84 296 84 l 296 84 q 319 84 339 88 q 359 92 379 97 q 399 102 420 106 q 440 110 463 110 l 463 110 q 472 110 481 109 q 490 108 498 105 q 506 101 511 94 q 516 86 516 75 l 516 75 q 516 56 502 44 q 488 31 467 22 q 445 13 419 9 q 393 4 369 2 q 344 -1 324 -1 q 303 -2 293 -2 l 293 -2 q 229 -2 178 19 q 127 39 92 76 q 57 112 39 164 q 20 215 20 278 m 126 343 l 126 343 q 126 308 136 292 q 145 276 182 276 l 182 276 q 208 276 233 286 q 258 295 279 312 q 299 329 311 352 q 323 375 323 402 l 323 402 q 323 417 321 433 q 318 449 310 463 q 302 476 290 485 q 277 493 257 493 l 257 493 q 227 493 203 480 q 178 466 161 445 q 144 423 135 397 q 126 370 126 343 m 145 749 l 145 749 q 190 749 190 702 l 190 702 q 179 673 163 663 q 146 653 131 656 q 116 659 105 671 q 93 683 92 698 q 91 713 103 728 q 115 742 145 749 m 372 749 l 372 749 q 417 749 417 702 l 417 702 q 405 673 389 663 q 373 653 358 656 q 342 659 331 671 q 320 683 319 698 q 318 713 330 728 q 341 742 372 749"},"ì":{"x_min":31,"x_max":217,"ha":236,"o":"m 62 375 l 62 375 q 62 381 63 395 q 63 408 64 423 q 64 438 65 452 q 65 466 65 472 l 65 472 q 76 488 94 498 q 111 508 129 514 l 129 514 q 132 460 146 399 q 160 338 176 277 q 192 215 205 155 q 217 95 217 43 l 217 43 q 217 -2 171 -2 l 171 -2 q 143 -2 124 21 q 105 44 94 80 q 82 115 75 159 q 68 202 66 244 q 63 286 63 321 q 62 356 62 375 m 138 609 l 31 757 q 34 777 43 783 q 52 788 64 784 q 76 780 90 768 q 103 755 117 739 q 130 723 143 705 q 156 687 166 671 l 166 671 q 167 670 171 665 q 175 660 177 657 l 177 657 q 188 644 188 631 q 187 617 181 608 q 174 599 162 598 q 149 597 138 609 l 138 609"},"í":{"x_min":48,"x_max":217,"ha":236,"o":"m 62 375 l 62 375 q 62 381 63 395 q 63 408 64 423 q 64 438 65 452 q 65 466 65 472 l 65 472 q 76 488 94 498 q 111 508 129 514 l 129 514 q 132 460 146 399 q 160 338 176 277 q 192 215 205 155 q 217 95 217 43 l 217 43 q 217 -2 171 -2 l 171 -2 q 143 -2 124 21 q 105 44 94 80 q 82 115 75 159 q 68 202 66 244 q 63 286 63 321 q 62 356 62 375 m 206 740 l 206 740 l 97 580 q 85 566 74 568 q 62 570 56 580 q 49 589 49 604 q 48 618 58 632 l 58 632 q 61 635 65 641 q 68 646 69 648 l 69 648 q 79 664 92 684 q 105 704 119 722 q 133 739 147 753 q 161 766 173 771 q 184 775 193 769 q 202 762 206 740"},"î":{"x_min":-78,"x_max":314,"ha":236,"o":"m 62 375 l 62 375 q 62 381 63 395 q 63 408 64 423 q 64 438 65 452 q 65 466 65 472 l 65 472 q 76 488 94 498 q 111 508 129 514 l 129 514 q 132 460 146 399 q 160 338 176 277 q 192 215 205 155 q 217 95 217 43 l 217 43 q 217 -2 171 -2 l 171 -2 q 143 -2 124 21 q 105 44 94 80 q 82 115 75 159 q 68 202 66 244 q 63 286 63 321 q 62 356 62 375 m 85 982 l 85 982 q 105 971 127 950 q 148 929 170 903 q 191 876 212 847 q 232 817 251 790 q 270 763 286 740 q 302 717 314 705 l 314 705 q 313 703 308 697 q 302 691 296 685 q 289 678 282 671 q 274 664 271 661 l 271 661 q 268 661 266 661 l 266 661 q 264 660 261 660 l 261 660 q 257 660 255 661 l 255 661 q 252 661 250 661 l 250 661 q 220 681 204 709 q 188 736 175 761 q 161 785 143 802 q 125 819 91 819 l 91 819 q 69 768 58 736 q 46 704 38 686 q 30 668 23 661 q 16 653 5 652 q -7 651 -26 653 q -46 655 -78 655 l -78 655 q -78 674 -71 703 q -65 732 -53 765 q -42 798 -26 833 q -11 868 7 898 q 25 928 46 951 q 66 973 85 982"},"ï":{"x_min":-58,"x_max":268,"ha":236,"o":"m 62 375 l 62 375 q 62 381 63 395 q 63 408 64 423 q 64 438 65 452 q 65 466 65 472 l 65 472 q 76 488 94 498 q 111 508 129 514 l 129 514 q 132 460 146 399 q 160 338 176 277 q 192 215 205 155 q 217 95 217 43 l 217 43 q 217 -2 171 -2 l 171 -2 q 143 -2 124 21 q 105 44 94 80 q 82 115 75 159 q 68 202 66 244 q 63 286 63 321 q 62 356 62 375 m -4 752 l -4 752 q 41 752 41 706 l 41 706 q 30 677 14 667 q -3 657 -18 660 q -33 662 -44 675 q -56 687 -57 702 q -58 716 -46 731 q -34 745 -4 752 m 223 752 l 223 752 q 268 752 268 706 l 268 706 q 256 677 240 667 q 224 657 209 660 q 193 662 182 675 q 171 687 170 702 q 169 716 181 731 q 193 745 223 752"},"ð":{"x_min":47,"x_max":492,"ha":472,"o":"m 492 548 l 492 548 q 492 527 484 513 q 475 499 447 500 l 447 500 l 414 500 q 421 453 426 404 q 430 354 433 311 q 436 268 437 235 q 437 202 437 188 l 437 188 q 437 182 437 169 q 436 156 436 141 q 436 126 436 113 q 436 99 436 94 l 436 94 q 422 64 409 47 q 396 30 381 21 q 366 12 348 9 q 330 6 307 6 l 307 6 q 258 6 212 29 q 166 52 129 89 q 92 126 70 174 q 47 221 47 271 l 47 271 q 47 333 77 371 q 106 409 171 409 l 171 409 q 193 409 213 403 q 233 396 253 389 q 272 382 291 376 q 310 369 330 369 l 330 369 q 330 372 331 377 q 332 382 333 388 q 334 393 335 399 q 336 404 335 407 l 335 407 q 333 414 326 442 q 319 469 311 503 l 311 503 q 257 506 205 517 q 153 528 119 553 l 119 553 q 119 579 126 584 q 133 589 151 589 l 151 589 q 172 593 210 592 q 247 591 293 588 l 293 588 q 285 619 280 643 l 280 643 l 273 676 l 273 697 q 274 700 283 708 q 291 716 293 718 l 293 718 q 295 718 298 719 l 298 719 q 300 719 302 720 q 303 720 304 720 l 304 720 q 320 720 334 709 q 348 698 360 680 q 372 661 382 635 q 391 608 398 579 l 398 579 q 427 576 451 574 q 475 572 490 572 l 490 572 q 490 570 491 561 q 492 552 492 548 m 337 198 l 337 198 q 337 225 326 245 q 314 265 295 279 q 276 292 253 298 q 229 304 203 304 l 203 304 l 175 304 q 162 304 151 301 q 140 297 134 288 q 128 278 128 260 l 128 260 q 128 237 144 208 q 159 178 183 153 q 206 127 233 110 q 260 92 283 92 l 283 92 q 301 92 311 105 q 321 117 327 134 q 333 151 335 169 q 337 187 337 198"},"ñ":{"x_min":8,"x_max":574,"ha":579,"o":"m 20 337 l 20 337 q 20 363 33 375 q 46 386 75 386 l 75 386 l 85 386 q 88 370 92 349 q 96 328 104 306 q 112 284 123 266 q 134 247 150 236 l 150 236 q 151 271 168 304 q 184 336 209 362 q 233 387 263 405 q 292 422 321 428 l 321 428 l 343 428 q 391 428 425 407 q 459 385 482 351 q 504 316 516 272 q 528 228 535 183 q 541 137 543 95 q 544 52 544 22 l 544 22 l 471 22 q 465 82 456 137 l 456 137 q 453 159 448 184 q 443 208 437 230 q 431 251 424 270 q 417 288 408 301 l 408 301 q 404 305 398 312 q 391 319 384 326 q 377 333 371 338 q 365 343 364 343 l 364 343 q 334 351 312 332 q 290 312 273 279 q 256 246 246 204 q 235 162 228 124 q 221 85 218 57 q 215 28 214 22 l 214 22 q 189 4 167 12 q 145 19 126 43 q 106 67 91 103 q 75 139 62 180 q 49 220 39 261 q 28 302 20 337 m 8 598 l 8 598 q 8 631 14 668 q 20 704 36 735 q 52 765 81 785 q 109 805 154 805 l 154 805 q 186 805 210 791 q 233 776 252 755 q 270 733 286 708 q 302 682 320 660 q 338 638 360 624 q 381 610 410 610 l 410 610 q 444 610 460 620 q 475 630 480 647 q 485 663 484 683 q 482 703 482 723 q 482 742 487 758 q 491 773 508 782 l 508 782 l 528 782 q 531 781 538 779 q 544 776 551 773 q 557 770 564 767 q 570 763 572 762 l 572 762 q 572 758 573 751 q 573 743 573 735 q 573 726 574 718 q 574 710 574 708 l 574 708 q 574 620 528 571 q 482 521 396 521 l 396 521 q 363 521 339 534 q 315 547 297 567 q 278 587 263 611 q 248 634 232 654 q 216 673 198 687 q 179 700 154 700 l 154 700 q 122 700 109 688 q 95 675 90 656 q 85 637 85 614 q 85 591 82 569 q 79 547 70 530 q 60 512 37 504 l 37 504 l 14 525 q 14 528 13 538 q 12 547 11 557 l 11 557 l 9 580 q 8 592 8 598"},"ò":{"x_min":20,"x_max":495,"ha":514,"o":"m 20 203 l 20 203 q 20 265 49 319 q 78 372 126 411 q 173 449 233 471 q 292 493 353 493 l 353 493 q 387 493 414 471 q 440 449 458 418 q 476 386 486 351 q 495 316 495 290 l 495 290 q 495 234 468 182 q 441 129 398 89 q 355 48 301 23 q 247 -2 193 -2 l 193 -2 q 145 -2 112 15 q 79 31 59 59 q 39 86 30 124 q 20 161 20 203 m 105 193 l 105 193 q 105 167 110 148 q 114 128 126 114 q 137 100 156 93 q 175 85 203 85 l 203 85 q 240 85 277 106 q 314 126 344 158 q 373 189 391 227 q 409 265 409 301 l 409 301 q 409 317 406 336 q 403 355 396 371 q 389 387 376 398 q 363 409 343 409 l 343 409 q 325 409 301 397 q 276 385 250 366 q 223 347 198 323 q 172 299 151 275 q 130 251 118 229 q 105 207 105 193 m 277 609 l 169 757 q 173 777 182 783 q 191 788 203 784 q 214 780 228 768 q 241 755 255 739 q 269 723 282 705 q 295 687 305 671 l 305 671 q 306 670 310 665 q 313 660 316 657 l 316 657 q 327 644 327 631 q 326 617 320 608 q 313 599 301 598 q 288 597 277 609 l 277 609"},"ó":{"x_min":20,"x_max":495,"ha":514,"o":"m 20 203 l 20 203 q 20 265 49 319 q 78 372 126 411 q 173 449 233 471 q 292 493 353 493 l 353 493 q 387 493 414 471 q 440 449 458 418 q 476 386 486 351 q 495 316 495 290 l 495 290 q 495 234 468 182 q 441 129 398 89 q 355 48 301 23 q 247 -2 193 -2 l 193 -2 q 145 -2 112 15 q 79 31 59 59 q 39 86 30 124 q 20 161 20 203 m 105 193 l 105 193 q 105 167 110 148 q 114 128 126 114 q 137 100 156 93 q 175 85 203 85 l 203 85 q 240 85 277 106 q 314 126 344 158 q 373 189 391 227 q 409 265 409 301 l 409 301 q 409 317 406 336 q 403 355 396 371 q 389 387 376 398 q 363 409 343 409 l 343 409 q 325 409 301 397 q 276 385 250 366 q 223 347 198 323 q 172 299 151 275 q 130 251 118 229 q 105 207 105 193 m 345 740 l 345 740 l 237 580 q 225 566 213 568 q 201 570 195 580 q 188 589 188 604 q 187 618 198 632 l 198 632 q 201 635 205 641 q 208 646 209 648 l 209 648 q 219 664 232 684 q 245 704 259 722 q 273 739 287 753 q 300 766 312 771 q 324 775 333 769 q 341 762 345 740"},"ô":{"x_min":20,"x_max":495,"ha":514,"o":"m 20 203 l 20 203 q 20 265 49 319 q 78 372 126 411 q 173 449 233 471 q 292 493 353 493 l 353 493 q 387 493 414 471 q 440 449 458 418 q 476 386 486 351 q 495 316 495 290 l 495 290 q 495 234 468 182 q 441 129 398 89 q 355 48 301 23 q 247 -2 193 -2 l 193 -2 q 145 -2 112 15 q 79 31 59 59 q 39 86 30 124 q 20 161 20 203 m 105 193 l 105 193 q 105 167 110 148 q 114 128 126 114 q 137 100 156 93 q 175 85 203 85 l 203 85 q 240 85 277 106 q 314 126 344 158 q 373 189 391 227 q 409 265 409 301 l 409 301 q 409 317 406 336 q 403 355 396 371 q 389 387 376 398 q 363 409 343 409 l 343 409 q 325 409 301 397 q 276 385 250 366 q 223 347 198 323 q 172 299 151 275 q 130 251 118 229 q 105 207 105 193 m 225 880 l 225 880 q 245 869 266 848 q 287 827 309 801 q 330 774 351 745 q 371 715 390 688 q 409 661 426 638 q 442 615 453 603 l 453 603 q 452 601 447 595 q 442 589 435 583 q 428 576 421 569 q 414 562 410 559 l 410 559 q 407 559 406 559 l 406 559 q 403 558 400 558 l 400 558 q 396 558 393 559 l 393 559 q 390 559 389 559 l 389 559 q 359 579 343 607 q 327 634 313 659 q 299 683 281 700 q 263 717 230 717 l 230 717 q 209 666 197 634 q 185 602 177 584 q 169 566 162 559 q 155 551 144 550 q 132 549 113 551 q 93 553 61 553 l 61 553 q 61 572 68 601 q 74 630 86 663 q 97 696 113 731 q 128 766 146 796 q 164 826 185 849 q 205 871 225 880"}}}
